<?xml version="1.0" encoding="UTF-8" standalone="no"?>
<!DOCTYPE svg PUBLIC "-//W3C//DTD SVG 1.1//EN" "http://www.w3.org/Graphics/SVG/1.1/DTD/svg11.dtd">
<svg xmlns="http://www.w3.org/2000/svg" version="1.1" viewBox="0.00 0.00 1024.00 224.00">
<g stroke-width="2.00" fill="none" stroke-linecap="butt">
<path stroke="#808080" vector-effect="non-scaling-stroke" d="
  M 327.20 163.92
  L 326.86 180.21
  A 0.40 0.40 0.0 0 0 327.26 180.62
  L 341.14 180.91
  A 0.14 0.13 -1.9 0 0 341.28 180.77
  Q 339.65 110.68 342.92 39.15
  A 0.63 0.63 0.0 0 0 342.19 38.50
  Q 335.03 39.71 330.33 38.95
  Q 328.20 38.61 326.77 38.58
  A 0.51 0.50 -89.4 0 0 326.26 39.09
  L 326.91 107.48
  A 0.30 0.30 0.0 0 1 326.36 107.65
  Q 325.59 106.50 324.24 104.05
  C 317.51 91.85 304.13 87.45 290.78 89.86
  Q 279.80 91.85 272.41 98.17
  Q 261.14 107.83 257.86 122.79
  Q 254.79 136.85 257.49 149.81
  Q 259.12 157.63 260.89 161.26
  Q 271.10 182.20 293.41 182.68
  Q 303.24 182.89 310.21 179.68
  Q 318.59 175.82 323.30 168.79
  Q 326.36 164.21 326.69 163.75
  A 0.28 0.28 0.0 0 1 327.20 163.92"
/>
<path stroke="#808080" vector-effect="non-scaling-stroke" d="
  M 18.21 127.18
  Q 18.21 117.97 19.18 106.79
  Q 21.82 76.42 40.56 52.76
  A 0.92 0.91 -48.7 0 0 40.49 51.53
  L 38.06 49.10
  A 0.84 0.84 0.0 0 0 36.85 49.12
  C 17.28 70.46 6.52 98.00 6.51 127.17
  C 6.49 156.35 17.22 183.90 36.76 205.26
  A 0.84 0.84 0.0 0 0 37.98 205.28
  L 40.41 202.85
  A 0.92 0.91 48.8 0 0 40.48 201.63
  Q 21.77 177.94 19.16 147.57
  Q 18.20 136.39 18.21 127.18"
/>
<path stroke="#808080" vector-effect="non-scaling-stroke" d="
  M 478.46 127.13
  Q 478.47 136.33 477.51 147.49
  Q 474.90 177.83 456.20 201.48
  A 0.92 0.91 -48.7 0 0 456.27 202.70
  L 458.70 205.13
  A 0.84 0.84 0.0 0 0 459.91 205.11
  C 479.44 183.78 490.16 156.27 490.15 127.13
  C 490.14 97.98 479.41 70.48 459.87 49.16
  A 0.84 0.84 0.0 0 0 458.65 49.14
  L 456.22 51.57
  A 0.92 0.91 48.7 0 0 456.16 52.79
  Q 474.87 76.43 477.50 106.76
  Q 478.46 117.93 478.46 127.13"
/>
<path stroke="#808080" vector-effect="non-scaling-stroke" d="
  M 520.14 116.12
  C 520.14 140.79 519.76 160.80 518.69 180.65
  A 0.35 0.35 0.0 0 0 519.07 181.01
  Q 524.32 180.51 527.91 180.51
  Q 531.50 180.51 536.75 181.01
  A 0.35 0.35 0.0 0 0 537.13 180.65
  C 536.06 160.80 535.69 140.79 535.69 116.12
  C 535.69 91.45 536.07 71.45 537.14 51.60
  A 0.35 0.35 0.0 0 0 536.76 51.23
  Q 531.51 51.73 527.92 51.73
  Q 524.33 51.73 519.08 51.23
  A 0.35 0.35 0.0 0 0 518.70 51.59
  C 519.77 71.45 520.14 91.45 520.14 116.12"
/>
<path stroke="#808080" vector-effect="non-scaling-stroke" d="
  M 829.24 76.54
  A 0.74 0.74 0.0 0 0 828.50 75.80
  L 773.84 75.80
  A 0.74 0.74 0.0 0 0 773.10 76.54
  L 773.10 77.04
  A 0.74 0.74 0.0 0 0 773.84 77.78
  L 828.50 77.78
  A 0.74 0.74 0.0 0 0 829.24 77.04
  L 829.24 76.54"
/>
<path stroke="#808080" vector-effect="non-scaling-stroke" d="
  M 134.71 163.09
  C 134.85 162.41 133.88 162.18 133.50 162.56
  Q 125.19 170.98 114.30 174.11
  C 109.24 175.56 103.24 175.77 98.73 174.99
  Q 78.92 171.54 74.31 151.73
  Q 71.31 138.79 73.45 124.75
  Q 74.69 116.60 77.77 110.70
  C 83.11 100.48 92.92 95.40 104.40 95.28
  C 114.59 95.17 123.90 101.30 129.10 109.85
  A 0.79 0.79 0.0 0 0 130.53 109.68
  L 134.32 98.19
  A 1.46 1.45 -66.0 0 0 133.66 96.46
  Q 125.97 92.04 117.31 90.42
  C 93.44 85.93 67.09 93.97 58.61 118.82
  Q 52.73 136.07 58.58 154.40
  C 61.86 164.65 69.88 173.79 79.02 177.98
  Q 88.62 182.38 100.12 182.71
  Q 118.31 183.22 133.25 172.23
  A 1.34 1.34 0.0 0 0 133.80 171.23
  Q 134.20 165.42 134.71 163.09"
/>
<path stroke="#808080" vector-effect="non-scaling-stroke" d="
  M 195.79 182.70
  C 212.40 182.62 227.01 176.94 235.55 162.24
  Q 241.10 152.69 241.69 139.36
  C 242.64 117.71 233.62 98.89 212.22 91.89
  Q 203.90 89.16 195.35 89.20
  Q 186.80 89.25 178.50 92.05
  C 157.17 99.25 148.33 118.16 149.48 139.80
  Q 150.20 153.12 155.84 162.61
  C 164.52 177.23 179.18 182.78 195.79 182.70"
/>
<path stroke="#808080" vector-effect="non-scaling-stroke" d="
  M 438.81 162.32
  Q 438.40 162.29 438.22 162.47
  C 426.05 174.98 407.29 180.02 391.82 170.41
  C 379.91 163.01 376.45 149.02 377.39 135.90
  A 0.84 0.83 -88.9 0 1 378.20 135.12
  Q 409.12 134.27 442.26 135.29
  A 0.65 0.65 0.0 0 0 442.92 134.72
  C 444.64 121.41 441.37 106.54 430.62 97.93
  C 420.27 89.62 407.13 87.92 394.25 90.10
  C 383.13 91.98 374.83 97.17 368.79 106.29
  C 360.86 118.23 358.78 136.89 361.81 150.28
  C 365.65 167.30 379.86 179.56 397.32 182.11
  Q 419.67 185.37 437.69 172.43
  A 1.45 1.45 0.0 0 0 438.29 171.48
  Q 438.84 168.15 439.32 162.93
  Q 439.37 162.36 438.81 162.32"
/>
<path stroke="#808080" vector-effect="non-scaling-stroke" d="
  M 817.67 170.55
  C 818.85 174.37 820.96 178.40 825.07 179.69
  C 830.74 181.46 836.43 180.55 842.03 179.14
  A 1.25 1.25 0.0 0 0 842.97 177.92
  L 842.95 175.70
  A 0.75 0.75 0.0 0 0 842.04 174.98
  C 830.73 177.42 831.50 165.65 831.66 158.50
  Q 832.28 131.31 832.47 121.44
  Q 832.61 114.09 831.76 110.63
  C 829.67 102.21 824.31 95.34 816.04 91.98
  C 801.06 85.90 783.62 90.18 771.41 100.04
  A 1.07 1.06 -19.9 0 0 771.02 100.86
  L 771.10 109.44
  A 0.81 0.81 0.0 0 0 771.98 110.24
  Q 772.94 110.16 773.22 109.70
  C 778.83 100.65 788.21 96.97 798.82 97.34
  C 806.55 97.61 812.92 101.82 815.77 108.74
  Q 818.59 115.55 817.55 124.96
  A 2.55 2.43 -29.6 0 1 817.29 125.82
  C 815.51 129.27 809.06 130.65 804.75 131.47
  Q 796.44 133.05 788.17 134.55
  C 776.93 136.59 765.46 142.04 763.24 154.60
  Q 761.11 166.62 768.04 174.59
  C 775.29 182.91 785.49 183.44 795.83 182.22
  C 803.33 181.33 811.71 175.77 817.01 170.39
  A 0.40 0.39 58.5 0 1 817.67 170.55"
/>
<path stroke="#808080" vector-effect="non-scaling-stroke" d="
  M 878.90 109.11
  L 879.26 91.52
  A 0.21 0.21 0.0 0 0 879.01 91.30
  Q 871.93 92.63 864.76 91.30
  A 0.42 0.41 4.6 0 0 864.27 91.71
  Q 864.92 118.87 864.77 150.00
  Q 864.66 174.11 864.23 180.50
  A 0.33 0.33 0.0 0 0 864.56 180.85
  L 879.46 180.70
  A 0.21 0.21 0.0 0 0 879.67 180.46
  Q 879.16 175.96 879.11 172.00
  Q 878.97 158.48 878.99 129.25
  C 879.00 114.48 887.37 99.80 904.52 104.76
  Q 905.42 105.02 906.99 106.16
  A 1.20 1.20 0.0 0 0 908.90 105.16
  Q 908.65 96.49 909.94 90.75
  A 0.65 0.65 0.0 0 0 909.50 89.99
  C 895.84 85.86 884.63 98.83 879.32 109.22
  A 0.22 0.22 0.0 0 1 878.90 109.11"
/>
<path stroke="#808080" vector-effect="non-scaling-stroke" d="
  M 997.81 162.32
  Q 997.40 162.29 997.22 162.47
  C 985.05 174.98 966.29 180.01 950.82 170.40
  C 938.91 163.00 935.45 149.01 936.40 135.89
  A 0.84 0.83 -88.9 0 1 937.21 135.11
  Q 968.12 134.27 1001.26 135.29
  A 0.65 0.65 0.0 0 0 1001.92 134.72
  C 1003.64 121.41 1000.37 106.54 989.63 97.93
  C 979.28 89.62 966.14 87.92 953.26 90.10
  C 942.14 91.98 933.84 97.16 927.80 106.28
  C 919.87 118.22 917.79 136.88 920.82 150.27
  C 924.65 167.29 938.86 179.55 956.32 182.10
  Q 978.67 185.36 996.69 172.43
  A 1.45 1.45 0.0 0 0 997.29 171.48
  Q 997.84 168.15 998.32 162.93
  Q 998.37 162.36 997.81 162.32"
/>
<path stroke="#808080" vector-effect="non-scaling-stroke" d="
  M 630.54 166.13
  L 630.24 180.40
  A 0.23 0.22 1.4 0 0 630.46 180.62
  L 644.28 180.90
  A 0.50 0.50 0.0 0 0 644.79 180.38
  Q 642.90 135.79 645.39 91.61
  A 0.32 0.31 85.8 0 0 645.02 91.28
  Q 637.62 92.62 630.14 91.27
  A 0.25 0.25 0.0 0 0 629.84 91.52
  Q 630.36 117.11 629.90 144.12
  Q 629.78 150.97 627.63 157.55
  C 623.51 170.19 612.48 175.15 599.92 172.96
  Q 592.69 171.70 588.08 165.76
  C 581.30 157.03 582.77 142.83 582.90 132.05
  Q 583.17 109.94 584.51 91.95
  A 0.57 0.56 87.6 0 0 583.86 91.35
  Q 576.65 92.50 569.63 91.35
  A 0.53 0.52 4.2 0 0 569.02 91.87
  Q 569.37 115.01 569.37 115.23
  C 569.53 126.41 568.82 139.16 568.73 150.37
  C 568.65 161.45 571.30 172.90 582.12 178.56
  Q 586.50 180.85 588.65 181.35
  C 597.84 183.49 608.57 183.46 616.72 178.86
  Q 624.46 174.50 627.45 169.24
  Q 627.59 169.00 629.88 165.91
  A 0.37 0.36 -26.4 0 1 630.54 166.13"
/>
<path stroke="#808080" vector-effect="non-scaling-stroke" d="
  M 750.02 91.44
  Q 744.74 92.45 739.55 91.37
  A 0.75 0.74 -74.2 0 0 738.70 91.85
  C 730.56 114.28 722.20 137.63 712.16 160.39
  Q 711.30 162.33 710.29 163.91
  A 0.45 0.44 -40.4 0 1 709.51 163.85
  Q 699.54 141.76 691.17 119.10
  Q 688.23 111.13 681.84 91.80
  A 0.72 0.71 -13.7 0 0 681.04 91.32
  Q 672.75 92.68 664.91 91.30
  A 0.59 0.59 0.0 0 0 664.27 92.13
  C 677.38 120.39 688.49 149.77 700.36 180.28
  A 0.62 0.62 0.0 0 0 700.92 180.67
  L 712.27 180.90
  A 0.54 0.53 10.5 0 0 712.79 180.55
  Q 718.54 164.41 726.28 146.49
  Q 738.33 118.57 750.45 91.99
  A 0.39 0.39 0.0 0 0 750.02 91.44"
/>
<path stroke="#808080" vector-effect="non-scaling-stroke" d="
  M 273.30 133.61
  C 272.70 143.88 273.39 153.60 277.74 162.70
  Q 284.21 176.20 299.15 176.30
  Q 306.70 176.34 312.20 172.45
  C 327.10 161.91 329.22 138.47 326.54 122.24
  C 324.12 107.55 315.87 97.24 299.88 97.27
  C 284.76 97.29 277.56 108.84 274.56 122.29
  Q 273.74 125.97 273.30 133.61"
/>
<path stroke="#808080" vector-effect="non-scaling-stroke" d="
  M 166.10 136.32
  C 166.11 155.43 172.04 177.30 195.59 177.29
  C 219.15 177.28 225.05 155.40 225.04 136.28
  C 225.03 117.17 219.10 95.30 195.55 95.31
  C 171.99 95.32 166.09 117.21 166.10 136.32"
/>
<path stroke="#808080" vector-effect="non-scaling-stroke" d="
  M 427.72 127.43
  Q 427.75 116.97 424.63 109.27
  Q 418.70 94.65 402.97 95.36
  C 386.50 96.10 378.89 113.33 377.89 127.41
  A 0.63 0.62 -87.3 0 0 378.49 128.08
  Q 403.70 129.05 427.09 128.08
  A 0.66 0.65 -1.4 0 0 427.72 127.43"
/>
<path stroke="#808080" vector-effect="non-scaling-stroke" d="
  M 816.78 163.09
  A 2.48 2.45 -26.2 0 0 817.27 161.68
  L 817.83 134.36
  A 0.14 0.13 -3.4 0 0 817.67 134.22
  Q 802.97 137.17 797.52 138.33
  C 782.83 141.46 775.19 149.94 779.54 165.48
  A 3.69 3.36 -70.9 0 0 779.91 166.34
  Q 784.93 174.87 794.13 175.40
  C 803.28 175.92 811.33 170.39 816.78 163.09"
/>
<path stroke="#808080" vector-effect="non-scaling-stroke" d="
  M 986.73 127.41
  Q 986.75 116.95 983.63 109.26
  Q 977.69 94.65 961.97 95.36
  C 945.51 96.11 937.91 113.34 936.92 127.41
  A 0.63 0.62 -87.4 0 0 937.52 128.08
  Q 962.72 129.04 986.10 128.06
  A 0.66 0.65 -1.4 0 0 986.73 127.41"
/>
</g>
<path fill="#ffffff" d="
  M 1024.00 0.00
  L 1024.00 224.00
  L 0.00 224.00
  L 0.00 0.00
  L 1024.00 0.00
  Z
  M 327.20 163.92
  L 326.86 180.21
  A 0.40 0.40 0.0 0 0 327.26 180.62
  L 341.14 180.91
  A 0.14 0.13 -1.9 0 0 341.28 180.77
  Q 339.65 110.68 342.92 39.15
  A 0.63 0.63 0.0 0 0 342.19 38.50
  Q 335.03 39.71 330.33 38.95
  Q 328.20 38.61 326.77 38.58
  A 0.51 0.50 -89.4 0 0 326.26 39.09
  L 326.91 107.48
  A 0.30 0.30 0.0 0 1 326.36 107.65
  Q 325.59 106.50 324.24 104.05
  C 317.51 91.85 304.13 87.45 290.78 89.86
  Q 279.80 91.85 272.41 98.17
  Q 261.14 107.83 257.86 122.79
  Q 254.79 136.85 257.49 149.81
  Q 259.12 157.63 260.89 161.26
  Q 271.10 182.20 293.41 182.68
  Q 303.24 182.89 310.21 179.68
  Q 318.59 175.82 323.30 168.79
  Q 326.36 164.21 326.69 163.75
  A 0.28 0.28 0.0 0 1 327.20 163.92
  Z
  M 18.21 127.18
  Q 18.21 117.97 19.18 106.79
  Q 21.82 76.42 40.56 52.76
  A 0.92 0.91 -48.7 0 0 40.49 51.53
  L 38.06 49.10
  A 0.84 0.84 0.0 0 0 36.85 49.12
  C 17.28 70.46 6.52 98.00 6.51 127.17
  C 6.49 156.35 17.22 183.90 36.76 205.26
  A 0.84 0.84 0.0 0 0 37.98 205.28
  L 40.41 202.85
  A 0.92 0.91 48.8 0 0 40.48 201.63
  Q 21.77 177.94 19.16 147.57
  Q 18.20 136.39 18.21 127.18
  Z
  M 478.46 127.13
  Q 478.47 136.33 477.51 147.49
  Q 474.90 177.83 456.20 201.48
  A 0.92 0.91 -48.7 0 0 456.27 202.70
  L 458.70 205.13
  A 0.84 0.84 0.0 0 0 459.91 205.11
  C 479.44 183.78 490.16 156.27 490.15 127.13
  C 490.14 97.98 479.41 70.48 459.87 49.16
  A 0.84 0.84 0.0 0 0 458.65 49.14
  L 456.22 51.57
  A 0.92 0.91 48.7 0 0 456.16 52.79
  Q 474.87 76.43 477.50 106.76
  Q 478.46 117.93 478.46 127.13
  Z
  M 520.14 116.12
  C 520.14 140.79 519.76 160.80 518.69 180.65
  A 0.35 0.35 0.0 0 0 519.07 181.01
  Q 524.32 180.51 527.91 180.51
  Q 531.50 180.51 536.75 181.01
  A 0.35 0.35 0.0 0 0 537.13 180.65
  C 536.06 160.80 535.69 140.79 535.69 116.12
  C 535.69 91.45 536.07 71.45 537.14 51.60
  A 0.35 0.35 0.0 0 0 536.76 51.23
  Q 531.51 51.73 527.92 51.73
  Q 524.33 51.73 519.08 51.23
  A 0.35 0.35 0.0 0 0 518.70 51.59
  C 519.77 71.45 520.14 91.45 520.14 116.12
  Z
  M 829.24 76.54
  A 0.74 0.74 0.0 0 0 828.50 75.80
  L 773.84 75.80
  A 0.74 0.74 0.0 0 0 773.10 76.54
  L 773.10 77.04
  A 0.74 0.74 0.0 0 0 773.84 77.78
  L 828.50 77.78
  A 0.74 0.74 0.0 0 0 829.24 77.04
  L 829.24 76.54
  Z
  M 134.71 163.09
  C 134.85 162.41 133.88 162.18 133.50 162.56
  Q 125.19 170.98 114.30 174.11
  C 109.24 175.56 103.24 175.77 98.73 174.99
  Q 78.92 171.54 74.31 151.73
  Q 71.31 138.79 73.45 124.75
  Q 74.69 116.60 77.77 110.70
  C 83.11 100.48 92.92 95.40 104.40 95.28
  C 114.59 95.17 123.90 101.30 129.10 109.85
  A 0.79 0.79 0.0 0 0 130.53 109.68
  L 134.32 98.19
  A 1.46 1.45 -66.0 0 0 133.66 96.46
  Q 125.97 92.04 117.31 90.42
  C 93.44 85.93 67.09 93.97 58.61 118.82
  Q 52.73 136.07 58.58 154.40
  C 61.86 164.65 69.88 173.79 79.02 177.98
  Q 88.62 182.38 100.12 182.71
  Q 118.31 183.22 133.25 172.23
  A 1.34 1.34 0.0 0 0 133.80 171.23
  Q 134.20 165.42 134.71 163.09
  Z
  M 195.79 182.70
  C 212.40 182.62 227.01 176.94 235.55 162.24
  Q 241.10 152.69 241.69 139.36
  C 242.64 117.71 233.62 98.89 212.22 91.89
  Q 203.90 89.16 195.35 89.20
  Q 186.80 89.25 178.50 92.05
  C 157.17 99.25 148.33 118.16 149.48 139.80
  Q 150.20 153.12 155.84 162.61
  C 164.52 177.23 179.18 182.78 195.79 182.70
  Z
  M 438.81 162.32
  Q 438.40 162.29 438.22 162.47
  C 426.05 174.98 407.29 180.02 391.82 170.41
  C 379.91 163.01 376.45 149.02 377.39 135.90
  A 0.84 0.83 -88.9 0 1 378.20 135.12
  Q 409.12 134.27 442.26 135.29
  A 0.65 0.65 0.0 0 0 442.92 134.72
  C 444.64 121.41 441.37 106.54 430.62 97.93
  C 420.27 89.62 407.13 87.92 394.25 90.10
  C 383.13 91.98 374.83 97.17 368.79 106.29
  C 360.86 118.23 358.78 136.89 361.81 150.28
  C 365.65 167.30 379.86 179.56 397.32 182.11
  Q 419.67 185.37 437.69 172.43
  A 1.45 1.45 0.0 0 0 438.29 171.48
  Q 438.84 168.15 439.32 162.93
  Q 439.37 162.36 438.81 162.32
  Z
  M 817.67 170.55
  C 818.85 174.37 820.96 178.40 825.07 179.69
  C 830.74 181.46 836.43 180.55 842.03 179.14
  A 1.25 1.25 0.0 0 0 842.97 177.92
  L 842.95 175.70
  A 0.75 0.75 0.0 0 0 842.04 174.98
  C 830.73 177.42 831.50 165.65 831.66 158.50
  Q 832.28 131.31 832.47 121.44
  Q 832.61 114.09 831.76 110.63
  C 829.67 102.21 824.31 95.34 816.04 91.98
  C 801.06 85.90 783.62 90.18 771.41 100.04
  A 1.07 1.06 -19.9 0 0 771.02 100.86
  L 771.10 109.44
  A 0.81 0.81 0.0 0 0 771.98 110.24
  Q 772.94 110.16 773.22 109.70
  C 778.83 100.65 788.21 96.97 798.82 97.34
  C 806.55 97.61 812.92 101.82 815.77 108.74
  Q 818.59 115.55 817.55 124.96
  A 2.55 2.43 -29.6 0 1 817.29 125.82
  C 815.51 129.27 809.06 130.65 804.75 131.47
  Q 796.44 133.05 788.17 134.55
  C 776.93 136.59 765.46 142.04 763.24 154.60
  Q 761.11 166.62 768.04 174.59
  C 775.29 182.91 785.49 183.44 795.83 182.22
  C 803.33 181.33 811.71 175.77 817.01 170.39
  A 0.40 0.39 58.5 0 1 817.67 170.55
  Z
  M 878.90 109.11
  L 879.26 91.52
  A 0.21 0.21 0.0 0 0 879.01 91.30
  Q 871.93 92.63 864.76 91.30
  A 0.42 0.41 4.6 0 0 864.27 91.71
  Q 864.92 118.87 864.77 150.00
  Q 864.66 174.11 864.23 180.50
  A 0.33 0.33 0.0 0 0 864.56 180.85
  L 879.46 180.70
  A 0.21 0.21 0.0 0 0 879.67 180.46
  Q 879.16 175.96 879.11 172.00
  Q 878.97 158.48 878.99 129.25
  C 879.00 114.48 887.37 99.80 904.52 104.76
  Q 905.42 105.02 906.99 106.16
  A 1.20 1.20 0.0 0 0 908.90 105.16
  Q 908.65 96.49 909.94 90.75
  A 0.65 0.65 0.0 0 0 909.50 89.99
  C 895.84 85.86 884.63 98.83 879.32 109.22
  A 0.22 0.22 0.0 0 1 878.90 109.11
  Z
  M 997.81 162.32
  Q 997.40 162.29 997.22 162.47
  C 985.05 174.98 966.29 180.01 950.82 170.40
  C 938.91 163.00 935.45 149.01 936.40 135.89
  A 0.84 0.83 -88.9 0 1 937.21 135.11
  Q 968.12 134.27 1001.26 135.29
  A 0.65 0.65 0.0 0 0 1001.92 134.72
  C 1003.64 121.41 1000.37 106.54 989.63 97.93
  C 979.28 89.62 966.14 87.92 953.26 90.10
  C 942.14 91.98 933.84 97.16 927.80 106.28
  C 919.87 118.22 917.79 136.88 920.82 150.27
  C 924.65 167.29 938.86 179.55 956.32 182.10
  Q 978.67 185.36 996.69 172.43
  A 1.45 1.45 0.0 0 0 997.29 171.48
  Q 997.84 168.15 998.32 162.93
  Q 998.37 162.36 997.81 162.32
  Z
  M 630.54 166.13
  L 630.24 180.40
  A 0.23 0.22 1.4 0 0 630.46 180.62
  L 644.28 180.90
  A 0.50 0.50 0.0 0 0 644.79 180.38
  Q 642.90 135.79 645.39 91.61
  A 0.32 0.31 85.8 0 0 645.02 91.28
  Q 637.62 92.62 630.14 91.27
  A 0.25 0.25 0.0 0 0 629.84 91.52
  Q 630.36 117.11 629.90 144.12
  Q 629.78 150.97 627.63 157.55
  C 623.51 170.19 612.48 175.15 599.92 172.96
  Q 592.69 171.70 588.08 165.76
  C 581.30 157.03 582.77 142.83 582.90 132.05
  Q 583.17 109.94 584.51 91.95
  A 0.57 0.56 87.6 0 0 583.86 91.35
  Q 576.65 92.50 569.63 91.35
  A 0.53 0.52 4.2 0 0 569.02 91.87
  Q 569.37 115.01 569.37 115.23
  C 569.53 126.41 568.82 139.16 568.73 150.37
  C 568.65 161.45 571.30 172.90 582.12 178.56
  Q 586.50 180.85 588.65 181.35
  C 597.84 183.49 608.57 183.46 616.72 178.86
  Q 624.46 174.50 627.45 169.24
  Q 627.59 169.00 629.88 165.91
  A 0.37 0.36 -26.4 0 1 630.54 166.13
  Z
  M 750.02 91.44
  Q 744.74 92.45 739.55 91.37
  A 0.75 0.74 -74.2 0 0 738.70 91.85
  C 730.56 114.28 722.20 137.63 712.16 160.39
  Q 711.30 162.33 710.29 163.91
  A 0.45 0.44 -40.4 0 1 709.51 163.85
  Q 699.54 141.76 691.17 119.10
  Q 688.23 111.13 681.84 91.80
  A 0.72 0.71 -13.7 0 0 681.04 91.32
  Q 672.75 92.68 664.91 91.30
  A 0.59 0.59 0.0 0 0 664.27 92.13
  C 677.38 120.39 688.49 149.77 700.36 180.28
  A 0.62 0.62 0.0 0 0 700.92 180.67
  L 712.27 180.90
  A 0.54 0.53 10.5 0 0 712.79 180.55
  Q 718.54 164.41 726.28 146.49
  Q 738.33 118.57 750.45 91.99
  A 0.39 0.39 0.0 0 0 750.02 91.44
  Z"
/>
<path fill="#000000" d="
  M 326.69 163.75
  Q 326.36 164.21 323.30 168.79
  Q 318.59 175.82 310.21 179.68
  Q 303.24 182.89 293.41 182.68
  Q 271.10 182.20 260.89 161.26
  Q 259.12 157.63 257.49 149.81
  Q 254.79 136.85 257.86 122.79
  Q 261.14 107.83 272.41 98.17
  Q 279.80 91.85 290.78 89.86
  C 304.13 87.45 317.51 91.85 324.24 104.05
  Q 325.59 106.50 326.36 107.65
  A 0.30 0.30 0.0 0 0 326.91 107.48
  L 326.26 39.09
  A 0.51 0.50 -89.4 0 1 326.77 38.58
  Q 328.20 38.61 330.33 38.95
  Q 335.03 39.71 342.19 38.50
  A 0.63 0.63 0.0 0 1 342.92 39.15
  Q 339.65 110.68 341.28 180.77
  A 0.14 0.13 -1.9 0 1 341.14 180.91
  L 327.26 180.62
  A 0.40 0.40 0.0 0 1 326.86 180.21
  L 327.20 163.92
  A 0.28 0.28 0.0 0 0 326.69 163.75
  Z
  M 273.30 133.61
  C 272.70 143.88 273.39 153.60 277.74 162.70
  Q 284.21 176.20 299.15 176.30
  Q 306.70 176.34 312.20 172.45
  C 327.10 161.91 329.22 138.47 326.54 122.24
  C 324.12 107.55 315.87 97.24 299.88 97.27
  C 284.76 97.29 277.56 108.84 274.56 122.29
  Q 273.74 125.97 273.30 133.61
  Z"
/>
<path fill="#000000" d="
  M 18.21 127.18
  Q 18.20 136.39 19.16 147.57
  Q 21.77 177.94 40.48 201.63
  A 0.92 0.91 48.8 0 1 40.41 202.85
  L 37.98 205.28
  A 0.84 0.84 0.0 0 1 36.76 205.26
  C 17.22 183.90 6.49 156.35 6.51 127.17
  C 6.52 98.00 17.28 70.46 36.85 49.12
  A 0.84 0.84 0.0 0 1 38.06 49.10
  L 40.49 51.53
  A 0.92 0.91 -48.7 0 1 40.56 52.76
  Q 21.82 76.42 19.18 106.79
  Q 18.21 117.97 18.21 127.18
  Z"
/>
<path fill="#000000" d="
  M 490.15 127.13
  C 490.16 156.27 479.44 183.78 459.91 205.11
  A 0.84 0.84 0.0 0 1 458.70 205.13
  L 456.27 202.70
  A 0.92 0.91 -48.7 0 1 456.20 201.48
  Q 474.90 177.83 477.51 147.49
  Q 478.47 136.33 478.46 127.13
  Q 478.46 117.93 477.50 106.76
  Q 474.87 76.43 456.16 52.79
  A 0.92 0.91 48.7 0 1 456.22 51.57
  L 458.65 49.14
  A 0.84 0.84 0.0 0 1 459.87 49.16
  C 479.41 70.48 490.14 97.98 490.15 127.13
  Z"
/>
<path fill="#000000" d="
  M 527.92 51.73
  Q 531.51 51.73 536.76 51.23
  A 0.35 0.35 0.0 0 1 537.14 51.60
  C 536.07 71.45 535.69 91.45 535.69 116.12
  C 535.69 140.79 536.06 160.80 537.13 180.65
  A 0.35 0.35 0.0 0 1 536.75 181.01
  Q 531.50 180.51 527.91 180.51
  Q 524.32 180.51 519.07 181.01
  A 0.35 0.35 0.0 0 1 518.69 180.65
  C 519.76 160.80 520.14 140.79 520.14 116.12
  C 520.14 91.45 519.77 71.45 518.70 51.59
  A 0.35 0.35 0.0 0 1 519.08 51.23
  Q 524.33 51.73 527.92 51.73
  Z"
/>
<rect fill="#000000" x="773.10" y="75.80" width="56.14" height="1.98" rx="0.74"/>
<path fill="#000000" d="
  M 134.71 163.09
  Q 134.20 165.42 133.80 171.23
  A 1.34 1.34 0.0 0 1 133.25 172.23
  Q 118.31 183.22 100.12 182.71
  Q 88.62 182.38 79.02 177.98
  C 69.88 173.79 61.86 164.65 58.58 154.40
  Q 52.73 136.07 58.61 118.82
  C 67.09 93.97 93.44 85.93 117.31 90.42
  Q 125.97 92.04 133.66 96.46
  A 1.46 1.45 -66.0 0 1 134.32 98.19
  L 130.53 109.68
  A 0.79 0.79 0.0 0 1 129.10 109.85
  C 123.90 101.30 114.59 95.17 104.40 95.28
  C 92.92 95.40 83.11 100.48 77.77 110.70
  Q 74.69 116.60 73.45 124.75
  Q 71.31 138.79 74.31 151.73
  Q 78.92 171.54 98.73 174.99
  C 103.24 175.77 109.24 175.56 114.30 174.11
  Q 125.19 170.98 133.50 162.56
  C 133.88 162.18 134.85 162.41 134.71 163.09
  Z"
/>
<path fill="#000000" d="
  M 195.35 89.20
  Q 203.90 89.16 212.22 91.89
  C 233.62 98.89 242.64 117.71 241.69 139.36
  Q 241.10 152.69 235.55 162.24
  C 227.01 176.94 212.40 182.62 195.79 182.70
  C 179.18 182.78 164.52 177.23 155.84 162.61
  Q 150.20 153.12 149.48 139.80
  C 148.33 118.16 157.17 99.25 178.50 92.05
  Q 186.80 89.25 195.35 89.20
  Z
  M 166.10 136.32
  C 166.11 155.43 172.04 177.30 195.59 177.29
  C 219.15 177.28 225.05 155.40 225.04 136.28
  C 225.03 117.17 219.10 95.30 195.55 95.31
  C 171.99 95.32 166.09 117.21 166.10 136.32
  Z"
/>
<path fill="#000000" d="
  M 438.81 162.32
  Q 439.37 162.36 439.32 162.93
  Q 438.84 168.15 438.29 171.48
  A 1.45 1.45 0.0 0 1 437.69 172.43
  Q 419.67 185.37 397.32 182.11
  C 379.86 179.56 365.65 167.30 361.81 150.28
  C 358.78 136.89 360.86 118.23 368.79 106.29
  C 374.83 97.17 383.13 91.98 394.25 90.10
  C 407.13 87.92 420.27 89.62 430.62 97.93
  C 441.37 106.54 444.64 121.41 442.92 134.72
  A 0.65 0.65 0.0 0 1 442.26 135.29
  Q 409.12 134.27 378.20 135.12
  A 0.84 0.83 -88.9 0 0 377.39 135.90
  C 376.45 149.02 379.91 163.01 391.82 170.41
  C 407.29 180.02 426.05 174.98 438.22 162.47
  Q 438.40 162.29 438.81 162.32
  Z
  M 427.72 127.43
  Q 427.75 116.97 424.63 109.27
  Q 418.70 94.65 402.97 95.36
  C 386.50 96.10 378.89 113.33 377.89 127.41
  A 0.63 0.62 -87.3 0 0 378.49 128.08
  Q 403.70 129.05 427.09 128.08
  A 0.66 0.65 -1.4 0 0 427.72 127.43
  Z"
/>
<path fill="#000000" d="
  M 817.01 170.39
  C 811.71 175.77 803.33 181.33 795.83 182.22
  C 785.49 183.44 775.29 182.91 768.04 174.59
  Q 761.11 166.62 763.24 154.60
  C 765.46 142.04 776.93 136.59 788.17 134.55
  Q 796.44 133.05 804.75 131.47
  C 809.06 130.65 815.51 129.27 817.29 125.82
  A 2.55 2.43 -29.6 0 0 817.55 124.96
  Q 818.59 115.55 815.77 108.74
  C 812.92 101.82 806.55 97.61 798.82 97.34
  C 788.21 96.97 778.83 100.65 773.22 109.70
  Q 772.94 110.16 771.98 110.24
  A 0.81 0.81 0.0 0 1 771.10 109.44
  L 771.02 100.86
  A 1.07 1.06 -19.9 0 1 771.41 100.04
  C 783.62 90.18 801.06 85.90 816.04 91.98
  C 824.31 95.34 829.67 102.21 831.76 110.63
  Q 832.61 114.09 832.47 121.44
  Q 832.28 131.31 831.66 158.50
  C 831.50 165.65 830.73 177.42 842.04 174.98
  A 0.75 0.75 0.0 0 1 842.95 175.70
  L 842.97 177.92
  A 1.25 1.25 0.0 0 1 842.03 179.14
  C 836.43 180.55 830.74 181.46 825.07 179.69
  C 820.96 178.40 818.85 174.37 817.67 170.55
  A 0.40 0.39 58.5 0 0 817.01 170.39
  Z
  M 816.78 163.09
  A 2.48 2.45 -26.2 0 0 817.27 161.68
  L 817.83 134.36
  A 0.14 0.13 -3.4 0 0 817.67 134.22
  Q 802.97 137.17 797.52 138.33
  C 782.83 141.46 775.19 149.94 779.54 165.48
  A 3.69 3.36 -70.9 0 0 779.91 166.34
  Q 784.93 174.87 794.13 175.40
  C 803.28 175.92 811.33 170.39 816.78 163.09
  Z"
/>
<path fill="#000000" d="
  M 878.90 109.11
  A 0.22 0.22 0.0 0 0 879.32 109.22
  C 884.63 98.83 895.84 85.86 909.50 89.99
  A 0.65 0.65 0.0 0 1 909.94 90.75
  Q 908.65 96.49 908.90 105.16
  A 1.20 1.20 0.0 0 1 906.99 106.16
  Q 905.42 105.02 904.52 104.76
  C 887.37 99.80 879.00 114.48 878.99 129.25
  Q 878.97 158.48 879.11 172.00
  Q 879.16 175.96 879.67 180.46
  A 0.21 0.21 0.0 0 1 879.46 180.70
  L 864.56 180.85
  A 0.33 0.33 0.0 0 1 864.23 180.50
  Q 864.66 174.11 864.77 150.00
  Q 864.92 118.87 864.27 91.71
  A 0.42 0.41 4.6 0 1 864.76 91.30
  Q 871.93 92.63 879.01 91.30
  A 0.21 0.21 0.0 0 1 879.26 91.52
  L 878.90 109.11
  Z"
/>
<path fill="#000000" d="
  M 997.81 162.32
  Q 998.37 162.36 998.32 162.93
  Q 997.84 168.15 997.29 171.48
  A 1.45 1.45 0.0 0 1 996.69 172.43
  Q 978.67 185.36 956.32 182.10
  C 938.86 179.55 924.65 167.29 920.82 150.27
  C 917.79 136.88 919.87 118.22 927.80 106.28
  C 933.84 97.16 942.14 91.98 953.26 90.10
  C 966.14 87.92 979.28 89.62 989.63 97.93
  C 1000.37 106.54 1003.64 121.41 1001.92 134.72
  A 0.65 0.65 0.0 0 1 1001.26 135.29
  Q 968.12 134.27 937.21 135.11
  A 0.84 0.83 -88.9 0 0 936.40 135.89
  C 935.45 149.01 938.91 163.00 950.82 170.40
  C 966.29 180.01 985.05 174.98 997.22 162.47
  Q 997.40 162.29 997.81 162.32
  Z
  M 986.73 127.41
  Q 986.75 116.95 983.63 109.26
  Q 977.69 94.65 961.97 95.36
  C 945.51 96.11 937.91 113.34 936.92 127.41
  A 0.63 0.62 -87.4 0 0 937.52 128.08
  Q 962.72 129.04 986.10 128.06
  A 0.66 0.65 -1.4 0 0 986.73 127.41
  Z"
/>
<path fill="#000000" d="
  M 629.88 165.91
  Q 627.59 169.00 627.45 169.24
  Q 624.46 174.50 616.72 178.86
  C 608.57 183.46 597.84 183.49 588.65 181.35
  Q 586.50 180.85 582.12 178.56
  C 571.30 172.90 568.65 161.45 568.73 150.37
  C 568.82 139.16 569.53 126.41 569.37 115.23
  Q 569.37 115.01 569.02 91.87
  A 0.53 0.52 4.2 0 1 569.63 91.35
  Q 576.65 92.50 583.86 91.35
  A 0.57 0.56 87.6 0 1 584.51 91.95
  Q 583.17 109.94 582.90 132.05
  C 582.77 142.83 581.30 157.03 588.08 165.76
  Q 592.69 171.70 599.92 172.96
  C 612.48 175.15 623.51 170.19 627.63 157.55
  Q 629.78 150.97 629.90 144.12
  Q 630.36 117.11 629.84 91.52
  A 0.25 0.25 0.0 0 1 630.14 91.27
  Q 637.62 92.62 645.02 91.28
  A 0.32 0.31 85.8 0 1 645.39 91.61
  Q 642.90 135.79 644.79 180.38
  A 0.50 0.50 0.0 0 1 644.28 180.90
  L 630.46 180.62
  A 0.23 0.22 1.4 0 1 630.24 180.40
  L 630.54 166.13
  A 0.37 0.36 -26.4 0 0 629.88 165.91
  Z"
/>
<path fill="#000000" d="
  M 750.02 91.44
  A 0.39 0.39 0.0 0 1 750.45 91.99
  Q 738.33 118.57 726.28 146.49
  Q 718.54 164.41 712.79 180.55
  A 0.54 0.53 10.5 0 1 712.27 180.90
  L 700.92 180.67
  A 0.62 0.62 0.0 0 1 700.36 180.28
  C 688.49 149.77 677.38 120.39 664.27 92.13
  A 0.59 0.59 0.0 0 1 664.91 91.30
  Q 672.75 92.68 681.04 91.32
  A 0.72 0.71 -13.7 0 1 681.84 91.80
  Q 688.23 111.13 691.17 119.10
  Q 699.54 141.76 709.51 163.85
  A 0.45 0.44 -40.4 0 0 710.29 163.91
  Q 711.30 162.33 712.16 160.39
  C 722.20 137.63 730.56 114.28 738.70 91.85
  A 0.75 0.74 -74.2 0 1 739.55 91.37
  Q 744.74 92.45 750.02 91.44
  Z"
/>
<path fill="#ffffff" d="
  M 195.55 95.31
  C 219.10 95.30 225.03 117.17 225.04 136.28
  C 225.05 155.40 219.15 177.28 195.59 177.29
  C 172.04 177.30 166.11 155.43 166.10 136.32
  C 166.09 117.21 171.99 95.32 195.55 95.31
  Z"
/>
<path fill="#ffffff" d="
  M 427.09 128.08
  Q 403.70 129.05 378.49 128.08
  A 0.63 0.62 -87.3 0 1 377.89 127.41
  C 378.89 113.33 386.50 96.10 402.97 95.36
  Q 418.70 94.65 424.63 109.27
  Q 427.75 116.97 427.72 127.43
  A 0.66 0.65 -1.4 0 1 427.09 128.08
  Z"
/>
<path fill="#ffffff" d="
  M 986.73 127.41
  A 0.66 0.65 -1.4 0 1 986.10 128.06
  Q 962.72 129.04 937.52 128.08
  A 0.63 0.62 -87.4 0 1 936.92 127.41
  C 937.91 113.34 945.51 96.11 961.97 95.36
  Q 977.69 94.65 983.63 109.26
  Q 986.75 116.95 986.73 127.41
  Z"
/>
<path fill="#ffffff" d="
  M 274.56 122.29
  C 277.56 108.84 284.76 97.29 299.88 97.27
  C 315.87 97.24 324.12 107.55 326.54 122.24
  C 329.22 138.47 327.10 161.91 312.20 172.45
  Q 306.70 176.34 299.15 176.30
  Q 284.21 176.20 277.74 162.70
  C 273.39 153.60 272.70 143.88 273.30 133.61
  Q 273.74 125.97 274.56 122.29
  Z"
/>
<path fill="#ffffff" d="
  M 816.78 163.09
  C 811.33 170.39 803.28 175.92 794.13 175.40
  Q 784.93 174.87 779.91 166.34
  A 3.69 3.36 -70.9 0 1 779.54 165.48
  C 775.19 149.94 782.83 141.46 797.52 138.33
  Q 802.97 137.17 817.67 134.22
  A 0.14 0.13 -3.4 0 1 817.83 134.36
  L 817.27 161.68
  A 2.48 2.45 -26.2 0 1 816.78 163.09
  Z"
/>
</svg>
