999
Output
0
SECTION
2
HEADER
9
$ACADVER
1
AC1021
9
$HANDSEED
5
569
9
$INSUNITS
70
0
0
ENDSEC
0
SECTION
2
CLASSES
0
ENDSEC
0
SECTION
2
TABLES
0
TABLE
2
VPORT
5
2
100
AcDbSymbolTable
70
1
0
VPORT
5
1
100
AcDbSymbolTableRecord
100
AcDbViewportTableRecord
2
*ACTIVE
10
0
20
0
11
1
21
1
12
500.0
22
500.0
40
1000.0
70
0
0
ENDTAB
0
TABLE
2
LTYPE
5
3
100
AcDbSymbolTable
70
3
0
LTYPE
5
b
100
AcDbSymbolTableRecord
100
AcDbLinetypeTableRecord
2
Solid
70
0
72
65
73
0
3

0
LTYPE
5
c
100
AcDbSymbolTableRecord
100
AcDbLinetypeTableRecord
2
ByBlock
70
0
72
65
73
0
3

0
LTYPE
5
d
100
AcDbSymbolTableRecord
100
AcDbLinetypeTableRecord
2
ByLayer
70
0
72
65
73
0
3

0
ENDTAB
0
TABLE
2
LAYER
5
4
100
AcDbSymbolTable
70
2
0
LAYER
5
e
100
AcDbSymbolTableRecord
100
AcDbLayerTableRecord
2
0
6
Solid
370
35
62
0
70
0
390
0
0
LAYER
5
19
100
AcDbSymbolTableRecord
100
AcDbLayerTableRecord
2
Layer 1
6
Solid
370
0
62
0
70
0
390
0
0
ENDTAB
0
TABLE
2
STYLE
5
5
100
AcDbSymbolTable
70
0
0
ENDTAB
0
TABLE
2
VIEW
5
6
100
AcDbSymbolTable
70
0
0
ENDTAB
0
TABLE
2
UCS
5
7
100
AcDbSymbolTable
70
0
0
ENDTAB
0
TABLE
2
APPID
5
8
100
AcDbSymbolTable
70
1
0
APPID
5
10
100
AcDbSymbolTableRecord
100
AcDbRegAppTableRecord
2
ACAD
70
0
0
ENDTAB
0
TABLE
2
DIMSTYLE
5
9
100
AcDbSymbolTable
70
0
100
AcDbDimStyleTable
71
1
0
ENDTAB
0
TABLE
2
BLOCK_RECORD
5
a
100
AcDbSymbolTable
70
2
0
BLOCK_RECORD
5
13
100
AcDbSymbolTableRecord
100
AcDbBlockTableRecord
2
*Model_Space
70
0
280
1
281
0
0
BLOCK_RECORD
5
16
100
AcDbSymbolTableRecord
100
AcDbBlockTableRecord
2
*Paper_Space
70
0
280
1
281
0
0
ENDTAB
0
ENDSEC
0
SECTION
2
BLOCKS
0
BLOCK
5
11
100
AcDbEntity
8
0
100
AcDbBlockBegin
2
*Model_Space
70
0
10
0
20
0
30
0
3
*Model_Space
1

0
ENDBLK
5
12
100
AcDbEntity
8
0
100
AcDbBlockEnd
0
BLOCK
5
14
100
AcDbEntity
8
0
100
AcDbBlockBegin
2
*Paper_Space
70
0
10
0
20
0
30
0
3
*Paper_Space
1

0
ENDBLK
5
15
100
AcDbEntity
8
0
100
AcDbBlockEnd
0
ENDSEC
0
SECTION
2
ENTITIES
0
HATCH
5
261
100
AcDbEntity
8
Layer 1
6
Solid
370
0
62
7
100
AcDbHatch
10
0
20
0
30
0
210
0
220
0
230
1
2
FILL_609
70
1
71
0
91
14
92
0
93
4
72
1
10
1024.0
20
224.0
11
1024.0
21
0.0
72
1
10
1024.0
20
0.0
11
0.0
21
0.0
72
1
10
0.0
20
0.0
11
0.0
21
224.0
72
1
10
0.0
20
224.0
11
1024.0
21
224.0
97
0
92
0
93
34
72
1
10
327.2
20
60.08
11
326.86
21
43.79
72
1
10
326.86
20
43.79
11
326.86
21
43.79
72
4
94
3
73
0
74
0
95
8
96
4
40
0.0
40
0.0
40
0.0
40
0.0
40
1.0
40
1.0
40
1.0
40
1.0
10
326.86
20
43.79
10
326.8573704757
20
43.682189503
10
326.8983455523
20
43.5778797829
10
326.9736433897
20
43.5006994995
72
4
94
3
73
0
74
0
95
8
96
4
40
0.0
40
0.0
40
0.0
40
0.0
40
1.0
40
1.0
40
1.0
40
1.0
10
326.9736433897
20
43.5006994995
10
327.0489412272
20
43.4235192161
10
327.152189503
20
43.38
10
327.26
20
43.38
72
1
10
327.26
20
43.38
11
341.14
21
43.09
72
4
94
3
73
0
74
0
95
8
96
4
40
0.0
40
0.0
40
0.0
40
0.0
40
1.0
40
1.0
40
1.0
40
1.0
10
341.14
20
43.09
10
341.1787732003
20
43.09
10
341.2158735677
20
43.1050791383
10
341.2424236956
20
43.1316292663
72
4
94
3
73
0
74
0
95
8
96
4
40
0.0
40
0.0
40
0.0
40
0.0
40
1.0
40
1.0
40
1.0
40
1.0
10
341.2424236956
20
43.1316292663
10
341.2689738236
20
43.1581793943
10
341.28258488
20
43.1938116798
10
341.28
20
43.23
72
4
94
2
73
0
74
0
95
6
96
3
40
0.0
40
0.0
40
0.0
40
1.0
40
1.0
40
1.0
10
341.28
20
43.23
10
339.65
20
113.32
10
342.92
20
184.85
72
1
10
342.92
20
184.85
11
342.92
21
184.85
72
4
94
3
73
0
74
0
95
8
96
4
40
0.0
40
0.0
40
0.0
40
0.0
40
1.0
40
1.0
40
1.0
40
1.0
10
342.92
20
184.85
10
342.9297333589
20
185.0398004988
10
342.8528174831
20
185.2237646542
10
342.7108913713
20
185.3501372196
72
4
94
3
73
0
74
0
95
8
96
4
40
0.0
40
0.0
40
0.0
40
0.0
40
1.0
40
1.0
40
1.0
40
1.0
10
342.7108913713
20
185.3501372196
10
342.5689652594
20
185.4765097849
10
342.3773671591
20
185.5316334165
10
342.19
20
185.5
72
4
94
2
73
0
74
0
95
6
96
3
40
0.0
40
0.0
40
0.0
40
1.0
40
1.0
40
1.0
10
342.19
20
185.5
10
335.03
20
184.29
10
330.33
20
185.05
72
4
94
2
73
0
74
0
95
6
96
3
40
0.0
40
0.0
40
0.0
40
1.0
40
1.0
40
1.0
10
330.33
20
185.05
10
328.2
20
185.39
10
326.77
20
185.42
72
1
10
326.77
20
185.42
11
326.77
21
185.42
72
4
94
3
73
0
74
0
95
8
96
4
40
0.0
40
0.0
40
0.0
40
0.0
40
1.0
40
1.0
40
1.0
40
1.0
10
326.77
20
185.42
10
326.6356659987
20
185.422634
10
326.5059207155
20
185.3700640332
10
326.4099874116
20
185.2741307292
72
4
94
3
73
0
74
0
95
8
96
4
40
0.0
40
0.0
40
0.0
40
0.0
40
1.0
40
1.0
40
1.0
40
1.0
10
326.4099874116
20
185.2741307292
10
326.3140541076
20
185.1781974252
10
326.26
20
185.0469680013
10
326.26
20
184.91
72
1
10
326.26
20
184.91
11
326.91
21
116.52
72
1
10
326.91
20
116.52
11
326.91
21
116.52
72
4
94
3
73
0
74
0
95
8
96
4
40
0.0
40
0.0
40
0.0
40
0.0
40
1.0
40
1.0
40
1.0
40
1.0
10
326.91
20
116.52
10
326.9113158998
20
116.3870941236
10
326.825171228
20
116.2690606363
10
326.6982175005
20
116.2298203932
72
4
94
3
73
0
74
0
95
8
96
4
40
0.0
40
0.0
40
0.0
40
0.0
40
1.0
40
1.0
40
1.0
40
1.0
10
326.6982175005
20
116.2298203932
10
326.571263773
20
116.1905801502
10
326.4336903869
20
116.2394644197
10
326.36
20
116.35
72
4
94
2
73
0
74
0
95
6
96
3
40
0.0
40
0.0
40
0.0
40
1.0
40
1.0
40
1.0
10
326.36
20
116.35
10
325.59
20
117.5
10
324.24
20
119.95
72
4
94
3
73
0
74
0
95
8
96
4
40
0.0
40
0.0
40
0.0
40
0.0
40
1.0
40
1.0
40
1.0
40
1.0
10
324.24
20
119.95
10
317.51
20
132.15
10
304.13
20
136.55
10
290.78
20
134.14
72
4
94
2
73
0
74
0
95
6
96
3
40
0.0
40
0.0
40
0.0
40
1.0
40
1.0
40
1.0
10
290.78
20
134.14
10
279.8
20
132.15
10
272.41
20
125.83
72
4
94
2
73
0
74
0
95
6
96
3
40
0.0
40
0.0
40
0.0
40
1.0
40
1.0
40
1.0
10
272.41
20
125.83
10
261.14
20
116.17
10
257.86
20
101.21
72
4
94
2
73
0
74
0
95
6
96
3
40
0.0
40
0.0
40
0.0
40
1.0
40
1.0
40
1.0
10
257.86
20
101.21
10
254.79
20
87.15
10
257.49
20
74.19
72
4
94
2
73
0
74
0
95
6
96
3
40
0.0
40
0.0
40
0.0
40
1.0
40
1.0
40
1.0
10
257.49
20
74.19
10
259.12
20
66.37
10
260.89
20
62.74
72
4
94
2
73
0
74
0
95
6
96
3
40
0.0
40
0.0
40
0.0
40
1.0
40
1.0
40
1.0
10
260.89
20
62.74
10
271.1
20
41.8
10
293.41
20
41.32
72
4
94
2
73
0
74
0
95
6
96
3
40
0.0
40
0.0
40
0.0
40
1.0
40
1.0
40
1.0
10
293.41
20
41.32
10
303.24
20
41.11
10
310.21
20
44.32
72
4
94
2
73
0
74
0
95
6
96
3
40
0.0
40
0.0
40
0.0
40
1.0
40
1.0
40
1.0
10
310.21
20
44.32
10
318.59
20
48.18
10
323.3
20
55.21
72
4
94
2
73
0
74
0
95
6
96
3
40
0.0
40
0.0
40
0.0
40
1.0
40
1.0
40
1.0
10
323.3
20
55.21
10
326.36
20
59.79
10
326.69
20
60.25
72
1
10
326.69
20
60.25
11
326.69
21
60.25
72
4
94
3
73
0
74
0
95
8
96
4
40
0.0
40
0.0
40
0.0
40
0.0
40
1.0
40
1.0
40
1.0
40
1.0
10
326.69
20
60.25
10
326.7612726202
20
60.3500557938
10
326.889251702
20
60.3916537824
10
327.0060392834
20
60.3527245886
72
4
94
3
73
0
74
0
95
8
96
4
40
0.0
40
0.0
40
0.0
40
0.0
40
1.0
40
1.0
40
1.0
40
1.0
10
327.0060392834
20
60.3527245886
10
327.1228268649
20
60.3137953948
10
327.2013706273
20
60.2033564581
10
327.2
20
60.08
72
1
10
327.2
20
60.08
11
327.2
21
60.08
97
0
92
0
93
16
72
4
94
2
73
0
74
0
95
6
96
3
40
0.0
40
0.0
40
0.0
40
1.0
40
1.0
40
1.0
10
18.2090847519
20
96.8204391085
10
18.213958088
20
106.029473119
10
19.1840773155
20
117.2103114882
72
4
94
2
73
0
74
0
95
6
96
3
40
0.0
40
0.0
40
0.0
40
1.0
40
1.0
40
1.0
10
19.1840773155
20
117.2103114882
10
21.8200218248
20
147.5806223786
10
40.5626701232
20
171.2441224678
72
1
10
40.5626701232
20
171.2441224678
11
40.5626701232
21
171.2441224678
72
4
94
3
73
0
74
0
95
8
96
4
40
0.0
40
0.0
40
0.0
40
0.0
40
1.0
40
1.0
40
1.0
40
1.0
10
40.5626701232
20
171.2441224678
10
40.8537337938
20
171.6144519879
10
40.8239924473
20
172.140442498
10
40.493599004
20
172.465679574
72
1
10
40.493599004
20
172.465679574
11
38.0626349844
21
174.9006864837
72
4
94
3
73
0
74
0
95
8
96
4
40
0.0
40
0.0
40
0.0
40
0.0
40
1.0
40
1.0
40
1.0
40
1.0
10
38.0626349844
20
174.9006864837
10
37.9004924156
20
175.0630987088
10
37.6791508652
20
175.1523912892
10
37.4497251967
20
175.1479437041
72
4
94
3
73
0
74
0
95
8
96
4
40
0.0
40
0.0
40
0.0
40
0.0
40
1.0
40
1.0
40
1.0
40
1.0
10
37.4497251967
20
175.1479437041
10
37.2202995282
20
175.143496119
10
37.0026277454
20
175.0456929427
10
36.8469772446
20
174.8771200656
72
4
94
3
73
0
74
0
95
8
96
4
40
0.0
40
0.0
40
0.0
40
0.0
40
1.0
40
1.0
40
1.0
40
1.0
10
36.8469772446
20
174.8771200656
10
17.2802120928
20
153.5436323749
10
6.5236062444
20
126.0034392131
10
6.5081661759
20
96.8266880994
72
4
94
3
73
0
74
0
95
8
96
4
40
0.0
40
0.0
40
0.0
40
0.0
40
1.0
40
1.0
40
1.0
40
1.0
10
6.5081661759
20
96.8266880994
10
6.4927260737
20
67.6498731618
10
17.2201778715
20
40.0983108342
10
36.7643530994
20
18.7441259934
72
4
94
3
73
0
74
0
95
8
96
4
40
0.0
40
0.0
40
0.0
40
0.0
40
1.0
40
1.0
40
1.0
40
1.0
10
36.7643530994
20
18.7441259934
10
36.9198250986
20
18.5753884731
10
37.1373932465
20
18.4773549718
10
37.3668140793
20
18.4726645694
72
4
94
3
73
0
74
0
95
8
96
4
40
0.0
40
0.0
40
0.0
40
0.0
40
1.0
40
1.0
40
1.0
40
1.0
10
37.3668140793
20
18.4726645694
10
37.596234912
20
18.467974167
10
37.817670844
20
18.5570324336
10
37.9799852161
20
18.719272959
72
1
10
37.9799852161
20
18.719272959
11
40.41352504
21
21.151705618
72
1
10
40.41352504
20
21.151705618
11
40.41352504
21
21.151705618
72
4
94
3
73
0
74
0
95
8
96
4
40
0.0
40
0.0
40
0.0
40
0.0
40
1.0
40
1.0
40
1.0
40
1.0
10
40.41352504
20
21.151705618
10
40.7442625231
20
21.4765928296
10
40.7745605515
20
22.0025515674
10
40.4838889937
20
22.3731889365
72
4
94
2
73
0
74
0
95
6
96
3
40
0.0
40
0.0
40
0.0
40
1.0
40
1.0
40
1.0
10
40.4838889937
20
22.3731889365
10
21.7662961992
20
46.0565126409
10
19.162496536
20
76.4295963557
72
4
94
2
73
0
74
0
95
6
96
3
40
0.0
40
0.0
40
0.0
40
1.0
40
1.0
40
1.0
10
19.162496536
20
76.4295963557
10
18.2042114422
20
87.6114552188
10
18.2090847519
20
96.8204391085
97
0
92
0
93
18
72
4
94
2
73
0
74
0
95
6
96
3
40
0.0
40
0.0
40
0.0
40
1.0
40
1.0
40
1.0
10
478.4643813801
20
96.8708579947
10
478.4671559557
20
87.673126499
10
477.5075059996
20
76.5052105738
72
4
94
2
73
0
74
0
95
6
96
3
40
0.0
40
0.0
40
0.0
40
1.0
40
1.0
40
1.0
10
477.5075059996
20
76.5052105738
10
474.9
20
46.17
10
456.2
20
22.52
72
1
10
456.2
20
22.52
11
456.2
21
22.52
72
4
94
3
73
0
74
0
95
8
96
4
40
0.0
40
0.0
40
0.0
40
0.0
40
1.0
40
1.0
40
1.0
40
1.0
10
456.2
20
22.52
10
455.9096009984
20
22.1498836254
10
455.9397423119
20
21.62456359
10
456.27
20
21.3
72
1
10
456.27
20
21.3
11
458.7
21
18.87
72
1
10
458.7
20
18.87
11
458.7
21
18.87
72
4
94
3
73
0
74
0
95
8
96
4
40
0.0
40
0.0
40
0.0
40
0.0
40
1.0
40
1.0
40
1.0
40
1.0
10
458.7
20
18.87
10
458.8620782698
20
18.7079217302
10
459.0832221617
20
18.6189224561
10
459.3123624579
20
18.6235549648
72
4
94
3
73
0
74
0
95
8
96
4
40
0.0
40
0.0
40
0.0
40
0.0
40
1.0
40
1.0
40
1.0
40
1.0
10
459.3123624579
20
18.6235549648
10
459.5415027542
20
18.6281874735
10
459.7588261265
20
18.7260512007
10
459.9141456378
20
18.8945462728
72
4
94
3
73
0
74
0
95
8
96
4
40
0.0
40
0.0
40
0.0
40
0.0
40
1.0
40
1.0
40
1.0
40
1.0
10
459.9141456378
20
18.8945462728
10
479.4391841799
20
40.2180784658
10
490.1597297443
20
67.7333848041
10
490.1509391261
20
96.874326444
72
4
94
3
73
0
74
0
95
8
96
4
40
0.0
40
0.0
40
0.0
40
0.0
40
1.0
40
1.0
40
1.0
40
1.0
10
490.1509391261
20
96.874326444
10
490.1421484888
20
126.0153318293
10
479.4050044148
20
153.5241652692
10
459.8671045699
20
174.8359137876
72
1
10
459.8671045699
20
174.8359137876
11
459.8671045699
21
174.8359137876
72
4
94
3
73
0
74
0
95
8
96
4
40
0.0
40
0.0
40
0.0
40
0.0
40
1.0
40
1.0
40
1.0
40
1.0
10
459.8671045699
20
174.8359137876
10
459.7116834309
20
175.0043151221
10
459.4943010552
20
175.1020477165
10
459.2651580058
20
175.10654198
72
4
94
3
73
0
74
0
95
8
96
4
40
0.0
40
0.0
40
0.0
40
0.0
40
1.0
40
1.0
40
1.0
40
1.0
10
459.2651580058
20
175.10654198
10
459.0360149564
20
175.1110362435
10
458.8149247996
20
175.0219035657
10
458.6529443439
20
174.8597275408
72
1
10
458.6529443439
20
174.8597275408
11
456.2244108472
21
172.428261922
72
1
10
456.2244108472
20
172.428261922
11
456.2244108472
21
172.428261922
72
4
94
3
73
0
74
0
95
8
96
4
40
0.0
40
0.0
40
0.0
40
0.0
40
1.0
40
1.0
40
1.0
40
1.0
10
456.2244108472
20
172.428261922
10
455.8943490341
20
172.1034991408
10
455.8645246607
20
171.5781610163
10
456.1551469071
20
171.2082199118
72
4
94
2
73
0
74
0
95
6
96
3
40
0.0
40
0.0
40
0.0
40
1.0
40
1.0
40
1.0
10
456.1551469071
20
171.2082199118
10
474.8694119583
20
147.5695062498
10
477.4952192411
20
117.2358743504
72
4
94
2
73
0
74
0
95
6
96
3
40
0.0
40
0.0
40
0.0
40
1.0
40
1.0
40
1.0
10
477.4952192411
20
117.2358743504
10
478.4616068196
20
106.0685394311
10
478.4643813801
20
96.8708579947
97
0
92
0
93
20
72
4
94
3
73
0
74
0
95
8
96
4
40
0.0
40
0.0
40
0.0
40
0.0
40
1.0
40
1.0
40
1.0
40
1.0
10
520.1393477975
20
107.8786230647
10
520.1378614699
20
83.2096607922
10
519.7606906835
20
63.2043451177
10
518.6895695213
20
43.3519906467
72
1
10
518.6895695213
20
43.3519906467
11
518.6895695213
21
43.3519906467
72
4
94
3
73
0
74
0
95
8
96
4
40
0.0
40
0.0
40
0.0
40
0.0
40
1.0
40
1.0
40
1.0
40
1.0
10
518.6895695213
20
43.3519906467
10
518.6846564239
20
43.2510674225
10
518.7235963412
20
43.1529692827
10
518.7962596657
20
43.0832149166
72
4
94
3
73
0
74
0
95
8
96
4
40
0.0
40
0.0
40
0.0
40
0.0
40
1.0
40
1.0
40
1.0
40
1.0
10
518.7962596657
20
43.0832149166
10
518.8689229902
20
43.0134605505
10
518.9681264379
20
42.978945671
10
519.0680637911
20
42.9886487814
72
4
94
2
73
0
74
0
95
6
96
3
40
0.0
40
0.0
40
0.0
40
1.0
40
1.0
40
1.0
10
519.0680637911
20
42.9886487814
10
524.3227223912
20
43.4880097264
10
527.910346993
20
43.4877935687
72
4
94
2
73
0
74
0
95
6
96
3
40
0.0
40
0.0
40
0.0
40
1.0
40
1.0
40
1.0
10
527.910346993
20
43.4877935687
10
531.4979715949
20
43.487577411
10
536.7525699829
20
42.9875832737
72
1
10
536.7525699829
20
42.9875832737
11
536.7525699829
21
42.9875832737
72
4
94
3
73
0
74
0
95
8
96
4
40
0.0
40
0.0
40
0.0
40
0.0
40
1.0
40
1.0
40
1.0
40
1.0
10
536.7525699829
20
42.9875832737
10
536.8525061662
20
42.9778681207
10
536.9517137723
20
43.0123710458
10
537.0243855017
20
43.0821166553
72
4
94
3
73
0
74
0
95
8
96
4
40
0.0
40
0.0
40
0.0
40
0.0
40
1.0
40
1.0
40
1.0
40
1.0
10
537.0243855017
20
43.0821166553
10
537.0970572312
20
43.1518622648
10
537.1360089692
20
43.2499557116
10
537.1311080333
20
43.3508795271
72
4
94
3
73
0
74
0
95
8
96
4
40
0.0
40
0.0
40
0.0
40
0.0
40
1.0
40
1.0
40
1.0
40
1.0
10
537.1311080333
20
43.3508795271
10
536.062379124
20
63.203362926
10
535.6876190177
20
83.2087239051
10
535.6891053453
20
107.8776861776
72
4
94
3
73
0
74
0
95
8
96
4
40
0.0
40
0.0
40
0.0
40
0.0
40
1.0
40
1.0
40
1.0
40
1.0
10
535.6891053453
20
107.8776861776
10
535.690591673
20
132.5466484501
10
536.0677624593
20
152.5519641246
10
537.1388836215
20
172.4043185956
72
1
10
537.1388836215
20
172.4043185956
11
537.1388836215
21
172.4043185956
72
4
94
3
73
0
74
0
95
8
96
4
40
0.0
40
0.0
40
0.0
40
0.0
40
1.0
40
1.0
40
1.0
40
1.0
10
537.1388836215
20
172.4043185956
10
537.1437967189
20
172.5052418198
10
537.1048568016
20
172.6033399596
10
537.0321934771
20
172.6730943257
72
4
94
3
73
0
74
0
95
8
96
4
40
0.0
40
0.0
40
0.0
40
0.0
40
1.0
40
1.0
40
1.0
40
1.0
10
537.0321934771
20
172.6730943257
10
536.9595301527
20
172.7428486918
10
536.860326705
20
172.7773635713
10
536.7603893518
20
172.7676604609
72
4
94
2
73
0
74
0
95
6
96
3
40
0.0
40
0.0
40
0.0
40
1.0
40
1.0
40
1.0
10
536.7603893518
20
172.7676604609
10
531.5057307516
20
172.2682995159
10
527.9181061498
20
172.2685156736
72
4
94
2
73
0
74
0
95
6
96
3
40
0.0
40
0.0
40
0.0
40
1.0
40
1.0
40
1.0
10
527.9181061498
20
172.2685156736
10
524.330481548
20
172.2687318313
10
519.0758831599
20
172.7687259687
72
1
10
519.0758831599
20
172.7687259687
11
519.0758831599
21
172.7687259687
72
4
94
3
73
0
74
0
95
8
96
4
40
0.0
40
0.0
40
0.0
40
0.0
40
1.0
40
1.0
40
1.0
40
1.0
10
519.0758831599
20
172.7687259687
10
518.9759469767
20
172.7784411216
10
518.8767393706
20
172.7439381965
10
518.8040676411
20
172.674192587
72
4
94
3
73
0
74
0
95
8
96
4
40
0.0
40
0.0
40
0.0
40
0.0
40
1.0
40
1.0
40
1.0
40
1.0
10
518.8040676411
20
172.674192587
10
518.7313959116
20
172.6044469775
10
518.6924441736
20
172.5063535307
10
518.6973451095
20
172.4054297152
72
4
94
3
73
0
74
0
95
8
96
4
40
0.0
40
0.0
40
0.0
40
0.0
40
1.0
40
1.0
40
1.0
40
1.0
10
518.6973451095
20
172.4054297152
10
519.7660740188
20
152.5529463163
10
520.1408341251
20
132.5475853373
10
520.1393477975
20
107.8786230647
97
0
92
0
93
8
72
4
94
3
73
0
74
0
95
8
96
4
40
0.0
40
0.0
40
0.0
40
0.0
40
1.0
40
1.0
40
1.0
40
1.0
10
829.24
20
147.46
10
829.24
20
147.8686907149
10
828.9086907149
20
148.2
10
828.5
20
148.2
72
1
10
828.5
20
148.2
11
773.84
21
148.2
72
4
94
3
73
0
74
0
95
8
96
4
40
0.0
40
0.0
40
0.0
40
0.0
40
1.0
40
1.0
40
1.0
40
1.0
10
773.84
20
148.2
10
773.4313092851
20
148.2
10
773.1
20
147.8686907149
10
773.1
20
147.46
72
1
10
773.1
20
147.46
11
773.1
21
146.96
72
4
94
3
73
0
74
0
95
8
96
4
40
0.0
40
0.0
40
0.0
40
0.0
40
1.0
40
1.0
40
1.0
40
1.0
10
773.1
20
146.96
10
773.1
20
146.5513092851
10
773.4313092851
20
146.22
10
773.84
20
146.22
72
1
10
773.84
20
146.22
11
828.5
21
146.22
72
4
94
3
73
0
74
0
95
8
96
4
40
0.0
40
0.0
40
0.0
40
0.0
40
1.0
40
1.0
40
1.0
40
1.0
10
828.5
20
146.22
10
828.9086907149
20
146.22
10
829.24
20
146.5513092851
10
829.24
20
146.96
72
1
10
829.24
20
146.96
11
829.24
21
147.46
97
0
92
0
93
21
72
4
94
3
73
0
74
0
95
8
96
4
40
0.0
40
0.0
40
0.0
40
0.0
40
1.0
40
1.0
40
1.0
40
1.0
10
134.71
20
60.91
10
134.85
20
61.59
10
133.88
20
61.82
10
133.5
20
61.44
72
4
94
2
73
0
74
0
95
6
96
3
40
0.0
40
0.0
40
0.0
40
1.0
40
1.0
40
1.0
10
133.5
20
61.44
10
125.19
20
53.02
10
114.3
20
49.89
72
4
94
3
73
0
74
0
95
8
96
4
40
0.0
40
0.0
40
0.0
40
0.0
40
1.0
40
1.0
40
1.0
40
1.0
10
114.3
20
49.89
10
109.24
20
48.44
10
103.24
20
48.23
10
98.73
20
49.01
72
4
94
2
73
0
74
0
95
6
96
3
40
0.0
40
0.0
40
0.0
40
1.0
40
1.0
40
1.0
10
98.73
20
49.01
10
78.92
20
52.46
10
74.31
20
72.27
72
4
94
2
73
0
74
0
95
6
96
3
40
0.0
40
0.0
40
0.0
40
1.0
40
1.0
40
1.0
10
74.31
20
72.27
10
71.31
20
85.21
10
73.45
20
99.25
72
4
94
2
73
0
74
0
95
6
96
3
40
0.0
40
0.0
40
0.0
40
1.0
40
1.0
40
1.0
10
73.45
20
99.25
10
74.69
20
107.4
10
77.77
20
113.3
72
4
94
3
73
0
74
0
95
8
96
4
40
0.0
40
0.0
40
0.0
40
0.0
40
1.0
40
1.0
40
1.0
40
1.0
10
77.77
20
113.3
10
83.11
20
123.52
10
92.92
20
128.6
10
104.4
20
128.72
72
4
94
3
73
0
74
0
95
8
96
4
40
0.0
40
0.0
40
0.0
40
0.0
40
1.0
40
1.0
40
1.0
40
1.0
10
104.4
20
128.72
10
114.59
20
128.83
10
123.9
20
122.7
10
129.1
20
114.15
72
1
10
129.1
20
114.15
11
129.1
21
114.15
72
4
94
3
73
0
74
0
95
8
96
4
40
0.0
40
0.0
40
0.0
40
0.0
40
1.0
40
1.0
40
1.0
40
1.0
10
129.1
20
114.15
10
129.2622929364
20
113.8867247921
10
129.5626979609
20
113.7415648367
10
129.8697141081
20
113.7780632598
72
4
94
3
73
0
74
0
95
8
96
4
40
0.0
40
0.0
40
0.0
40
0.0
40
1.0
40
1.0
40
1.0
40
1.0
10
129.8697141081
20
113.7780632598
10
130.1767302552
20
113.8145616829
10
130.434427493
20
114.0260694596
10
130.53
20
114.32
72
1
10
130.53
20
114.32
11
134.32
21
125.81
72
4
94
3
73
0
74
0
95
8
96
4
40
0.0
40
0.0
40
0.0
40
0.0
40
1.0
40
1.0
40
1.0
40
1.0
10
134.32
20
125.81
10
134.5407944964
20
126.4723834892
10
134.2642796744
20
127.1971874924
10
133.66
20
127.54
72
4
94
2
73
0
74
0
95
6
96
3
40
0.0
40
0.0
40
0.0
40
1.0
40
1.0
40
1.0
10
133.66
20
127.54
10
125.97
20
131.96
10
117.31
20
133.58
72
4
94
3
73
0
74
0
95
8
96
4
40
0.0
40
0.0
40
0.0
40
0.0
40
1.0
40
1.0
40
1.0
40
1.0
10
117.31
20
133.58
10
93.44
20
138.07
10
67.09
20
130.03
10
58.61
20
105.18
72
4
94
2
73
0
74
0
95
6
96
3
40
0.0
40
0.0
40
0.0
40
1.0
40
1.0
40
1.0
10
58.61
20
105.18
10
52.73
20
87.93
10
58.58
20
69.6
72
4
94
3
73
0
74
0
95
8
96
4
40
0.0
40
0.0
40
0.0
40
0.0
40
1.0
40
1.0
40
1.0
40
1.0
10
58.58
20
69.6
10
61.86
20
59.35
10
69.88
20
50.21
10
79.02
20
46.02
72
4
94
2
73
0
74
0
95
6
96
3
40
0.0
40
0.0
40
0.0
40
1.0
40
1.0
40
1.0
10
79.02
20
46.02
10
88.62
20
41.62
10
100.12
20
41.29
72
4
94
2
73
0
74
0
95
6
96
3
40
0.0
40
0.0
40
0.0
40
1.0
40
1.0
40
1.0
10
100.12
20
41.29
10
118.31
20
40.78
10
133.25
20
51.77
72
4
94
3
73
0
74
0
95
8
96
4
40
0.0
40
0.0
40
0.0
40
0.0
40
1.0
40
1.0
40
1.0
40
1.0
10
133.25
20
51.77
10
133.5730076023
20
52.0043388487
10
133.7746660704
20
52.370990609
10
133.8
20
52.77
72
4
94
2
73
0
74
0
95
6
96
3
40
0.0
40
0.0
40
0.0
40
1.0
40
1.0
40
1.0
10
133.8
20
52.77
10
134.2
20
58.58
10
134.71
20
60.91
97
0
92
0
93
8
72
4
94
3
73
0
74
0
95
8
96
4
40
0.0
40
0.0
40
0.0
40
0.0
40
1.0
40
1.0
40
1.0
40
1.0
10
195.7903401298
20
41.302512608
10
212.4011406972
20
41.3809226761
10
227.0069179621
20
47.060936806
10
235.5533332982
20
61.7613608728
72
4
94
2
73
0
74
0
95
6
96
3
40
0.0
40
0.0
40
0.0
40
1.0
40
1.0
40
1.0
10
235.5533332982
20
61.7613608728
10
241.1
20
71.31
10
241.69
20
84.64
72
4
94
3
73
0
74
0
95
8
96
4
40
0.0
40
0.0
40
0.0
40
0.0
40
1.0
40
1.0
40
1.0
40
1.0
10
241.69
20
84.64
10
242.64
20
106.29
10
233.62
20
125.11
10
212.2243034724
20
132.1123180676
72
4
94
2
73
0
74
0
95
6
96
3
40
0.0
40
0.0
40
0.0
40
1.0
40
1.0
40
1.0
10
212.2243034724
20
132.1123180676
10
203.9017502441
20
134.8355793126
10
195.3490147109
20
134.7952067506
72
4
94
2
73
0
74
0
95
6
96
3
40
0.0
40
0.0
40
0.0
40
1.0
40
1.0
40
1.0
10
195.3490147109
20
134.7952067506
10
186.7962791777
20
134.7548341886
10
178.4998061724
20
131.9531240468
72
4
94
3
73
0
74
0
95
8
96
4
40
0.0
40
0.0
40
0.0
40
0.0
40
1.0
40
1.0
40
1.0
40
1.0
10
178.4998061724
20
131.9531240468
10
157.1711695064
20
124.7491288918
10
148.3292443782
20
105.8448129818
10
149.4835919686
20
84.2047464005
72
4
94
2
73
0
74
0
95
6
96
3
40
0.0
40
0.0
40
0.0
40
1.0
40
1.0
40
1.0
10
149.4835919686
20
84.2047464005
10
150.1994094503
20
70.8809104164
10
155.8359742666
20
61.3850609149
72
4
94
3
73
0
74
0
95
8
96
4
40
0.0
40
0.0
40
0.0
40
0.0
40
1.0
40
1.0
40
1.0
40
1.0
10
155.8359742666
20
61.3850609149
10
164.5207902004
20
46.765975614
10
179.1795395624
20
41.2241025398
10
195.7903401298
20
41.302512608
97
0
92
0
93
18
72
4
94
2
73
0
74
0
95
6
96
3
40
0.0
40
0.0
40
0.0
40
1.0
40
1.0
40
1.0
10
438.81
20
61.68
10
438.4
20
61.71
10
438.22
20
61.53
72
4
94
3
73
0
74
0
95
8
96
4
40
0.0
40
0.0
40
0.0
40
0.0
40
1.0
40
1.0
40
1.0
40
1.0
10
438.22
20
61.53
10
426.05
20
49.02
10
407.29
20
43.98
10
391.82
20
53.59
72
4
94
3
73
0
74
0
95
8
96
4
40
0.0
40
0.0
40
0.0
40
0.0
40
1.0
40
1.0
40
1.0
40
1.0
10
391.82
20
53.59
10
379.91
20
60.99
10
376.45
20
74.98
10
377.39
20
88.1
72
1
10
377.39
20
88.1
11
377.39
21
88.1
72
4
94
3
73
0
74
0
95
8
96
4
40
0.0
40
0.0
40
0.0
40
0.0
40
1.0
40
1.0
40
1.0
40
1.0
10
377.39
20
88.1
10
377.4183277179
20
88.530581312
10
377.769418688
20
88.8686689128
10
378.2
20
88.88
72
4
94
2
73
0
74
0
95
6
96
3
40
0.0
40
0.0
40
0.0
40
1.0
40
1.0
40
1.0
10
378.2
20
88.88
10
409.12
20
89.73
10
442.26
20
88.71
72
1
10
442.26
20
88.71
11
442.26
21
88.71
72
4
94
3
73
0
74
0
95
8
96
4
40
0.0
40
0.0
40
0.0
40
0.0
40
1.0
40
1.0
40
1.0
40
1.0
10
442.26
20
88.71
10
442.5952394925
20
88.7043179747
10
442.8802258229
20
88.9504425328
10
442.92
20
89.28
72
4
94
3
73
0
74
0
95
8
96
4
40
0.0
40
0.0
40
0.0
40
0.0
40
1.0
40
1.0
40
1.0
40
1.0
10
442.92
20
89.28
10
444.64
20
102.59
10
441.37
20
117.46
10
430.62
20
126.07
72
4
94
3
73
0
74
0
95
8
96
4
40
0.0
40
0.0
40
0.0
40
0.0
40
1.0
40
1.0
40
1.0
40
1.0
10
430.62
20
126.07
10
420.27
20
134.38
10
407.13
20
136.08
10
394.25
20
133.9
72
4
94
3
73
0
74
0
95
8
96
4
40
0.0
40
0.0
40
0.0
40
0.0
40
1.0
40
1.0
40
1.0
40
1.0
10
394.25
20
133.9
10
383.13
20
132.02
10
374.83
20
126.83
10
368.79
20
117.71
72
4
94
3
73
0
74
0
95
8
96
4
40
0.0
40
0.0
40
0.0
40
0.0
40
1.0
40
1.0
40
1.0
40
1.0
10
368.79
20
117.71
10
360.86
20
105.77
10
358.78
20
87.11
10
361.81
20
73.72
72
4
94
3
73
0
74
0
95
8
96
4
40
0.0
40
0.0
40
0.0
40
0.0
40
1.0
40
1.0
40
1.0
40
1.0
10
361.81
20
73.72
10
365.65
20
56.7
10
379.86
20
44.44
10
397.32
20
41.89
72
4
94
2
73
0
74
0
95
6
96
3
40
0.0
40
0.0
40
0.0
40
1.0
40
1.0
40
1.0
10
397.32
20
41.89
10
419.67
20
38.63
10
437.69
20
51.57
72
1
10
437.69
20
51.57
11
437.69
21
51.57
72
4
94
3
73
0
74
0
95
8
96
4
40
0.0
40
0.0
40
0.0
40
0.0
40
1.0
40
1.0
40
1.0
40
1.0
10
437.69
20
51.57
10
438.0098140127
20
51.7938698089
10
438.2260371975
20
52.1362231848
10
438.29
20
52.52
72
4
94
2
73
0
74
0
95
6
96
3
40
0.0
40
0.0
40
0.0
40
1.0
40
1.0
40
1.0
10
438.29
20
52.52
10
438.84
20
55.85
10
439.32
20
61.07
72
4
94
2
73
0
74
0
95
6
96
3
40
0.0
40
0.0
40
0.0
40
1.0
40
1.0
40
1.0
10
439.32
20
61.07
10
439.37
20
61.64
10
438.81
20
61.68
97
0
92
0
93
32
72
4
94
3
73
0
74
0
95
8
96
4
40
0.0
40
0.0
40
0.0
40
0.0
40
1.0
40
1.0
40
1.0
40
1.0
10
817.67
20
53.45
10
818.85
20
49.63
10
820.96
20
45.6
10
825.07
20
44.31
72
4
94
3
73
0
74
0
95
8
96
4
40
0.0
40
0.0
40
0.0
40
0.0
40
1.0
40
1.0
40
1.0
40
1.0
10
825.07
20
44.31
10
830.74
20
42.54
10
836.43
20
43.45
10
842.03
20
44.86
72
4
94
3
73
0
74
0
95
8
96
4
40
0.0
40
0.0
40
0.0
40
0.0
40
1.0
40
1.0
40
1.0
40
1.0
10
842.03
20
44.86
10
842.5873759014
20
45.000810754
10
842.9758671148
20
45.5050227543
10
842.97
20
46.08
72
1
10
842.97
20
46.08
11
842.95
21
48.3
72
4
94
3
73
0
74
0
95
8
96
4
40
0.0
40
0.0
40
0.0
40
0.0
40
1.0
40
1.0
40
1.0
40
1.0
10
842.95
20
48.3
10
842.9475550925
20
48.5249314932
10
842.8435753149
20
48.7367143312
10
842.6669867462
20
48.8764327592
72
4
94
3
73
0
74
0
95
8
96
4
40
0.0
40
0.0
40
0.0
40
0.0
40
1.0
40
1.0
40
1.0
40
1.0
10
842.6669867462
20
48.8764327592
10
842.4903981774
20
49.0161511872
10
842.2600416781
20
49.0688981507
10
842.04
20
49.02
72
4
94
3
73
0
74
0
95
8
96
4
40
0.0
40
0.0
40
0.0
40
0.0
40
1.0
40
1.0
40
1.0
40
1.0
10
842.04
20
49.02
10
830.73
20
46.58
10
831.5
20
58.35
10
831.66
20
65.5
72
4
94
2
73
0
74
0
95
6
96
3
40
0.0
40
0.0
40
0.0
40
1.0
40
1.0
40
1.0
10
831.66
20
65.5
10
832.28
20
92.69
10
832.47
20
102.56
72
4
94
2
73
0
74
0
95
6
96
3
40
0.0
40
0.0
40
0.0
40
1.0
40
1.0
40
1.0
10
832.47
20
102.56
10
832.61
20
109.91
10
831.76
20
113.37
72
4
94
3
73
0
74
0
95
8
96
4
40
0.0
40
0.0
40
0.0
40
0.0
40
1.0
40
1.0
40
1.0
40
1.0
10
831.76
20
113.37
10
829.67
20
121.79
10
824.31
20
128.66
10
816.04
20
132.02
72
4
94
3
73
0
74
0
95
8
96
4
40
0.0
40
0.0
40
0.0
40
0.0
40
1.0
40
1.0
40
1.0
40
1.0
10
816.04
20
132.02
10
801.06
20
138.1
10
783.62
20
133.82
10
771.41
20
123.96
72
1
10
771.41
20
123.96
11
771.41
21
123.96
72
4
94
3
73
0
74
0
95
8
96
4
40
0.0
40
0.0
40
0.0
40
0.0
40
1.0
40
1.0
40
1.0
40
1.0
10
771.41
20
123.96
10
771.1631148222
20
123.7574275464
10
771.02
20
123.4565194588
10
771.02
20
123.14
72
1
10
771.02
20
123.14
11
771.1
21
114.56
72
1
10
771.1
20
114.56
11
771.1
21
114.56
72
4
94
3
73
0
74
0
95
8
96
4
40
0.0
40
0.0
40
0.0
40
0.0
40
1.0
40
1.0
40
1.0
40
1.0
10
771.1
20
114.56
10
771.1025871694
20
114.3349162607
10
771.1987682953
20
114.1210251075
10
771.3655915975
20
113.9693675601
72
4
94
3
73
0
74
0
95
8
96
4
40
0.0
40
0.0
40
0.0
40
0.0
40
1.0
40
1.0
40
1.0
40
1.0
10
771.3655915975
20
113.9693675601
10
771.5324148997
20
113.8177100126
10
771.7549162607
20
113.7418898141
10
771.98
20
113.76
72
4
94
2
73
0
74
0
95
6
96
3
40
0.0
40
0.0
40
0.0
40
1.0
40
1.0
40
1.0
10
771.98
20
113.76
10
772.94
20
113.84
10
773.22
20
114.3
72
4
94
3
73
0
74
0
95
8
96
4
40
0.0
40
0.0
40
0.0
40
0.0
40
1.0
40
1.0
40
1.0
40
1.0
10
773.22
20
114.3
10
778.83
20
123.35
10
788.21
20
127.03
10
798.82
20
126.66
72
4
94
3
73
0
74
0
95
8
96
4
40
0.0
40
0.0
40
0.0
40
0.0
40
1.0
40
1.0
40
1.0
40
1.0
10
798.82
20
126.66
10
806.55
20
126.39
10
812.92
20
122.18
10
815.77
20
115.26
72
4
94
2
73
0
74
0
95
6
96
3
40
0.0
40
0.0
40
0.0
40
1.0
40
1.0
40
1.0
10
815.77
20
115.26
10
818.59
20
108.45
10
817.55
20
99.04
72
1
10
817.55
20
99.04
11
817.55
21
99.04
72
4
94
3
73
0
74
0
95
8
96
4
40
0.0
40
0.0
40
0.0
40
0.0
40
1.0
40
1.0
40
1.0
40
1.0
10
817.55
20
99.04
10
817.516942839
20
98.7424855507
10
817.4288400763
20
98.4510687205
10
817.29
20
98.18
72
4
94
3
73
0
74
0
95
8
96
4
40
0.0
40
0.0
40
0.0
40
0.0
40
1.0
40
1.0
40
1.0
40
1.0
10
817.29
20
98.18
10
815.51
20
94.73
10
809.06
20
93.35
10
804.75
20
92.53
72
4
94
2
73
0
74
0
95
6
96
3
40
0.0
40
0.0
40
0.0
40
1.0
40
1.0
40
1.0
10
804.75
20
92.53
10
796.44
20
90.95
10
788.17
20
89.45
72
4
94
3
73
0
74
0
95
8
96
4
40
0.0
40
0.0
40
0.0
40
0.0
40
1.0
40
1.0
40
1.0
40
1.0
10
788.17
20
89.45
10
776.93
20
87.41
10
765.46
20
81.96
10
763.24
20
69.4
72
4
94
2
73
0
74
0
95
6
96
3
40
0.0
40
0.0
40
0.0
40
1.0
40
1.0
40
1.0
10
763.24
20
69.4
10
761.11
20
57.38
10
768.04
20
49.41
72
4
94
3
73
0
74
0
95
8
96
4
40
0.0
40
0.0
40
0.0
40
0.0
40
1.0
40
1.0
40
1.0
40
1.0
10
768.04
20
49.41
10
775.29
20
41.09
10
785.49
20
40.56
10
795.83
20
41.78
72
4
94
3
73
0
74
0
95
8
96
4
40
0.0
40
0.0
40
0.0
40
0.0
40
1.0
40
1.0
40
1.0
40
1.0
10
795.83
20
41.78
10
803.33
20
42.67
10
811.71
20
48.23
10
817.01
20
53.61
72
4
94
3
73
0
74
0
95
8
96
4
40
0.0
40
0.0
40
0.0
40
0.0
40
1.0
40
1.0
40
1.0
40
1.0
10
817.01
20
53.61
10
817.107022013
20
53.7091311872
10
817.2490452202
20
53.7497301982
10
817.3841922657
20
53.7169672781
72
4
94
3
73
0
74
0
95
8
96
4
40
0.0
40
0.0
40
0.0
40
0.0
40
1.0
40
1.0
40
1.0
40
1.0
10
817.3841922657
20
53.7169672781
10
817.5193393112
20
53.6842043579
10
817.6278165161
20
53.5828779744
10
817.67
20
53.45
72
1
10
817.67
20
53.45
11
817.67
21
53.45
97
0
92
0
93
31
72
1
10
878.9
20
114.89
11
879.26
21
132.48
72
1
10
879.26
20
132.48
11
879.26
21
132.48
72
4
94
3
73
0
74
0
95
8
96
4
40
0.0
40
0.0
40
0.0
40
0.0
40
1.0
40
1.0
40
1.0
40
1.0
10
879.26
20
132.48
10
879.2624241108
20
132.5454509928
10
879.2354723179
20
132.6085494954
10
879.1867944521
20
132.6513860173
72
4
94
3
73
0
74
0
95
8
96
4
40
0.0
40
0.0
40
0.0
40
0.0
40
1.0
40
1.0
40
1.0
40
1.0
10
879.1867944521
20
132.6513860173
10
879.1381165863
20
132.6942225392
10
879.073026882
20
132.7121205542
10
879.01
20
132.7
72
4
94
2
73
0
74
0
95
6
96
3
40
0.0
40
0.0
40
0.0
40
1.0
40
1.0
40
1.0
10
879.01
20
132.7
10
871.93
20
131.37
10
864.76
20
132.7
72
1
10
864.76
20
132.7
11
864.76
21
132.7
72
4
94
3
73
0
74
0
95
8
96
4
40
0.0
40
0.0
40
0.0
40
0.0
40
1.0
40
1.0
40
1.0
40
1.0
10
864.76
20
132.7
10
864.6372320101
20
132.7220982382
10
864.5110087794
20
132.6888579832
10
864.4160845559
20
132.6094315922
72
4
94
3
73
0
74
0
95
8
96
4
40
0.0
40
0.0
40
0.0
40
0.0
40
1.0
40
1.0
40
1.0
40
1.0
10
864.4160845559
20
132.6094315922
10
864.3211603325
20
132.5300052011
10
864.2675446402
20
132.4127679899
10
864.27
20
132.29
72
4
94
2
73
0
74
0
95
6
96
3
40
0.0
40
0.0
40
0.0
40
1.0
40
1.0
40
1.0
10
864.27
20
132.29
10
864.92
20
105.13
10
864.77
20
74.0
72
4
94
2
73
0
74
0
95
6
96
3
40
0.0
40
0.0
40
0.0
40
1.0
40
1.0
40
1.0
10
864.77
20
74.0
10
864.66
20
49.89
10
864.23
20
43.5
72
1
10
864.23
20
43.5
11
864.23
21
43.5
72
4
94
3
73
0
74
0
95
8
96
4
40
0.0
40
0.0
40
0.0
40
0.0
40
1.0
40
1.0
40
1.0
40
1.0
10
864.23
20
43.5
10
864.2248030354
20
43.4090531194
10
864.2572438568
20
43.3199825346
10
864.3196854977
20
43.2537565519
72
4
94
3
73
0
74
0
95
8
96
4
40
0.0
40
0.0
40
0.0
40
0.0
40
1.0
40
1.0
40
1.0
40
1.0
10
864.3196854977
20
43.2537565519
10
864.3821271386
20
43.1875305691
10
864.4690531194
20
43.15
10
864.56
20
43.15
72
1
10
864.56
20
43.15
11
879.46
21
43.3
72
1
10
879.46
20
43.3
11
879.46
21
43.3
72
4
94
3
73
0
74
0
95
8
96
4
40
0.0
40
0.0
40
0.0
40
0.0
40
1.0
40
1.0
40
1.0
40
1.0
10
879.46
20
43.3
10
879.5207703111
20
43.3
10
879.5785894372
20
43.3262980611
10
879.6187629815
20
43.3722106831
72
4
94
3
73
0
74
0
95
8
96
4
40
0.0
40
0.0
40
0.0
40
0.0
40
1.0
40
1.0
40
1.0
40
1.0
10
879.6187629815
20
43.3722106831
10
879.6589365257
20
43.4181233051
10
879.6775962889
20
43.4792296889
10
879.67
20
43.54
72
4
94
2
73
0
74
0
95
6
96
3
40
0.0
40
0.0
40
0.0
40
1.0
40
1.0
40
1.0
10
879.67
20
43.54
10
879.16
20
48.04
10
879.11
20
52.0
72
4
94
2
73
0
74
0
95
6
96
3
40
0.0
40
0.0
40
0.0
40
1.0
40
1.0
40
1.0
10
879.11
20
52.0
10
878.97
20
65.52
10
878.99
20
94.75
72
4
94
3
73
0
74
0
95
8
96
4
40
0.0
40
0.0
40
0.0
40
0.0
40
1.0
40
1.0
40
1.0
40
1.0
10
878.99
20
94.75
10
879.0
20
109.52
10
887.37
20
124.2
10
904.52
20
119.24
72
4
94
2
73
0
74
0
95
6
96
3
40
0.0
40
0.0
40
0.0
40
1.0
40
1.0
40
1.0
10
904.52
20
119.24
10
905.42
20
118.98
10
906.99
20
117.84
72
1
10
906.99
20
117.84
11
906.99
21
117.84
72
4
94
3
73
0
74
0
95
8
96
4
40
0.0
40
0.0
40
0.0
40
0.0
40
1.0
40
1.0
40
1.0
40
1.0
10
906.99
20
117.84
10
907.3590426033
20
117.5678776764
10
907.8509652405
20
117.5301875126
10
908.2572561693
20
117.7429052764
72
4
94
3
73
0
74
0
95
8
96
4
40
0.0
40
0.0
40
0.0
40
0.0
40
1.0
40
1.0
40
1.0
40
1.0
10
908.2572561693
20
117.7429052764
10
908.663547098
20
117.9556230401
10
908.9130469607
20
118.3814925232
10
908.9
20
118.84
72
4
94
2
73
0
74
0
95
6
96
3
40
0.0
40
0.0
40
0.0
40
1.0
40
1.0
40
1.0
10
908.9
20
118.84
10
908.65
20
127.51
10
909.94
20
133.25
72
4
94
3
73
0
74
0
95
8
96
4
40
0.0
40
0.0
40
0.0
40
0.0
40
1.0
40
1.0
40
1.0
40
1.0
10
909.94
20
133.25
10
910.0135237991
20
133.5780292576
10
909.8223735808
20
133.9081978166
10
909.5
20
134.01
72
4
94
3
73
0
74
0
95
8
96
4
40
0.0
40
0.0
40
0.0
40
0.0
40
1.0
40
1.0
40
1.0
40
1.0
10
909.5
20
134.01
10
895.84
20
138.14
10
884.63
20
125.17
10
879.32
20
114.78
72
1
10
879.32
20
114.78
11
879.32
21
114.78
72
4
94
3
73
0
74
0
95
8
96
4
40
0.0
40
0.0
40
0.0
40
0.0
40
1.0
40
1.0
40
1.0
40
1.0
10
879.32
20
114.78
10
879.2732291861
20
114.6875213452
10
879.1687292992
20
114.640589329
10
879.0682063326
20
114.6669167726
72
4
94
3
73
0
74
0
95
8
96
4
40
0.0
40
0.0
40
0.0
40
0.0
40
1.0
40
1.0
40
1.0
40
1.0
10
879.0682063326
20
114.6669167726
10
878.9676833661
20
114.6932442162
10
878.8978740539
20
114.7858286417
10
878.9
20
114.89
72
1
10
878.9
20
114.89
11
878.9
21
114.89
97
0
92
0
93
18
72
4
94
2
73
0
74
0
95
6
96
3
40
0.0
40
0.0
40
0.0
40
1.0
40
1.0
40
1.0
10
997.8065479864
20
61.6819657471
10
997.3965886383
20
61.7120198947
10
997.2165797159
20
61.5320608611
72
4
94
3
73
0
74
0
95
8
96
4
40
0.0
40
0.0
40
0.0
40
0.0
40
1.0
40
1.0
40
1.0
40
1.0
10
997.2165797159
20
61.5320608611
10
985.0459293413
20
49.0248609106
10
966.2869007439
20
43.9879092914
10
950.8196095006
20
53.5991977317
72
4
94
3
73
0
74
0
95
8
96
4
40
0.0
40
0.0
40
0.0
40
0.0
40
1.0
40
1.0
40
1.0
40
1.0
10
950.8196095006
20
53.5991977317
10
938.9116951157
20
61.0001895407
10
935.4539418314
20
74.9894237641
10
936.3956763337
20
88.1081256739
72
1
10
936.3956763337
20
88.1081256739
11
936.3956763337
21
88.1081256739
72
4
94
3
73
0
74
0
95
8
96
4
40
0.0
40
0.0
40
0.0
40
0.0
40
1.0
40
1.0
40
1.0
40
1.0
10
936.3956763337
20
88.1081256739
10
936.4240612002
20
88.5386647338
10
936.7751677716
20
88.8766735868
10
937.2057123274
20
88.8879439953
72
4
94
2
73
0
74
0
95
6
96
3
40
0.0
40
0.0
40
0.0
40
1.0
40
1.0
40
1.0
10
937.2057123274
20
88.8879439953
10
968.1230778995
20
89.733583435
10
1001.2599867222
20
88.7090816772
72
1
10
1001.2599867222
20
88.7090816772
11
1001.2599867222
21
88.7090816772
72
4
94
3
73
0
74
0
95
8
96
4
40
0.0
40
0.0
40
0.0
40
0.0
40
1.0
40
1.0
40
1.0
40
1.0
10
1001.2599867222
20
88.7090816772
10
1001.5951955872
20
88.7033537001
10
1001.8801906587
20
88.9494168569
10
1001.9200069656
20
89.2789394779
72
4
94
3
73
0
74
0
95
8
96
4
40
0.0
40
0.0
40
0.0
40
0.0
40
1.0
40
1.0
40
1.0
40
1.0
10
1001.9200069656
20
89.2789394779
10
1003.6416983696
20
102.5875163831
10
1000.3740501238
20
117.4566459465
10
989.6262001682
20
126.0673692991
72
4
94
3
73
0
74
0
95
8
96
4
40
0.0
40
0.0
40
0.0
40
0.0
40
1.0
40
1.0
40
1.0
40
1.0
10
989.6262001682
20
126.0673692991
10
979.2782730342
20
134.3780639229
10
966.1396782255
20
136.0797335485
10
953.2605225827
20
133.901712506
72
4
94
3
73
0
74
0
95
8
96
4
40
0.0
40
0.0
40
0.0
40
0.0
40
1.0
40
1.0
40
1.0
40
1.0
10
953.2605225827
20
133.901712506
10
942.1412518545
20
132.0234208589
10
933.8412714146
20
126.8350330422
10
927.8005451894
20
117.7166818474
72
4
94
3
73
0
74
0
95
8
96
4
40
0.0
40
0.0
40
0.0
40
0.0
40
1.0
40
1.0
40
1.0
40
1.0
10
927.8005451894
20
117.7166818474
10
919.8695963988
20
105.7788435804
10
917.7871956346
20
87.1207927731
10
920.8150703417
20
73.7315647326
72
4
94
3
73
0
74
0
95
8
96
4
40
0.0
40
0.0
40
0.0
40
0.0
40
1.0
40
1.0
40
1.0
40
1.0
10
920.8150703417
20
73.7315647326
10
924.6523699037
20
56.7125475522
10
938.8594060633
20
44.4516696023
10
956.3174985511
20
41.8994769695
72
4
94
2
73
0
74
0
95
6
96
3
40
0.0
40
0.0
40
0.0
40
1.0
40
1.0
40
1.0
10
956.3174985511
20
41.8994769695
10
978.665057383
20
38.6366698771
10
996.6852466326
20
51.5730208585
72
1
10
996.6852466326
20
51.5730208585
11
996.6852466326
21
51.5730208585
72
4
94
3
73
0
74
0
95
8
96
4
40
0.0
40
0.0
40
0.0
40
0.0
40
1.0
40
1.0
40
1.0
40
1.0
10
996.6852466326
20
51.5730208585
10
997.0050632022
20
51.7968264206
10
997.2213145841
20
52.139119359
10
997.2853248772
20
52.5228531499
72
4
94
2
73
0
74
0
95
6
96
3
40
0.0
40
0.0
40
0.0
40
1.0
40
1.0
40
1.0
10
997.2853248772
20
52.5228531499
10
997.8357373933
20
55.852480524
10
998.3164180568
20
61.0719493679
72
4
94
2
73
0
74
0
95
6
96
3
40
0.0
40
0.0
40
0.0
40
1.0
40
1.0
40
1.0
10
998.3164180568
20
61.0719493679
10
998.366492597
20
61.6418917026
10
997.8065479864
20
61.6819657471
97
0
92
0
93
38
72
1
10
630.54
20
57.87
11
630.24
21
43.6
72
4
94
3
73
0
74
0
95
8
96
4
40
0.0
40
0.0
40
0.0
40
0.0
40
1.0
40
1.0
40
1.0
40
1.0
10
630.24
20
43.6
10
630.24
20
43.4825105693
10
630.3369158345
20
43.3855947348
10
630.46
20
43.38
72
1
10
630.46
20
43.38
11
644.28
21
43.1
72
1
10
644.28
20
43.1
11
644.28
21
43.1
72
4
94
3
73
0
74
0
95
8
96
4
40
0.0
40
0.0
40
0.0
40
0.0
40
1.0
40
1.0
40
1.0
40
1.0
10
644.28
20
43.1
10
644.4177448893
20
43.0974010398
10
644.5504783769
20
43.1516792948
10
644.6469714528
20
43.2500643918
72
4
94
3
73
0
74
0
95
8
96
4
40
0.0
40
0.0
40
0.0
40
0.0
40
1.0
40
1.0
40
1.0
40
1.0
10
644.6469714528
20
43.2500643918
10
644.7434645287
20
43.3484494888
10
644.7951979204
20
43.4822551107
10
644.79
20
43.62
72
4
94
2
73
0
74
0
95
6
96
3
40
0.0
40
0.0
40
0.0
40
1.0
40
1.0
40
1.0
10
644.79
20
43.62
10
642.9
20
88.21
10
645.39
20
132.39
72
1
10
645.39
20
132.39
11
645.39
21
132.39
72
4
94
3
73
0
74
0
95
8
96
4
40
0.0
40
0.0
40
0.0
40
0.0
40
1.0
40
1.0
40
1.0
40
1.0
10
645.39
20
132.39
10
645.3947953304
20
132.4883042731
10
645.3552655275
20
132.5835833409
10
645.2829122511
20
132.6481146415
72
4
94
3
73
0
74
0
95
8
96
4
40
0.0
40
0.0
40
0.0
40
0.0
40
1.0
40
1.0
40
1.0
40
1.0
10
645.2829122511
20
132.6481146415
10
645.2105589746
20
132.7126459422
10
645.1135089427
20
132.7391813216
10
645.02
20
132.72
72
4
94
2
73
0
74
0
95
6
96
3
40
0.0
40
0.0
40
0.0
40
1.0
40
1.0
40
1.0
10
645.02
20
132.72
10
637.62
20
131.38
10
630.14
20
132.73
72
1
10
630.14
20
132.73
11
630.14
21
132.73
72
4
94
3
73
0
74
0
95
8
96
4
40
0.0
40
0.0
40
0.0
40
0.0
40
1.0
40
1.0
40
1.0
40
1.0
10
630.14
20
132.73
10
630.0663171538
20
132.7447365692
10
629.989909413
20
132.7252055202
10
629.9317995116
20
132.6767806024
72
4
94
3
73
0
74
0
95
8
96
4
40
0.0
40
0.0
40
0.0
40
0.0
40
1.0
40
1.0
40
1.0
40
1.0
10
629.9317995116
20
132.6767806024
10
629.8736896102
20
132.6283556845
10
629.84
20
132.556138941
10
629.84
20
132.48
72
4
94
2
73
0
74
0
95
6
96
3
40
0.0
40
0.0
40
0.0
40
1.0
40
1.0
40
1.0
10
629.84
20
132.48
10
630.36
20
106.89
10
629.9
20
79.88
72
4
94
2
73
0
74
0
95
6
96
3
40
0.0
40
0.0
40
0.0
40
1.0
40
1.0
40
1.0
10
629.9
20
79.88
10
629.78
20
73.03
10
627.63
20
66.45
72
4
94
3
73
0
74
0
95
8
96
4
40
0.0
40
0.0
40
0.0
40
0.0
40
1.0
40
1.0
40
1.0
40
1.0
10
627.63
20
66.45
10
623.51
20
53.81
10
612.48
20
48.85
10
599.92
20
51.04
72
4
94
2
73
0
74
0
95
6
96
3
40
0.0
40
0.0
40
0.0
40
1.0
40
1.0
40
1.0
10
599.92
20
51.04
10
592.69
20
52.3
10
588.08
20
58.24
72
4
94
3
73
0
74
0
95
8
96
4
40
0.0
40
0.0
40
0.0
40
0.0
40
1.0
40
1.0
40
1.0
40
1.0
10
588.08
20
58.24
10
581.3
20
66.97
10
582.77
20
81.17
10
582.9
20
91.95
72
4
94
2
73
0
74
0
95
6
96
3
40
0.0
40
0.0
40
0.0
40
1.0
40
1.0
40
1.0
10
582.9
20
91.95
10
583.17
20
114.06
10
584.51
20
132.05
72
1
10
584.51
20
132.05
11
584.51
21
132.05
72
4
94
3
73
0
74
0
95
8
96
4
40
0.0
40
0.0
40
0.0
40
0.0
40
1.0
40
1.0
40
1.0
40
1.0
10
584.51
20
132.05
10
584.5221248627
20
132.2221730502
10
584.4554621391
20
132.3905392057
10
584.3289174216
20
132.5073497143
72
4
94
3
73
0
74
0
95
8
96
4
40
0.0
40
0.0
40
0.0
40
0.0
40
1.0
40
1.0
40
1.0
40
1.0
10
584.3289174216
20
132.5073497143
10
584.202372704
20
132.6241602228
10
584.0297480777
20
132.6766746979
10
583.86
20
132.65
72
4
94
2
73
0
74
0
95
6
96
3
40
0.0
40
0.0
40
0.0
40
1.0
40
1.0
40
1.0
10
583.86
20
132.65
10
576.65
20
131.5
10
569.63
20
132.65
72
1
10
569.63
20
132.65
11
569.63
21
132.65
72
4
94
3
73
0
74
0
95
8
96
4
40
0.0
40
0.0
40
0.0
40
0.0
40
1.0
40
1.0
40
1.0
40
1.0
10
569.63
20
132.65
10
569.4763176382
20
132.6747874777
10
569.3195343848
20
132.631135688
10
569.2018140579
20
132.5307839338
72
4
94
3
73
0
74
0
95
8
96
4
40
0.0
40
0.0
40
0.0
40
0.0
40
1.0
40
1.0
40
1.0
40
1.0
10
569.2018140579
20
132.5307839338
10
569.0840937309
20
132.4304321797
10
569.0175212522
20
132.2836823618
10
569.02
20
132.13
72
4
94
2
73
0
74
0
95
6
96
3
40
0.0
40
0.0
40
0.0
40
1.0
40
1.0
40
1.0
10
569.02
20
132.13
10
569.37
20
108.99
10
569.37
20
108.77
72
4
94
3
73
0
74
0
95
8
96
4
40
0.0
40
0.0
40
0.0
40
0.0
40
1.0
40
1.0
40
1.0
40
1.0
10
569.37
20
108.77
10
569.53
20
97.59
10
568.82
20
84.84
10
568.73
20
73.63
72
4
94
3
73
0
74
0
95
8
96
4
40
0.0
40
0.0
40
0.0
40
0.0
40
1.0
40
1.0
40
1.0
40
1.0
10
568.73
20
73.63
10
568.65
20
62.55
10
571.3
20
51.1
10
582.12
20
45.44
72
4
94
2
73
0
74
0
95
6
96
3
40
0.0
40
0.0
40
0.0
40
1.0
40
1.0
40
1.0
10
582.12
20
45.44
10
586.5
20
43.15
10
588.65
20
42.65
72
4
94
3
73
0
74
0
95
8
96
4
40
0.0
40
0.0
40
0.0
40
0.0
40
1.0
40
1.0
40
1.0
40
1.0
10
588.65
20
42.65
10
597.84
20
40.51
10
608.57
20
40.54
10
616.72
20
45.14
72
4
94
2
73
0
74
0
95
6
96
3
40
0.0
40
0.0
40
0.0
40
1.0
40
1.0
40
1.0
10
616.72
20
45.14
10
624.46
20
49.5
10
627.45
20
54.76
72
4
94
2
73
0
74
0
95
6
96
3
40
0.0
40
0.0
40
0.0
40
1.0
40
1.0
40
1.0
10
627.45
20
54.76
10
627.59
20
55.0
10
629.88
20
58.09
72
1
10
629.88
20
58.09
11
629.88
21
58.09
72
4
94
3
73
0
74
0
95
8
96
4
40
0.0
40
0.0
40
0.0
40
0.0
40
1.0
40
1.0
40
1.0
40
1.0
10
629.88
20
58.09
10
629.9745744633
20
58.2179536857
10
630.1410198943
20
58.2706987193
10
630.291712389
20
58.2204678878
72
4
94
3
73
0
74
0
95
8
96
4
40
0.0
40
0.0
40
0.0
40
0.0
40
1.0
40
1.0
40
1.0
40
1.0
10
630.291712389
20
58.2204678878
10
630.4424048838
20
58.1702370562
10
630.5427816019
20
58.0285513062
10
630.54
20
57.87
72
1
10
630.54
20
57.87
11
630.54
21
57.87
97
0
92
0
93
25
72
4
94
2
73
0
74
0
95
6
96
3
40
0.0
40
0.0
40
0.0
40
1.0
40
1.0
40
1.0
10
750.02
20
132.56
10
744.74
20
131.55
10
739.55
20
132.63
72
1
10
739.55
20
132.63
11
739.55
21
132.63
72
4
94
3
73
0
74
0
95
8
96
4
40
0.0
40
0.0
40
0.0
40
0.0
40
1.0
40
1.0
40
1.0
40
1.0
10
739.55
20
132.63
10
739.1884425379
20
132.7046070954
10
738.8262581614
20
132.5000794474
10
738.7
20
132.15
72
4
94
3
73
0
74
0
95
8
96
4
40
0.0
40
0.0
40
0.0
40
0.0
40
1.0
40
1.0
40
1.0
40
1.0
10
738.7
20
132.15
10
730.56
20
109.72
10
722.2
20
86.37
10
712.16
20
63.61
72
4
94
2
73
0
74
0
95
6
96
3
40
0.0
40
0.0
40
0.0
40
1.0
40
1.0
40
1.0
10
712.16
20
63.61
10
711.3
20
61.67
10
710.29
20
60.09
72
1
10
710.29
20
60.09
11
710.29
21
60.09
72
4
94
3
73
0
74
0
95
8
96
4
40
0.0
40
0.0
40
0.0
40
0.0
40
1.0
40
1.0
40
1.0
40
1.0
10
710.29
20
60.09
10
710.2005725496
20
59.9528779094
10
710.043438305
20
59.8752510601
10
709.880647784
20
59.8877734079
72
4
94
3
73
0
74
0
95
8
96
4
40
0.0
40
0.0
40
0.0
40
0.0
40
1.0
40
1.0
40
1.0
40
1.0
10
709.880647784
20
59.8877734079
10
709.717857263
20
59.9002957557
10
709.5755801303
20
60.0009542494
10
709.51
20
60.15
72
4
94
2
73
0
74
0
95
6
96
3
40
0.0
40
0.0
40
0.0
40
1.0
40
1.0
40
1.0
10
709.51
20
60.15
10
699.54
20
82.24
10
691.17
20
104.9
72
4
94
2
73
0
74
0
95
6
96
3
40
0.0
40
0.0
40
0.0
40
1.0
40
1.0
40
1.0
10
691.17
20
104.9
10
688.23
20
112.87
10
681.84
20
132.2
72
4
94
3
73
0
74
0
95
8
96
4
40
0.0
40
0.0
40
0.0
40
0.0
40
1.0
40
1.0
40
1.0
40
1.0
10
681.84
20
132.2
10
681.7306529366
20
132.5337962987
10
681.3910616245
20
132.737551086
10
681.04
20
132.68
72
4
94
2
73
0
74
0
95
6
96
3
40
0.0
40
0.0
40
0.0
40
1.0
40
1.0
40
1.0
10
681.04
20
132.68
10
672.75
20
131.32
10
664.91
20
132.7
72
1
10
664.91
20
132.7
11
664.91
21
132.7
72
4
94
3
73
0
74
0
95
8
96
4
40
0.0
40
0.0
40
0.0
40
0.0
40
1.0
40
1.0
40
1.0
40
1.0
10
664.91
20
132.7
10
664.6930110563
20
132.7371422516
10
664.4731331258
20
132.6514054109
10
664.3388884983
20
132.4773069096
72
4
94
3
73
0
74
0
95
8
96
4
40
0.0
40
0.0
40
0.0
40
0.0
40
1.0
40
1.0
40
1.0
40
1.0
10
664.3388884983
20
132.4773069096
10
664.2046438707
20
132.3032084082
10
664.1781217986
20
132.0693952456
10
664.27
20
131.87
72
4
94
3
73
0
74
0
95
8
96
4
40
0.0
40
0.0
40
0.0
40
0.0
40
1.0
40
1.0
40
1.0
40
1.0
10
664.27
20
131.87
10
677.38
20
103.61
10
688.49
20
74.23
10
700.36
20
43.72
72
4
94
3
73
0
74
0
95
8
96
4
40
0.0
40
0.0
40
0.0
40
0.0
40
1.0
40
1.0
40
1.0
40
1.0
10
700.36
20
43.72
10
700.4509241801
20
43.4896587438
10
700.6714739078
20
43.336061612
10
700.92
20
43.33
72
1
10
700.92
20
43.33
11
712.27
21
43.1
72
1
10
712.27
20
43.1
11
712.27
21
43.1
72
4
94
3
73
0
74
0
95
8
96
4
40
0.0
40
0.0
40
0.0
40
0.0
40
1.0
40
1.0
40
1.0
40
1.0
10
712.27
20
43.1
10
712.5028621342
20
43.094029176
10
712.7123792886
20
43.2350503377
10
712.79
20
43.45
72
4
94
2
73
0
74
0
95
6
96
3
40
0.0
40
0.0
40
0.0
40
1.0
40
1.0
40
1.0
10
712.79
20
43.45
10
718.54
20
59.59
10
726.28
20
77.51
72
4
94
2
73
0
74
0
95
6
96
3
40
0.0
40
0.0
40
0.0
40
1.0
40
1.0
40
1.0
10
726.28
20
77.51
10
738.33
20
105.43
10
750.45
20
132.01
72
4
94
3
73
0
74
0
95
8
96
4
40
0.0
40
0.0
40
0.0
40
0.0
40
1.0
40
1.0
40
1.0
40
1.0
10
750.45
20
132.01
10
750.5117538934
20
132.1431568327
10
750.4936630374
20
132.2995951452
10
750.4031176473
20
132.4154090162
72
4
94
3
73
0
74
0
95
8
96
4
40
0.0
40
0.0
40
0.0
40
0.0
40
1.0
40
1.0
40
1.0
40
1.0
10
750.4031176473
20
132.4154090162
10
750.3125722573
20
132.5312228872
10
750.1647356877
20
132.5870173284
10
750.02
20
132.56
72
1
10
750.02
20
132.56
11
750.02
21
132.56
97
0
75
0
76
1
98
0
0
HATCH
5
2b5
100
AcDbEntity
8
Layer 1
6
Solid
370
0
62
0
100
AcDbHatch
10
0
20
0
30
0
210
0
220
0
230
1
2
FILL_693
70
1
71
0
91
2
92
0
93
34
72
4
94
2
73
0
74
0
95
6
96
3
40
0.0
40
0.0
40
0.0
40
1.0
40
1.0
40
1.0
10
326.69
20
60.25
10
326.36
20
59.79
10
323.3
20
55.21
72
4
94
2
73
0
74
0
95
6
96
3
40
0.0
40
0.0
40
0.0
40
1.0
40
1.0
40
1.0
10
323.3
20
55.21
10
318.59
20
48.18
10
310.21
20
44.32
72
4
94
2
73
0
74
0
95
6
96
3
40
0.0
40
0.0
40
0.0
40
1.0
40
1.0
40
1.0
10
310.21
20
44.32
10
303.24
20
41.11
10
293.41
20
41.32
72
4
94
2
73
0
74
0
95
6
96
3
40
0.0
40
0.0
40
0.0
40
1.0
40
1.0
40
1.0
10
293.41
20
41.32
10
271.1
20
41.8
10
260.89
20
62.74
72
4
94
2
73
0
74
0
95
6
96
3
40
0.0
40
0.0
40
0.0
40
1.0
40
1.0
40
1.0
10
260.89
20
62.74
10
259.12
20
66.37
10
257.49
20
74.19
72
4
94
2
73
0
74
0
95
6
96
3
40
0.0
40
0.0
40
0.0
40
1.0
40
1.0
40
1.0
10
257.49
20
74.19
10
254.79
20
87.15
10
257.86
20
101.21
72
4
94
2
73
0
74
0
95
6
96
3
40
0.0
40
0.0
40
0.0
40
1.0
40
1.0
40
1.0
10
257.86
20
101.21
10
261.14
20
116.17
10
272.41
20
125.83
72
4
94
2
73
0
74
0
95
6
96
3
40
0.0
40
0.0
40
0.0
40
1.0
40
1.0
40
1.0
10
272.41
20
125.83
10
279.8
20
132.15
10
290.78
20
134.14
72
4
94
3
73
0
74
0
95
8
96
4
40
0.0
40
0.0
40
0.0
40
0.0
40
1.0
40
1.0
40
1.0
40
1.0
10
290.78
20
134.14
10
304.13
20
136.55
10
317.51
20
132.15
10
324.24
20
119.95
72
4
94
2
73
0
74
0
95
6
96
3
40
0.0
40
0.0
40
0.0
40
1.0
40
1.0
40
1.0
10
324.24
20
119.95
10
325.59
20
117.5
10
326.36
20
116.35
72
1
10
326.36
20
116.35
11
326.36
21
116.35
72
4
94
3
73
0
74
0
95
8
96
4
40
0.0
40
0.0
40
0.0
40
0.0
40
1.0
40
1.0
40
1.0
40
1.0
10
326.36
20
116.35
10
326.4336903869
20
116.2394644197
10
326.571263773
20
116.1905801502
10
326.6982175005
20
116.2298203932
72
4
94
3
73
0
74
0
95
8
96
4
40
0.0
40
0.0
40
0.0
40
0.0
40
1.0
40
1.0
40
1.0
40
1.0
10
326.6982175005
20
116.2298203932
10
326.825171228
20
116.2690606363
10
326.9113158998
20
116.3870941236
10
326.91
20
116.52
72
1
10
326.91
20
116.52
11
326.26
21
184.91
72
1
10
326.26
20
184.91
11
326.26
21
184.91
72
4
94
3
73
0
74
0
95
8
96
4
40
0.0
40
0.0
40
0.0
40
0.0
40
1.0
40
1.0
40
1.0
40
1.0
10
326.26
20
184.91
10
326.26
20
185.0469680013
10
326.3140541076
20
185.1781974252
10
326.4099874116
20
185.2741307292
72
4
94
3
73
0
74
0
95
8
96
4
40
0.0
40
0.0
40
0.0
40
0.0
40
1.0
40
1.0
40
1.0
40
1.0
10
326.4099874116
20
185.2741307292
10
326.5059207155
20
185.3700640332
10
326.6356659987
20
185.422634
10
326.77
20
185.42
72
4
94
2
73
0
74
0
95
6
96
3
40
0.0
40
0.0
40
0.0
40
1.0
40
1.0
40
1.0
10
326.77
20
185.42
10
328.2
20
185.39
10
330.33
20
185.05
72
4
94
2
73
0
74
0
95
6
96
3
40
0.0
40
0.0
40
0.0
40
1.0
40
1.0
40
1.0
10
330.33
20
185.05
10
335.03
20
184.29
10
342.19
20
185.5
72
1
10
342.19
20
185.5
11
342.19
21
185.5
72
4
94
3
73
0
74
0
95
8
96
4
40
0.0
40
0.0
40
0.0
40
0.0
40
1.0
40
1.0
40
1.0
40
1.0
10
342.19
20
185.5
10
342.3773671591
20
185.5316334165
10
342.5689652594
20
185.4765097849
10
342.7108913713
20
185.3501372196
72
4
94
3
73
0
74
0
95
8
96
4
40
0.0
40
0.0
40
0.0
40
0.0
40
1.0
40
1.0
40
1.0
40
1.0
10
342.7108913713
20
185.3501372196
10
342.8528174831
20
185.2237646542
10
342.9297333589
20
185.0398004988
10
342.92
20
184.85
72
4
94
2
73
0
74
0
95
6
96
3
40
0.0
40
0.0
40
0.0
40
1.0
40
1.0
40
1.0
10
342.92
20
184.85
10
339.65
20
113.32
10
341.28
20
43.23
72
4
94
3
73
0
74
0
95
8
96
4
40
0.0
40
0.0
40
0.0
40
0.0
40
1.0
40
1.0
40
1.0
40
1.0
10
341.28
20
43.23
10
341.28258488
20
43.1938116798
10
341.2689738236
20
43.1581793943
10
341.2424236956
20
43.1316292663
72
4
94
3
73
0
74
0
95
8
96
4
40
0.0
40
0.0
40
0.0
40
0.0
40
1.0
40
1.0
40
1.0
40
1.0
10
341.2424236956
20
43.1316292663
10
341.2158735677
20
43.1050791383
10
341.1787732003
20
43.09
10
341.14
20
43.09
72
1
10
341.14
20
43.09
11
327.26
21
43.38
72
1
10
327.26
20
43.38
11
327.26
21
43.38
72
4
94
3
73
0
74
0
95
8
96
4
40
0.0
40
0.0
40
0.0
40
0.0
40
1.0
40
1.0
40
1.0
40
1.0
10
327.26
20
43.38
10
327.152189503
20
43.38
10
327.0489412272
20
43.4235192161
10
326.9736433897
20
43.5006994995
72
4
94
3
73
0
74
0
95
8
96
4
40
0.0
40
0.0
40
0.0
40
0.0
40
1.0
40
1.0
40
1.0
40
1.0
10
326.9736433897
20
43.5006994995
10
326.8983455523
20
43.5778797829
10
326.8573704757
20
43.682189503
10
326.86
20
43.79
72
1
10
326.86
20
43.79
11
327.2
21
60.08
72
1
10
327.2
20
60.08
11
327.2
21
60.08
72
4
94
3
73
0
74
0
95
8
96
4
40
0.0
40
0.0
40
0.0
40
0.0
40
1.0
40
1.0
40
1.0
40
1.0
10
327.2
20
60.08
10
327.2013706273
20
60.2033564581
10
327.1228268649
20
60.3137953948
10
327.0060392834
20
60.3527245886
72
4
94
3
73
0
74
0
95
8
96
4
40
0.0
40
0.0
40
0.0
40
0.0
40
1.0
40
1.0
40
1.0
40
1.0
10
327.0060392834
20
60.3527245886
10
326.889251702
20
60.3916537824
10
326.7612726202
20
60.3500557938
10
326.69
20
60.25
72
1
10
326.69
20
60.25
11
326.69
21
60.25
97
0
92
0
93
7
72
4
94
3
73
0
74
0
95
8
96
4
40
0.0
40
0.0
40
0.0
40
0.0
40
1.0
40
1.0
40
1.0
40
1.0
10
273.3
20
90.39
10
272.7
20
80.12
10
273.39
20
70.4
10
277.74
20
61.3
72
4
94
2
73
0
74
0
95
6
96
3
40
0.0
40
0.0
40
0.0
40
1.0
40
1.0
40
1.0
10
277.74
20
61.3
10
284.21
20
47.8
10
299.15
20
47.7
72
4
94
2
73
0
74
0
95
6
96
3
40
0.0
40
0.0
40
0.0
40
1.0
40
1.0
40
1.0
10
299.15
20
47.7
10
306.7
20
47.66
10
312.2
20
51.55
72
4
94
3
73
0
74
0
95
8
96
4
40
0.0
40
0.0
40
0.0
40
0.0
40
1.0
40
1.0
40
1.0
40
1.0
10
312.2
20
51.55
10
327.1
20
62.09
10
329.22
20
85.53
10
326.54
20
101.76
72
4
94
3
73
0
74
0
95
8
96
4
40
0.0
40
0.0
40
0.0
40
0.0
40
1.0
40
1.0
40
1.0
40
1.0
10
326.54
20
101.76
10
324.12
20
116.45
10
315.87
20
126.76
10
299.88
20
126.73
72
4
94
3
73
0
74
0
95
8
96
4
40
0.0
40
0.0
40
0.0
40
0.0
40
1.0
40
1.0
40
1.0
40
1.0
10
299.88
20
126.73
10
284.76
20
126.71
10
277.56
20
115.16
10
274.56
20
101.71
72
4
94
2
73
0
74
0
95
6
96
3
40
0.0
40
0.0
40
0.0
40
1.0
40
1.0
40
1.0
10
274.56
20
101.71
10
273.74
20
98.03
10
273.3
20
90.39
97
0
75
0
76
1
98
0
0
HATCH
5
2d3
100
AcDbEntity
8
Layer 1
6
Solid
370
0
62
0
100
AcDbHatch
10
0
20
0
30
0
210
0
220
0
230
1
2
FILL_723
70
1
71
0
91
1
92
0
93
14
72
4
94
2
73
0
74
0
95
6
96
3
40
0.0
40
0.0
40
0.0
40
1.0
40
1.0
40
1.0
10
18.2090847519
20
96.8204391085
10
18.2042114422
20
87.6114552188
10
19.162496536
20
76.4295963557
72
4
94
2
73
0
74
0
95
6
96
3
40
0.0
40
0.0
40
0.0
40
1.0
40
1.0
40
1.0
10
19.162496536
20
76.4295963557
10
21.7662961992
20
46.0565126409
10
40.4838889937
20
22.3731889365
72
4
94
3
73
0
74
0
95
8
96
4
40
0.0
40
0.0
40
0.0
40
0.0
40
1.0
40
1.0
40
1.0
40
1.0
10
40.4838889937
20
22.3731889365
10
40.7745605515
20
22.0025515674
10
40.7442625231
20
21.4765928296
10
40.41352504
20
21.151705618
72
1
10
40.41352504
20
21.151705618
11
37.9799852161
21
18.719272959
72
4
94
3
73
0
74
0
95
8
96
4
40
0.0
40
0.0
40
0.0
40
0.0
40
1.0
40
1.0
40
1.0
40
1.0
10
37.9799852161
20
18.719272959
10
37.817670844
20
18.5570324336
10
37.596234912
20
18.467974167
10
37.3668140793
20
18.4726645694
72
4
94
3
73
0
74
0
95
8
96
4
40
0.0
40
0.0
40
0.0
40
0.0
40
1.0
40
1.0
40
1.0
40
1.0
10
37.3668140793
20
18.4726645694
10
37.1373932465
20
18.4773549718
10
36.9198250986
20
18.5753884731
10
36.7643530994
20
18.7441259934
72
4
94
3
73
0
74
0
95
8
96
4
40
0.0
40
0.0
40
0.0
40
0.0
40
1.0
40
1.0
40
1.0
40
1.0
10
36.7643530994
20
18.7441259934
10
17.2201778715
20
40.0983108342
10
6.4927260737
20
67.6498731618
10
6.5081661759
20
96.8266880994
72
4
94
3
73
0
74
0
95
8
96
4
40
0.0
40
0.0
40
0.0
40
0.0
40
1.0
40
1.0
40
1.0
40
1.0
10
6.5081661759
20
96.8266880994
10
6.5236062444
20
126.0034392131
10
17.2802120928
20
153.5436323749
10
36.8469772446
20
174.8771200656
72
4
94
3
73
0
74
0
95
8
96
4
40
0.0
40
0.0
40
0.0
40
0.0
40
1.0
40
1.0
40
1.0
40
1.0
10
36.8469772446
20
174.8771200656
10
37.0026277454
20
175.0456929427
10
37.2202995282
20
175.143496119
10
37.4497251967
20
175.1479437041
72
4
94
3
73
0
74
0
95
8
96
4
40
0.0
40
0.0
40
0.0
40
0.0
40
1.0
40
1.0
40
1.0
40
1.0
10
37.4497251967
20
175.1479437041
10
37.6791508652
20
175.1523912892
10
37.9004924156
20
175.0630987088
10
38.0626349844
20
174.9006864837
72
1
10
38.0626349844
20
174.9006864837
11
40.493599004
21
172.465679574
72
4
94
3
73
0
74
0
95
8
96
4
40
0.0
40
0.0
40
0.0
40
0.0
40
1.0
40
1.0
40
1.0
40
1.0
10
40.493599004
20
172.465679574
10
40.8239924473
20
172.140442498
10
40.8537337938
20
171.6144519879
10
40.5626701232
20
171.2441224678
72
4
94
2
73
0
74
0
95
6
96
3
40
0.0
40
0.0
40
0.0
40
1.0
40
1.0
40
1.0
10
40.5626701232
20
171.2441224678
10
21.8200218248
20
147.5806223786
10
19.1840773155
20
117.2103114882
72
4
94
2
73
0
74
0
95
6
96
3
40
0.0
40
0.0
40
0.0
40
1.0
40
1.0
40
1.0
10
19.1840773155
20
117.2103114882
10
18.213958088
20
106.029473119
10
18.2090847519
20
96.8204391085
97
0
75
0
76
1
98
0
0
HATCH
5
2f9
100
AcDbEntity
8
Layer 1
6
Solid
370
0
62
0
100
AcDbHatch
10
0
20
0
30
0
210
0
220
0
230
1
2
FILL_761
70
1
71
0
91
1
92
0
93
18
72
4
94
3
73
0
74
0
95
8
96
4
40
0.0
40
0.0
40
0.0
40
0.0
40
1.0
40
1.0
40
1.0
40
1.0
10
490.1509391261
20
96.874326444
10
490.1597297443
20
67.7333848041
10
479.4391841799
20
40.2180784658
10
459.9141456378
20
18.8945462728
72
1
10
459.9141456378
20
18.8945462728
11
459.9141456378
21
18.8945462728
72
4
94
3
73
0
74
0
95
8
96
4
40
0.0
40
0.0
40
0.0
40
0.0
40
1.0
40
1.0
40
1.0
40
1.0
10
459.9141456378
20
18.8945462728
10
459.7588261265
20
18.7260512007
10
459.5415027542
20
18.6281874735
10
459.3123624579
20
18.6235549648
72
4
94
3
73
0
74
0
95
8
96
4
40
0.0
40
0.0
40
0.0
40
0.0
40
1.0
40
1.0
40
1.0
40
1.0
10
459.3123624579
20
18.6235549648
10
459.0832221617
20
18.6189224561
10
458.8620782698
20
18.7079217302
10
458.7
20
18.87
72
1
10
458.7
20
18.87
11
456.27
21
21.3
72
1
10
456.27
20
21.3
11
456.27
21
21.3
72
4
94
3
73
0
74
0
95
8
96
4
40
0.0
40
0.0
40
0.0
40
0.0
40
1.0
40
1.0
40
1.0
40
1.0
10
456.27
20
21.3
10
455.9397423119
20
21.62456359
10
455.9096009984
20
22.1498836254
10
456.2
20
22.52
72
4
94
2
73
0
74
0
95
6
96
3
40
0.0
40
0.0
40
0.0
40
1.0
40
1.0
40
1.0
10
456.2
20
22.52
10
474.9
20
46.17
10
477.5075059996
20
76.5052105738
72
4
94
2
73
0
74
0
95
6
96
3
40
0.0
40
0.0
40
0.0
40
1.0
40
1.0
40
1.0
10
477.5075059996
20
76.5052105738
10
478.4671559557
20
87.673126499
10
478.4643813801
20
96.8708579947
72
4
94
2
73
0
74
0
95
6
96
3
40
0.0
40
0.0
40
0.0
40
1.0
40
1.0
40
1.0
10
478.4643813801
20
96.8708579947
10
478.4616068196
20
106.0685394311
10
477.4952192411
20
117.2358743504
72
4
94
2
73
0
74
0
95
6
96
3
40
0.0
40
0.0
40
0.0
40
1.0
40
1.0
40
1.0
10
477.4952192411
20
117.2358743504
10
474.8694119583
20
147.5695062498
10
456.1551469071
20
171.2082199118
72
1
10
456.1551469071
20
171.2082199118
11
456.1551469071
21
171.2082199118
72
4
94
3
73
0
74
0
95
8
96
4
40
0.0
40
0.0
40
0.0
40
0.0
40
1.0
40
1.0
40
1.0
40
1.0
10
456.1551469071
20
171.2082199118
10
455.8645246607
20
171.5781610163
10
455.8943490341
20
172.1034991408
10
456.2244108472
20
172.428261922
72
1
10
456.2244108472
20
172.428261922
11
458.6529443439
21
174.8597275408
72
1
10
458.6529443439
20
174.8597275408
11
458.6529443439
21
174.8597275408
72
4
94
3
73
0
74
0
95
8
96
4
40
0.0
40
0.0
40
0.0
40
0.0
40
1.0
40
1.0
40
1.0
40
1.0
10
458.6529443439
20
174.8597275408
10
458.8149247996
20
175.0219035657
10
459.0360149564
20
175.1110362435
10
459.2651580058
20
175.10654198
72
4
94
3
73
0
74
0
95
8
96
4
40
0.0
40
0.0
40
0.0
40
0.0
40
1.0
40
1.0
40
1.0
40
1.0
10
459.2651580058
20
175.10654198
10
459.4943010552
20
175.1020477165
10
459.7116834309
20
175.0043151221
10
459.8671045699
20
174.8359137876
72
4
94
3
73
0
74
0
95
8
96
4
40
0.0
40
0.0
40
0.0
40
0.0
40
1.0
40
1.0
40
1.0
40
1.0
10
459.8671045699
20
174.8359137876
10
479.4050044148
20
153.5241652692
10
490.1421484888
20
126.0153318293
10
490.1509391261
20
96.874326444
97
0
75
0
76
1
98
0
0
HATCH
5
321
100
AcDbEntity
8
Layer 1
6
Solid
370
0
62
0
100
AcDbHatch
10
0
20
0
30
0
210
0
220
0
230
1
2
FILL_801
70
1
71
0
91
1
92
0
93
19
72
4
94
2
73
0
74
0
95
6
96
3
40
0.0
40
0.0
40
0.0
40
1.0
40
1.0
40
1.0
10
527.9181061498
20
172.2685156736
10
531.5057307516
20
172.2682995159
10
536.7603893518
20
172.7676604609
72
1
10
536.7603893518
20
172.7676604609
11
536.7603893518
21
172.7676604609
72
4
94
3
73
0
74
0
95
8
96
4
40
0.0
40
0.0
40
0.0
40
0.0
40
1.0
40
1.0
40
1.0
40
1.0
10
536.7603893518
20
172.7676604609
10
536.860326705
20
172.7773635713
10
536.9595301527
20
172.7428486918
10
537.0321934771
20
172.6730943257
72
4
94
3
73
0
74
0
95
8
96
4
40
0.0
40
0.0
40
0.0
40
0.0
40
1.0
40
1.0
40
1.0
40
1.0
10
537.0321934771
20
172.6730943257
10
537.1048568016
20
172.6033399596
10
537.1437967189
20
172.5052418198
10
537.1388836215
20
172.4043185956
72
4
94
3
73
0
74
0
95
8
96
4
40
0.0
40
0.0
40
0.0
40
0.0
40
1.0
40
1.0
40
1.0
40
1.0
10
537.1388836215
20
172.4043185956
10
536.0677624593
20
152.5519641246
10
535.690591673
20
132.5466484501
10
535.6891053453
20
107.8776861776
72
4
94
3
73
0
74
0
95
8
96
4
40
0.0
40
0.0
40
0.0
40
0.0
40
1.0
40
1.0
40
1.0
40
1.0
10
535.6891053453
20
107.8776861776
10
535.6876190177
20
83.2087239051
10
536.062379124
20
63.203362926
10
537.1311080333
20
43.3508795271
72
1
10
537.1311080333
20
43.3508795271
11
537.1311080333
21
43.3508795271
72
4
94
3
73
0
74
0
95
8
96
4
40
0.0
40
0.0
40
0.0
40
0.0
40
1.0
40
1.0
40
1.0
40
1.0
10
537.1311080333
20
43.3508795271
10
537.1360089692
20
43.2499557116
10
537.0970572312
20
43.1518622648
10
537.0243855017
20
43.0821166553
72
4
94
3
73
0
74
0
95
8
96
4
40
0.0
40
0.0
40
0.0
40
0.0
40
1.0
40
1.0
40
1.0
40
1.0
10
537.0243855017
20
43.0821166553
10
536.9517137723
20
43.0123710458
10
536.8525061662
20
42.9778681207
10
536.7525699829
20
42.9875832737
72
4
94
2
73
0
74
0
95
6
96
3
40
0.0
40
0.0
40
0.0
40
1.0
40
1.0
40
1.0
10
536.7525699829
20
42.9875832737
10
531.4979715949
20
43.487577411
10
527.910346993
20
43.4877935687
72
4
94
2
73
0
74
0
95
6
96
3
40
0.0
40
0.0
40
0.0
40
1.0
40
1.0
40
1.0
10
527.910346993
20
43.4877935687
10
524.3227223912
20
43.4880097264
10
519.0680637911
20
42.9886487814
72
4
94
3
73
0
74
0
95
8
96
4
40
0.0
40
0.0
40
0.0
40
0.0
40
1.0
40
1.0
40
1.0
40
1.0
10
519.0680637911
20
42.9886487814
10
518.9681264379
20
42.978945671
10
518.8689229902
20
43.0134605505
10
518.7962596657
20
43.0832149166
72
4
94
3
73
0
74
0
95
8
96
4
40
0.0
40
0.0
40
0.0
40
0.0
40
1.0
40
1.0
40
1.0
40
1.0
10
518.7962596657
20
43.0832149166
10
518.7235963412
20
43.1529692827
10
518.6846564239
20
43.2510674225
10
518.6895695213
20
43.3519906467
72
4
94
3
73
0
74
0
95
8
96
4
40
0.0
40
0.0
40
0.0
40
0.0
40
1.0
40
1.0
40
1.0
40
1.0
10
518.6895695213
20
43.3519906467
10
519.7606906835
20
63.2043451177
10
520.1378614699
20
83.2096607922
10
520.1393477975
20
107.8786230647
72
4
94
3
73
0
74
0
95
8
96
4
40
0.0
40
0.0
40
0.0
40
0.0
40
1.0
40
1.0
40
1.0
40
1.0
10
520.1393477975
20
107.8786230647
10
520.1408341251
20
132.5475853373
10
519.7660740188
20
152.5529463163
10
518.6973451095
20
172.4054297152
72
1
10
518.6973451095
20
172.4054297152
11
518.6973451095
21
172.4054297152
72
4
94
3
73
0
74
0
95
8
96
4
40
0.0
40
0.0
40
0.0
40
0.0
40
1.0
40
1.0
40
1.0
40
1.0
10
518.6973451095
20
172.4054297152
10
518.6924441736
20
172.5063535307
10
518.7313959116
20
172.6044469775
10
518.8040676411
20
172.674192587
72
4
94
3
73
0
74
0
95
8
96
4
40
0.0
40
0.0
40
0.0
40
0.0
40
1.0
40
1.0
40
1.0
40
1.0
10
518.8040676411
20
172.674192587
10
518.8767393706
20
172.7439381965
10
518.9759469767
20
172.7784411216
10
519.0758831599
20
172.7687259687
72
4
94
2
73
0
74
0
95
6
96
3
40
0.0
40
0.0
40
0.0
40
1.0
40
1.0
40
1.0
10
519.0758831599
20
172.7687259687
10
524.330481548
20
172.2687318313
10
527.9181061498
20
172.2685156736
97
0
75
0
76
1
98
0
0
HATCH
5
333
100
AcDbEntity
8
Layer 1
6
Solid
370
0
62
0
100
AcDbHatch
10
0
20
0
30
0
210
0
220
0
230
1
2
FILL_819
70
1
71
0
91
1
92
0
93
8
72
4
94
3
73
0
74
0
95
8
96
4
40
0.0
40
0.0
40
0.0
40
0.0
40
1.0
40
1.0
40
1.0
40
1.0
10
829.24
20
146.96
10
829.24
20
146.5513092851
10
828.9086907149
20
146.22
10
828.5
20
146.22
72
1
10
828.5
20
146.22
11
773.84
21
146.22
72
4
94
3
73
0
74
0
95
8
96
4
40
0.0
40
0.0
40
0.0
40
0.0
40
1.0
40
1.0
40
1.0
40
1.0
10
773.84
20
146.22
10
773.4313092851
20
146.22
10
773.1
20
146.5513092851
10
773.1
20
146.96
72
1
10
773.1
20
146.96
11
773.1
21
147.46
72
4
94
3
73
0
74
0
95
8
96
4
40
0.0
40
0.0
40
0.0
40
0.0
40
1.0
40
1.0
40
1.0
40
1.0
10
773.1
20
147.46
10
773.1
20
147.8686907149
10
773.4313092851
20
148.2
10
773.84
20
148.2
72
1
10
773.84
20
148.2
11
828.5
21
148.2
72
4
94
3
73
0
74
0
95
8
96
4
40
0.0
40
0.0
40
0.0
40
0.0
40
1.0
40
1.0
40
1.0
40
1.0
10
828.5
20
148.2
10
828.9086907149
20
148.2
10
829.24
20
147.8686907149
10
829.24
20
147.46
72
1
10
829.24
20
147.46
11
829.24
21
146.96
97
0
75
0
76
1
98
0
0
HATCH
5
363
100
AcDbEntity
8
Layer 1
6
Solid
370
0
62
0
100
AcDbHatch
10
0
20
0
30
0
210
0
220
0
230
1
2
FILL_867
70
1
71
0
91
1
92
0
93
23
72
4
94
2
73
0
74
0
95
6
96
3
40
0.0
40
0.0
40
0.0
40
1.0
40
1.0
40
1.0
10
134.71
20
60.91
10
134.2
20
58.58
10
133.8
20
52.77
72
1
10
133.8
20
52.77
11
133.8
21
52.77
72
4
94
3
73
0
74
0
95
8
96
4
40
0.0
40
0.0
40
0.0
40
0.0
40
1.0
40
1.0
40
1.0
40
1.0
10
133.8
20
52.77
10
133.7746660704
20
52.370990609
10
133.5730076023
20
52.0043388487
10
133.25
20
51.77
72
4
94
2
73
0
74
0
95
6
96
3
40
0.0
40
0.0
40
0.0
40
1.0
40
1.0
40
1.0
10
133.25
20
51.77
10
118.31
20
40.78
10
100.12
20
41.29
72
4
94
2
73
0
74
0
95
6
96
3
40
0.0
40
0.0
40
0.0
40
1.0
40
1.0
40
1.0
10
100.12
20
41.29
10
88.62
20
41.62
10
79.02
20
46.02
72
4
94
3
73
0
74
0
95
8
96
4
40
0.0
40
0.0
40
0.0
40
0.0
40
1.0
40
1.0
40
1.0
40
1.0
10
79.02
20
46.02
10
69.88
20
50.21
10
61.86
20
59.35
10
58.58
20
69.6
72
4
94
2
73
0
74
0
95
6
96
3
40
0.0
40
0.0
40
0.0
40
1.0
40
1.0
40
1.0
10
58.58
20
69.6
10
52.73
20
87.93
10
58.61
20
105.18
72
4
94
3
73
0
74
0
95
8
96
4
40
0.0
40
0.0
40
0.0
40
0.0
40
1.0
40
1.0
40
1.0
40
1.0
10
58.61
20
105.18
10
67.09
20
130.03
10
93.44
20
138.07
10
117.31
20
133.58
72
4
94
2
73
0
74
0
95
6
96
3
40
0.0
40
0.0
40
0.0
40
1.0
40
1.0
40
1.0
10
117.31
20
133.58
10
125.97
20
131.96
10
133.66
20
127.54
72
1
10
133.66
20
127.54
11
133.66
21
127.54
72
4
94
3
73
0
74
0
95
8
96
4
40
0.0
40
0.0
40
0.0
40
0.0
40
1.0
40
1.0
40
1.0
40
1.0
10
133.66
20
127.54
10
134.2642796744
20
127.1971874924
10
134.5407944964
20
126.4723834892
10
134.32
20
125.81
72
1
10
134.32
20
125.81
11
130.53
21
114.32
72
1
10
130.53
20
114.32
11
130.53
21
114.32
72
4
94
3
73
0
74
0
95
8
96
4
40
0.0
40
0.0
40
0.0
40
0.0
40
1.0
40
1.0
40
1.0
40
1.0
10
130.53
20
114.32
10
130.434427493
20
114.0260694596
10
130.1767302552
20
113.8145616829
10
129.8697141081
20
113.7780632598
72
4
94
3
73
0
74
0
95
8
96
4
40
0.0
40
0.0
40
0.0
40
0.0
40
1.0
40
1.0
40
1.0
40
1.0
10
129.8697141081
20
113.7780632598
10
129.5626979609
20
113.7415648367
10
129.2622929364
20
113.8867247921
10
129.1
20
114.15
72
4
94
3
73
0
74
0
95
8
96
4
40
0.0
40
0.0
40
0.0
40
0.0
40
1.0
40
1.0
40
1.0
40
1.0
10
129.1
20
114.15
10
123.9
20
122.7
10
114.59
20
128.83
10
104.4
20
128.72
72
4
94
3
73
0
74
0
95
8
96
4
40
0.0
40
0.0
40
0.0
40
0.0
40
1.0
40
1.0
40
1.0
40
1.0
10
104.4
20
128.72
10
92.92
20
128.6
10
83.11
20
123.52
10
77.77
20
113.3
72
4
94
2
73
0
74
0
95
6
96
3
40
0.0
40
0.0
40
0.0
40
1.0
40
1.0
40
1.0
10
77.77
20
113.3
10
74.69
20
107.4
10
73.45
20
99.25
72
4
94
2
73
0
74
0
95
6
96
3
40
0.0
40
0.0
40
0.0
40
1.0
40
1.0
40
1.0
10
73.45
20
99.25
10
71.31
20
85.21
10
74.31
20
72.27
72
4
94
2
73
0
74
0
95
6
96
3
40
0.0
40
0.0
40
0.0
40
1.0
40
1.0
40
1.0
10
74.31
20
72.27
10
78.92
20
52.46
10
98.73
20
49.01
72
4
94
3
73
0
74
0
95
8
96
4
40
0.0
40
0.0
40
0.0
40
0.0
40
1.0
40
1.0
40
1.0
40
1.0
10
98.73
20
49.01
10
103.24
20
48.23
10
109.24
20
48.44
10
114.3
20
49.89
72
4
94
2
73
0
74
0
95
6
96
3
40
0.0
40
0.0
40
0.0
40
1.0
40
1.0
40
1.0
10
114.3
20
49.89
10
125.19
20
53.02
10
133.5
20
61.44
72
4
94
3
73
0
74
0
95
8
96
4
40
0.0
40
0.0
40
0.0
40
0.0
40
1.0
40
1.0
40
1.0
40
1.0
10
133.5
20
61.44
10
133.88
20
61.82
10
134.85
20
61.59
10
134.71
20
60.91
97
0
75
0
76
1
98
0
0
HATCH
5
37d
100
AcDbEntity
8
Layer 1
6
Solid
370
0
62
0
100
AcDbHatch
10
0
20
0
30
0
210
0
220
0
230
1
2
FILL_893
70
1
71
0
91
2
92
0
93
8
72
4
94
2
73
0
74
0
95
6
96
3
40
0.0
40
0.0
40
0.0
40
1.0
40
1.0
40
1.0
10
195.3490147109
20
134.7952067506
10
203.9017502441
20
134.8355793126
10
212.2243034724
20
132.1123180676
72
4
94
3
73
0
74
0
95
8
96
4
40
0.0
40
0.0
40
0.0
40
0.0
40
1.0
40
1.0
40
1.0
40
1.0
10
212.2243034724
20
132.1123180676
10
233.62
20
125.11
10
242.64
20
106.29
10
241.69
20
84.64
72
4
94
2
73
0
74
0
95
6
96
3
40
0.0
40
0.0
40
0.0
40
1.0
40
1.0
40
1.0
10
241.69
20
84.64
10
241.1
20
71.31
10
235.5533332982
20
61.7613608728
72
4
94
3
73
0
74
0
95
8
96
4
40
0.0
40
0.0
40
0.0
40
0.0
40
1.0
40
1.0
40
1.0
40
1.0
10
235.5533332982
20
61.7613608728
10
227.0069179621
20
47.060936806
10
212.4011406972
20
41.3809226761
10
195.7903401298
20
41.302512608
72
4
94
3
73
0
74
0
95
8
96
4
40
0.0
40
0.0
40
0.0
40
0.0
40
1.0
40
1.0
40
1.0
40
1.0
10
195.7903401298
20
41.302512608
10
179.1795395624
20
41.2241025398
10
164.5207902004
20
46.765975614
10
155.8359742666
20
61.3850609149
72
4
94
2
73
0
74
0
95
6
96
3
40
0.0
40
0.0
40
0.0
40
1.0
40
1.0
40
1.0
10
155.8359742666
20
61.3850609149
10
150.1994094503
20
70.8809104164
10
149.4835919686
20
84.2047464005
72
4
94
3
73
0
74
0
95
8
96
4
40
0.0
40
0.0
40
0.0
40
0.0
40
1.0
40
1.0
40
1.0
40
1.0
10
149.4835919686
20
84.2047464005
10
148.3292443782
20
105.8448129818
10
157.1711695064
20
124.7491288918
10
178.4998061724
20
131.9531240468
72
4
94
2
73
0
74
0
95
6
96
3
40
0.0
40
0.0
40
0.0
40
1.0
40
1.0
40
1.0
10
178.4998061724
20
131.9531240468
10
186.7962791777
20
134.7548341886
10
195.3490147109
20
134.7952067506
97
0
92
0
93
4
72
4
94
3
73
0
74
0
95
8
96
4
40
0.0
40
0.0
40
0.0
40
0.0
40
1.0
40
1.0
40
1.0
40
1.0
10
166.1034777309
20
87.6823578722
10
166.1144486097
20
68.5703254305
10
172.0395685639
20
46.696182443
10
195.5946286872
20
46.7097037526
72
4
94
3
73
0
74
0
95
8
96
4
40
0.0
40
0.0
40
0.0
40
0.0
40
1.0
40
1.0
40
1.0
40
1.0
10
195.5946286872
20
46.7097037526
10
219.1496888104
20
46.7232250623
10
225.0496920424
20
68.6041560244
10
225.0387211636
20
87.7161884661
72
4
94
3
73
0
74
0
95
8
96
4
40
0.0
40
0.0
40
0.0
40
0.0
40
1.0
40
1.0
40
1.0
40
1.0
10
225.0387211636
20
87.7161884661
10
225.0277502849
20
106.8282209078
10
219.1026303307
20
128.7023638953
10
195.5475702074
20
128.6888425857
72
4
94
3
73
0
74
0
95
8
96
4
40
0.0
40
0.0
40
0.0
40
0.0
40
1.0
40
1.0
40
1.0
40
1.0
10
195.5475702074
20
128.6888425857
10
171.9925100841
20
128.675321276
10
166.0925068522
20
106.7943903138
10
166.1034777309
20
87.6823578722
97
0
75
0
76
1
98
0
0
HATCH
5
3b5
100
AcDbEntity
8
Layer 1
6
Solid
370
0
62
0
100
AcDbHatch
10
0
20
0
30
0
210
0
220
0
230
1
2
FILL_949
70
1
71
0
91
2
92
0
93
17
72
4
94
2
73
0
74
0
95
6
96
3
40
0.0
40
0.0
40
0.0
40
1.0
40
1.0
40
1.0
10
438.81
20
61.68
10
439.37
20
61.64
10
439.32
20
61.07
72
4
94
2
73
0
74
0
95
6
96
3
40
0.0
40
0.0
40
0.0
40
1.0
40
1.0
40
1.0
10
439.32
20
61.07
10
438.84
20
55.85
10
438.29
20
52.52
72
4
94
3
73
0
74
0
95
8
96
4
40
0.0
40
0.0
40
0.0
40
0.0
40
1.0
40
1.0
40
1.0
40
1.0
10
438.29
20
52.52
10
438.2260371975
20
52.1362231848
10
438.0098140127
20
51.7938698089
10
437.69
20
51.57
72
4
94
2
73
0
74
0
95
6
96
3
40
0.0
40
0.0
40
0.0
40
1.0
40
1.0
40
1.0
10
437.69
20
51.57
10
419.67
20
38.63
10
397.32
20
41.89
72
4
94
3
73
0
74
0
95
8
96
4
40
0.0
40
0.0
40
0.0
40
0.0
40
1.0
40
1.0
40
1.0
40
1.0
10
397.32
20
41.89
10
379.86
20
44.44
10
365.65
20
56.7
10
361.81
20
73.72
72
4
94
3
73
0
74
0
95
8
96
4
40
0.0
40
0.0
40
0.0
40
0.0
40
1.0
40
1.0
40
1.0
40
1.0
10
361.81
20
73.72
10
358.78
20
87.11
10
360.86
20
105.77
10
368.79
20
117.71
72
4
94
3
73
0
74
0
95
8
96
4
40
0.0
40
0.0
40
0.0
40
0.0
40
1.0
40
1.0
40
1.0
40
1.0
10
368.79
20
117.71
10
374.83
20
126.83
10
383.13
20
132.02
10
394.25
20
133.9
72
4
94
3
73
0
74
0
95
8
96
4
40
0.0
40
0.0
40
0.0
40
0.0
40
1.0
40
1.0
40
1.0
40
1.0
10
394.25
20
133.9
10
407.13
20
136.08
10
420.27
20
134.38
10
430.62
20
126.07
72
4
94
3
73
0
74
0
95
8
96
4
40
0.0
40
0.0
40
0.0
40
0.0
40
1.0
40
1.0
40
1.0
40
1.0
10
430.62
20
126.07
10
441.37
20
117.46
10
444.64
20
102.59
10
442.92
20
89.28
72
1
10
442.92
20
89.28
11
442.92
21
89.28
72
4
94
3
73
0
74
0
95
8
96
4
40
0.0
40
0.0
40
0.0
40
0.0
40
1.0
40
1.0
40
1.0
40
1.0
10
442.92
20
89.28
10
442.8802258229
20
88.9504425328
10
442.5952394925
20
88.7043179747
10
442.26
20
88.71
72
4
94
2
73
0
74
0
95
6
96
3
40
0.0
40
0.0
40
0.0
40
1.0
40
1.0
40
1.0
10
442.26
20
88.71
10
409.12
20
89.73
10
378.2
20
88.88
72
1
10
378.2
20
88.88
11
378.2
21
88.88
72
4
94
3
73
0
74
0
95
8
96
4
40
0.0
40
0.0
40
0.0
40
0.0
40
1.0
40
1.0
40
1.0
40
1.0
10
378.2
20
88.88
10
377.769418688
20
88.8686689128
10
377.4183277179
20
88.530581312
10
377.39
20
88.1
72
4
94
3
73
0
74
0
95
8
96
4
40
0.0
40
0.0
40
0.0
40
0.0
40
1.0
40
1.0
40
1.0
40
1.0
10
377.39
20
88.1
10
376.45
20
74.98
10
379.91
20
60.99
10
391.82
20
53.59
72
4
94
3
73
0
74
0
95
8
96
4
40
0.0
40
0.0
40
0.0
40
0.0
40
1.0
40
1.0
40
1.0
40
1.0
10
391.82
20
53.59
10
407.29
20
43.98
10
426.05
20
49.02
10
438.22
20
61.53
72
4
94
2
73
0
74
0
95
6
96
3
40
0.0
40
0.0
40
0.0
40
1.0
40
1.0
40
1.0
10
438.22
20
61.53
10
438.4
20
61.71
10
438.81
20
61.68
97
0
92
0
93
10
72
4
94
2
73
0
74
0
95
6
96
3
40
0.0
40
0.0
40
0.0
40
1.0
40
1.0
40
1.0
10
427.72
20
96.57
10
427.75
20
107.03
10
424.63
20
114.73
72
4
94
2
73
0
74
0
95
6
96
3
40
0.0
40
0.0
40
0.0
40
1.0
40
1.0
40
1.0
10
424.63
20
114.73
10
418.7
20
129.35
10
402.97
20
128.64
72
4
94
3
73
0
74
0
95
8
96
4
40
0.0
40
0.0
40
0.0
40
0.0
40
1.0
40
1.0
40
1.0
40
1.0
10
402.97
20
128.64
10
386.5
20
127.9
10
378.89
20
110.67
10
377.89
20
96.59
72
1
10
377.89
20
96.59
11
377.89
21
96.59
72
4
94
3
73
0
74
0
95
8
96
4
40
0.0
40
0.0
40
0.0
40
0.0
40
1.0
40
1.0
40
1.0
40
1.0
10
377.89
20
96.59
10
377.8795038175
20
96.4194370336
10
377.9373814704
20
96.2519323443
10
378.0504311353
20
96.1256935518
72
4
94
3
73
0
74
0
95
8
96
4
40
0.0
40
0.0
40
0.0
40
0.0
40
1.0
40
1.0
40
1.0
40
1.0
10
378.0504311353
20
96.1256935518
10
378.1634808002
20
95.9994547594
10
378.3220610792
20
95.9252480913
10
378.49
20
95.92
72
4
94
2
73
0
74
0
95
6
96
3
40
0.0
40
0.0
40
0.0
40
1.0
40
1.0
40
1.0
10
378.49
20
95.92
10
403.7
20
94.95
10
427.09
20
95.92
72
1
10
427.09
20
95.92
11
427.09
21
95.92
72
4
94
3
73
0
74
0
95
8
96
4
40
0.0
40
0.0
40
0.0
40
0.0
40
1.0
40
1.0
40
1.0
40
1.0
10
427.09
20
95.92
10
427.4426835238
20
95.9367944535
10
427.72
20
96.2229146274
10
427.72
20
96.57
72
1
10
427.72
20
96.57
11
427.72
21
96.57
97
0
75
0
76
1
98
0
0
HATCH
5
40f
100
AcDbEntity
8
Layer 1
6
Solid
370
0
62
0
100
AcDbHatch
10
0
20
0
30
0
210
0
220
0
230
1
2
FILL_1039
70
1
71
0
91
2
92
0
93
32
72
4
94
3
73
0
74
0
95
8
96
4
40
0.0
40
0.0
40
0.0
40
0.0
40
1.0
40
1.0
40
1.0
40
1.0
10
817.01
20
53.61
10
811.71
20
48.23
10
803.33
20
42.67
10
795.83
20
41.78
72
4
94
3
73
0
74
0
95
8
96
4
40
0.0
40
0.0
40
0.0
40
0.0
40
1.0
40
1.0
40
1.0
40
1.0
10
795.83
20
41.78
10
785.49
20
40.56
10
775.29
20
41.09
10
768.04
20
49.41
72
4
94
2
73
0
74
0
95
6
96
3
40
0.0
40
0.0
40
0.0
40
1.0
40
1.0
40
1.0
10
768.04
20
49.41
10
761.11
20
57.38
10
763.24
20
69.4
72
4
94
3
73
0
74
0
95
8
96
4
40
0.0
40
0.0
40
0.0
40
0.0
40
1.0
40
1.0
40
1.0
40
1.0
10
763.24
20
69.4
10
765.46
20
81.96
10
776.93
20
87.41
10
788.17
20
89.45
72
4
94
2
73
0
74
0
95
6
96
3
40
0.0
40
0.0
40
0.0
40
1.0
40
1.0
40
1.0
10
788.17
20
89.45
10
796.44
20
90.95
10
804.75
20
92.53
72
4
94
3
73
0
74
0
95
8
96
4
40
0.0
40
0.0
40
0.0
40
0.0
40
1.0
40
1.0
40
1.0
40
1.0
10
804.75
20
92.53
10
809.06
20
93.35
10
815.51
20
94.73
10
817.29
20
98.18
72
4
94
3
73
0
74
0
95
8
96
4
40
0.0
40
0.0
40
0.0
40
0.0
40
1.0
40
1.0
40
1.0
40
1.0
10
817.29
20
98.18
10
817.4288400763
20
98.4510687205
10
817.516942839
20
98.7424855507
10
817.55
20
99.04
72
4
94
2
73
0
74
0
95
6
96
3
40
0.0
40
0.0
40
0.0
40
1.0
40
1.0
40
1.0
10
817.55
20
99.04
10
818.59
20
108.45
10
815.77
20
115.26
72
4
94
3
73
0
74
0
95
8
96
4
40
0.0
40
0.0
40
0.0
40
0.0
40
1.0
40
1.0
40
1.0
40
1.0
10
815.77
20
115.26
10
812.92
20
122.18
10
806.55
20
126.39
10
798.82
20
126.66
72
4
94
3
73
0
74
0
95
8
96
4
40
0.0
40
0.0
40
0.0
40
0.0
40
1.0
40
1.0
40
1.0
40
1.0
10
798.82
20
126.66
10
788.21
20
127.03
10
778.83
20
123.35
10
773.22
20
114.3
72
4
94
2
73
0
74
0
95
6
96
3
40
0.0
40
0.0
40
0.0
40
1.0
40
1.0
40
1.0
10
773.22
20
114.3
10
772.94
20
113.84
10
771.98
20
113.76
72
1
10
771.98
20
113.76
11
771.98
21
113.76
72
4
94
3
73
0
74
0
95
8
96
4
40
0.0
40
0.0
40
0.0
40
0.0
40
1.0
40
1.0
40
1.0
40
1.0
10
771.98
20
113.76
10
771.7549162607
20
113.7418898141
10
771.5324148997
20
113.8177100126
10
771.3655915975
20
113.9693675601
72
4
94
3
73
0
74
0
95
8
96
4
40
0.0
40
0.0
40
0.0
40
0.0
40
1.0
40
1.0
40
1.0
40
1.0
10
771.3655915975
20
113.9693675601
10
771.1987682953
20
114.1210251075
10
771.1025871694
20
114.3349162607
10
771.1
20
114.56
72
1
10
771.1
20
114.56
11
771.02
21
123.14
72
1
10
771.02
20
123.14
11
771.02
21
123.14
72
4
94
3
73
0
74
0
95
8
96
4
40
0.0
40
0.0
40
0.0
40
0.0
40
1.0
40
1.0
40
1.0
40
1.0
10
771.02
20
123.14
10
771.02
20
123.4565194588
10
771.1631148222
20
123.7574275464
10
771.41
20
123.96
72
4
94
3
73
0
74
0
95
8
96
4
40
0.0
40
0.0
40
0.0
40
0.0
40
1.0
40
1.0
40
1.0
40
1.0
10
771.41
20
123.96
10
783.62
20
133.82
10
801.06
20
138.1
10
816.04
20
132.02
72
4
94
3
73
0
74
0
95
8
96
4
40
0.0
40
0.0
40
0.0
40
0.0
40
1.0
40
1.0
40
1.0
40
1.0
10
816.04
20
132.02
10
824.31
20
128.66
10
829.67
20
121.79
10
831.76
20
113.37
72
4
94
2
73
0
74
0
95
6
96
3
40
0.0
40
0.0
40
0.0
40
1.0
40
1.0
40
1.0
10
831.76
20
113.37
10
832.61
20
109.91
10
832.47
20
102.56
72
4
94
2
73
0
74
0
95
6
96
3
40
0.0
40
0.0
40
0.0
40
1.0
40
1.0
40
1.0
10
832.47
20
102.56
10
832.28
20
92.69
10
831.66
20
65.5
72
4
94
3
73
0
74
0
95
8
96
4
40
0.0
40
0.0
40
0.0
40
0.0
40
1.0
40
1.0
40
1.0
40
1.0
10
831.66
20
65.5
10
831.5
20
58.35
10
830.73
20
46.58
10
842.04
20
49.02
72
4
94
3
73
0
74
0
95
8
96
4
40
0.0
40
0.0
40
0.0
40
0.0
40
1.0
40
1.0
40
1.0
40
1.0
10
842.04
20
49.02
10
842.2600416781
20
49.0688981507
10
842.4903981774
20
49.0161511872
10
842.6669867462
20
48.8764327592
72
4
94
3
73
0
74
0
95
8
96
4
40
0.0
40
0.0
40
0.0
40
0.0
40
1.0
40
1.0
40
1.0
40
1.0
10
842.6669867462
20
48.8764327592
10
842.8435753149
20
48.7367143312
10
842.9475550925
20
48.5249314932
10
842.95
20
48.3
72
1
10
842.95
20
48.3
11
842.97
21
46.08
72
1
10
842.97
20
46.08
11
842.97
21
46.08
72
4
94
3
73
0
74
0
95
8
96
4
40
0.0
40
0.0
40
0.0
40
0.0
40
1.0
40
1.0
40
1.0
40
1.0
10
842.97
20
46.08
10
842.9758671148
20
45.5050227543
10
842.5873759014
20
45.000810754
10
842.03
20
44.86
72
4
94
3
73
0
74
0
95
8
96
4
40
0.0
40
0.0
40
0.0
40
0.0
40
1.0
40
1.0
40
1.0
40
1.0
10
842.03
20
44.86
10
836.43
20
43.45
10
830.74
20
42.54
10
825.07
20
44.31
72
4
94
3
73
0
74
0
95
8
96
4
40
0.0
40
0.0
40
0.0
40
0.0
40
1.0
40
1.0
40
1.0
40
1.0
10
825.07
20
44.31
10
820.96
20
45.6
10
818.85
20
49.63
10
817.67
20
53.45
72
1
10
817.67
20
53.45
11
817.67
21
53.45
72
4
94
3
73
0
74
0
95
8
96
4
40
0.0
40
0.0
40
0.0
40
0.0
40
1.0
40
1.0
40
1.0
40
1.0
10
817.67
20
53.45
10
817.6278165161
20
53.5828779744
10
817.5193393112
20
53.6842043579
10
817.3841922657
20
53.7169672781
72
4
94
3
73
0
74
0
95
8
96
4
40
0.0
40
0.0
40
0.0
40
0.0
40
1.0
40
1.0
40
1.0
40
1.0
10
817.3841922657
20
53.7169672781
10
817.2490452202
20
53.7497301982
10
817.107022013
20
53.7091311872
10
817.01
20
53.61
97
0
92
0
93
12
72
1
10
816.78
20
60.91
11
816.78
21
60.91
72
4
94
3
73
0
74
0
95
8
96
4
40
0.0
40
0.0
40
0.0
40
0.0
40
1.0
40
1.0
40
1.0
40
1.0
10
816.78
20
60.91
10
817.0857991811
20
61.3199010299
10
817.2569872689
20
61.8125034868
10
817.27
20
62.32
72
1
10
817.27
20
62.32
11
817.83
21
89.64
72
1
10
817.83
20
89.64
11
817.83
21
89.64
72
4
94
3
73
0
74
0
95
8
96
4
40
0.0
40
0.0
40
0.0
40
0.0
40
1.0
40
1.0
40
1.0
40
1.0
10
817.83
20
89.64
10
817.8324170496
20
89.6810898426
10
817.8156327781
20
89.720979272
10
817.784443165
20
89.7482701834
72
4
94
3
73
0
74
0
95
8
96
4
40
0.0
40
0.0
40
0.0
40
0.0
40
1.0
40
1.0
40
1.0
40
1.0
10
817.784443165
20
89.7482701834
10
817.753253552
20
89.7755610948
10
817.7110898426
20
89.7872511487
10
817.67
20
89.78
72
4
94
2
73
0
74
0
95
6
96
3
40
0.0
40
0.0
40
0.0
40
1.0
40
1.0
40
1.0
10
817.67
20
89.78
10
802.97
20
86.83
10
797.52
20
85.67
72
4
94
3
73
0
74
0
95
8
96
4
40
0.0
40
0.0
40
0.0
40
0.0
40
1.0
40
1.0
40
1.0
40
1.0
10
797.52
20
85.67
10
782.83
20
82.54
10
775.19
20
74.06
10
779.54
20
58.52
72
1
10
779.54
20
58.52
11
779.54
21
58.52
72
4
94
3
73
0
74
0
95
8
96
4
40
0.0
40
0.0
40
0.0
40
0.0
40
1.0
40
1.0
40
1.0
40
1.0
10
779.54
20
58.52
10
779.6262820075
20
58.2146944351
10
779.7507101401
20
57.9254830999
10
779.91
20
57.66
72
4
94
2
73
0
74
0
95
6
96
3
40
0.0
40
0.0
40
0.0
40
1.0
40
1.0
40
1.0
10
779.91
20
57.66
10
784.93
20
49.13
10
794.13
20
48.6
72
4
94
3
73
0
74
0
95
8
96
4
40
0.0
40
0.0
40
0.0
40
0.0
40
1.0
40
1.0
40
1.0
40
1.0
10
794.13
20
48.6
10
803.28
20
48.08
10
811.33
20
53.61
10
816.78
20
60.91
97
0
75
0
76
1
98
0
0
HATCH
5
44f
100
AcDbEntity
8
Layer 1
6
Solid
370
0
62
0
100
AcDbHatch
10
0
20
0
30
0
210
0
220
0
230
1
2
FILL_1103
70
1
71
0
91
1
92
0
93
31
72
1
10
878.9
20
114.89
11
878.9
21
114.89
72
4
94
3
73
0
74
0
95
8
96
4
40
0.0
40
0.0
40
0.0
40
0.0
40
1.0
40
1.0
40
1.0
40
1.0
10
878.9
20
114.89
10
878.8978740539
20
114.7858286417
10
878.9676833661
20
114.6932442162
10
879.0682063326
20
114.6669167726
72
4
94
3
73
0
74
0
95
8
96
4
40
0.0
40
0.0
40
0.0
40
0.0
40
1.0
40
1.0
40
1.0
40
1.0
10
879.0682063326
20
114.6669167726
10
879.1687292992
20
114.640589329
10
879.2732291861
20
114.6875213452
10
879.32
20
114.78
72
4
94
3
73
0
74
0
95
8
96
4
40
0.0
40
0.0
40
0.0
40
0.0
40
1.0
40
1.0
40
1.0
40
1.0
10
879.32
20
114.78
10
884.63
20
125.17
10
895.84
20
138.14
10
909.5
20
134.01
72
1
10
909.5
20
134.01
11
909.5
21
134.01
72
4
94
3
73
0
74
0
95
8
96
4
40
0.0
40
0.0
40
0.0
40
0.0
40
1.0
40
1.0
40
1.0
40
1.0
10
909.5
20
134.01
10
909.8223735808
20
133.9081978166
10
910.0135237991
20
133.5780292576
10
909.94
20
133.25
72
4
94
2
73
0
74
0
95
6
96
3
40
0.0
40
0.0
40
0.0
40
1.0
40
1.0
40
1.0
10
909.94
20
133.25
10
908.65
20
127.51
10
908.9
20
118.84
72
1
10
908.9
20
118.84
11
908.9
21
118.84
72
4
94
3
73
0
74
0
95
8
96
4
40
0.0
40
0.0
40
0.0
40
0.0
40
1.0
40
1.0
40
1.0
40
1.0
10
908.9
20
118.84
10
908.9130469607
20
118.3814925232
10
908.663547098
20
117.9556230401
10
908.2572561693
20
117.7429052764
72
4
94
3
73
0
74
0
95
8
96
4
40
0.0
40
0.0
40
0.0
40
0.0
40
1.0
40
1.0
40
1.0
40
1.0
10
908.2572561693
20
117.7429052764
10
907.8509652405
20
117.5301875126
10
907.3590426033
20
117.5678776764
10
906.99
20
117.84
72
4
94
2
73
0
74
0
95
6
96
3
40
0.0
40
0.0
40
0.0
40
1.0
40
1.0
40
1.0
10
906.99
20
117.84
10
905.42
20
118.98
10
904.52
20
119.24
72
4
94
3
73
0
74
0
95
8
96
4
40
0.0
40
0.0
40
0.0
40
0.0
40
1.0
40
1.0
40
1.0
40
1.0
10
904.52
20
119.24
10
887.37
20
124.2
10
879.0
20
109.52
10
878.99
20
94.75
72
4
94
2
73
0
74
0
95
6
96
3
40
0.0
40
0.0
40
0.0
40
1.0
40
1.0
40
1.0
10
878.99
20
94.75
10
878.97
20
65.52
10
879.11
20
52.0
72
4
94
2
73
0
74
0
95
6
96
3
40
0.0
40
0.0
40
0.0
40
1.0
40
1.0
40
1.0
10
879.11
20
52.0
10
879.16
20
48.04
10
879.67
20
43.54
72
1
10
879.67
20
43.54
11
879.67
21
43.54
72
4
94
3
73
0
74
0
95
8
96
4
40
0.0
40
0.0
40
0.0
40
0.0
40
1.0
40
1.0
40
1.0
40
1.0
10
879.67
20
43.54
10
879.6775962889
20
43.4792296889
10
879.6589365257
20
43.4181233051
10
879.6187629815
20
43.3722106831
72
4
94
3
73
0
74
0
95
8
96
4
40
0.0
40
0.0
40
0.0
40
0.0
40
1.0
40
1.0
40
1.0
40
1.0
10
879.6187629815
20
43.3722106831
10
879.5785894372
20
43.3262980611
10
879.5207703111
20
43.3
10
879.46
20
43.3
72
1
10
879.46
20
43.3
11
864.56
21
43.15
72
1
10
864.56
20
43.15
11
864.56
21
43.15
72
4
94
3
73
0
74
0
95
8
96
4
40
0.0
40
0.0
40
0.0
40
0.0
40
1.0
40
1.0
40
1.0
40
1.0
10
864.56
20
43.15
10
864.4690531194
20
43.15
10
864.3821271386
20
43.1875305691
10
864.3196854977
20
43.2537565519
72
4
94
3
73
0
74
0
95
8
96
4
40
0.0
40
0.0
40
0.0
40
0.0
40
1.0
40
1.0
40
1.0
40
1.0
10
864.3196854977
20
43.2537565519
10
864.2572438568
20
43.3199825346
10
864.2248030354
20
43.4090531194
10
864.23
20
43.5
72
4
94
2
73
0
74
0
95
6
96
3
40
0.0
40
0.0
40
0.0
40
1.0
40
1.0
40
1.0
10
864.23
20
43.5
10
864.66
20
49.89
10
864.77
20
74.0
72
4
94
2
73
0
74
0
95
6
96
3
40
0.0
40
0.0
40
0.0
40
1.0
40
1.0
40
1.0
10
864.77
20
74.0
10
864.92
20
105.13
10
864.27
20
132.29
72
1
10
864.27
20
132.29
11
864.27
21
132.29
72
4
94
3
73
0
74
0
95
8
96
4
40
0.0
40
0.0
40
0.0
40
0.0
40
1.0
40
1.0
40
1.0
40
1.0
10
864.27
20
132.29
10
864.2675446402
20
132.4127679899
10
864.3211603325
20
132.5300052011
10
864.4160845559
20
132.6094315922
72
4
94
3
73
0
74
0
95
8
96
4
40
0.0
40
0.0
40
0.0
40
0.0
40
1.0
40
1.0
40
1.0
40
1.0
10
864.4160845559
20
132.6094315922
10
864.5110087794
20
132.6888579832
10
864.6372320101
20
132.7220982382
10
864.76
20
132.7
72
4
94
2
73
0
74
0
95
6
96
3
40
0.0
40
0.0
40
0.0
40
1.0
40
1.0
40
1.0
10
864.76
20
132.7
10
871.93
20
131.37
10
879.01
20
132.7
72
1
10
879.01
20
132.7
11
879.01
21
132.7
72
4
94
3
73
0
74
0
95
8
96
4
40
0.0
40
0.0
40
0.0
40
0.0
40
1.0
40
1.0
40
1.0
40
1.0
10
879.01
20
132.7
10
879.073026882
20
132.7121205542
10
879.1381165863
20
132.6942225392
10
879.1867944521
20
132.6513860173
72
4
94
3
73
0
74
0
95
8
96
4
40
0.0
40
0.0
40
0.0
40
0.0
40
1.0
40
1.0
40
1.0
40
1.0
10
879.1867944521
20
132.6513860173
10
879.2354723179
20
132.6085494954
10
879.2624241108
20
132.5454509928
10
879.26
20
132.48
72
1
10
879.26
20
132.48
11
878.9
21
114.89
97
0
75
0
76
1
98
0
0
HATCH
5
483
100
AcDbEntity
8
Layer 1
6
Solid
370
0
62
0
100
AcDbHatch
10
0
20
0
30
0
210
0
220
0
230
1
2
FILL_1155
70
1
71
0
91
2
92
0
93
16
72
4
94
2
73
0
74
0
95
6
96
3
40
0.0
40
0.0
40
0.0
40
1.0
40
1.0
40
1.0
10
997.8065479864
20
61.6819657471
10
998.366492597
20
61.6418917026
10
998.3164180568
20
61.0719493679
72
4
94
2
73
0
74
0
95
6
96
3
40
0.0
40
0.0
40
0.0
40
1.0
40
1.0
40
1.0
10
998.3164180568
20
61.0719493679
10
997.8357373933
20
55.852480524
10
997.2853248772
20
52.5228531499
72
1
10
997.2853248772
20
52.5228531499
11
997.2853248772
21
52.5228531499
72
4
94
3
73
0
74
0
95
8
96
4
40
0.0
40
0.0
40
0.0
40
0.0
40
1.0
40
1.0
40
1.0
40
1.0
10
997.2853248772
20
52.5228531499
10
997.2213145841
20
52.139119359
10
997.0050632022
20
51.7968264206
10
996.6852466326
20
51.5730208585
72
4
94
2
73
0
74
0
95
6
96
3
40
0.0
40
0.0
40
0.0
40
1.0
40
1.0
40
1.0
10
996.6852466326
20
51.5730208585
10
978.665057383
20
38.6366698771
10
956.3174985511
20
41.8994769695
72
4
94
3
73
0
74
0
95
8
96
4
40
0.0
40
0.0
40
0.0
40
0.0
40
1.0
40
1.0
40
1.0
40
1.0
10
956.3174985511
20
41.8994769695
10
938.8594060633
20
44.4516696023
10
924.6523699037
20
56.7125475522
10
920.8150703417
20
73.7315647326
72
4
94
3
73
0
74
0
95
8
96
4
40
0.0
40
0.0
40
0.0
40
0.0
40
1.0
40
1.0
40
1.0
40
1.0
10
920.8150703417
20
73.7315647326
10
917.7871956346
20
87.1207927731
10
919.8695963988
20
105.7788435804
10
927.8005451894
20
117.7166818474
72
4
94
3
73
0
74
0
95
8
96
4
40
0.0
40
0.0
40
0.0
40
0.0
40
1.0
40
1.0
40
1.0
40
1.0
10
927.8005451894
20
117.7166818474
10
933.8412714146
20
126.8350330422
10
942.1412518545
20
132.0234208589
10
953.2605225827
20
133.901712506
72
4
94
3
73
0
74
0
95
8
96
4
40
0.0
40
0.0
40
0.0
40
0.0
40
1.0
40
1.0
40
1.0
40
1.0
10
953.2605225827
20
133.901712506
10
966.1396782255
20
136.0797335485
10
979.2782730342
20
134.3780639229
10
989.6262001682
20
126.0673692991
72
4
94
3
73
0
74
0
95
8
96
4
40
0.0
40
0.0
40
0.0
40
0.0
40
1.0
40
1.0
40
1.0
40
1.0
10
989.6262001682
20
126.0673692991
10
1000.3740501238
20
117.4566459465
10
1003.6416983696
20
102.5875163831
10
1001.9200069656
20
89.2789394779
72
4
94
3
73
0
74
0
95
8
96
4
40
0.0
40
0.0
40
0.0
40
0.0
40
1.0
40
1.0
40
1.0
40
1.0
10
1001.9200069656
20
89.2789394779
10
1001.8801906587
20
88.9494168569
10
1001.5951955872
20
88.7033537001
10
1001.2599867222
20
88.7090816772
72
4
94
2
73
0
74
0
95
6
96
3
40
0.0
40
0.0
40
0.0
40
1.0
40
1.0
40
1.0
10
1001.2599867222
20
88.7090816772
10
968.1230778995
20
89.733583435
10
937.2057123274
20
88.8879439953
72
4
94
3
73
0
74
0
95
8
96
4
40
0.0
40
0.0
40
0.0
40
0.0
40
1.0
40
1.0
40
1.0
40
1.0
10
937.2057123274
20
88.8879439953
10
936.7751677716
20
88.8766735868
10
936.4240612002
20
88.5386647338
10
936.3956763337
20
88.1081256739
72
4
94
3
73
0
74
0
95
8
96
4
40
0.0
40
0.0
40
0.0
40
0.0
40
1.0
40
1.0
40
1.0
40
1.0
10
936.3956763337
20
88.1081256739
10
935.4539418314
20
74.9894237641
10
938.9116951157
20
61.0001895407
10
950.8196095006
20
53.5991977317
72
4
94
3
73
0
74
0
95
8
96
4
40
0.0
40
0.0
40
0.0
40
0.0
40
1.0
40
1.0
40
1.0
40
1.0
10
950.8196095006
20
53.5991977317
10
966.2869007439
20
43.9879092914
10
985.0459293413
20
49.0248609106
10
997.2165797159
20
61.5320608611
72
4
94
2
73
0
74
0
95
6
96
3
40
0.0
40
0.0
40
0.0
40
1.0
40
1.0
40
1.0
10
997.2165797159
20
61.5320608611
10
997.3965886383
20
61.7120198947
10
997.8065479864
20
61.6819657471
97
0
92
0
93
9
72
4
94
2
73
0
74
0
95
6
96
3
40
0.0
40
0.0
40
0.0
40
1.0
40
1.0
40
1.0
10
986.7272808106
20
96.5898571702
10
986.752087469
20
107.0461399529
10
983.6293855364
20
114.7418467543
72
4
94
2
73
0
74
0
95
6
96
3
40
0.0
40
0.0
40
0.0
40
1.0
40
1.0
40
1.0
10
983.6293855364
20
114.7418467543
10
977.6942575326
20
129.353692254
10
961.9702217118
20
128.6361518035
72
4
94
3
73
0
74
0
95
8
96
4
40
0.0
40
0.0
40
0.0
40
0.0
40
1.0
40
1.0
40
1.0
40
1.0
10
961.9702217118
20
128.6361518035
10
945.5064647839
20
127.8882554075
10
937.9077169815
20
110.6606324526
10
936.9150500236
20
96.5851606619
72
1
10
936.9150500236
20
96.5851606619
11
936.9150500236
21
96.5851606619
72
4
94
3
73
0
74
0
95
8
96
4
40
0.0
40
0.0
40
0.0
40
0.0
40
1.0
40
1.0
40
1.0
40
1.0
10
936.9150500236
20
96.5851606619
10
936.9046420952
20
96.4146533511
10
936.9625820916
20
96.2472371035
10
937.0756539687
20
96.1210993654
72
4
94
3
73
0
74
0
95
8
96
4
40
0.0
40
0.0
40
0.0
40
0.0
40
1.0
40
1.0
40
1.0
40
1.0
10
937.0756539687
20
96.1210993654
10
937.1887258457
20
95.9949616273
10
937.3472863113
20
95.9208600079
10
937.5151679125
20
95.9156969982
72
4
94
2
73
0
74
0
95
6
96
3
40
0.0
40
0.0
40
0.0
40
1.0
40
1.0
40
1.0
10
937.5151679125
20
95.9156969982
10
962.7166537045
20
94.9585339403
10
986.0978276486
20
95.9397769399
72
4
94
3
73
0
74
0
95
8
96
4
40
0.0
40
0.0
40
0.0
40
0.0
40
1.0
40
1.0
40
1.0
40
1.0
10
986.0978276486
20
95.9397769399
10
986.4503770153
20
95.9567401461
10
986.7274527817
20
96.2428956361
10
986.7272808106
20
96.5898571702
72
1
10
986.7272808106
20
96.5898571702
11
986.7272808106
21
96.5898571702
97
0
75
0
76
1
98
0
0
HATCH
5
4d1
100
AcDbEntity
8
Layer 1
6
Solid
370
0
62
0
100
AcDbHatch
10
0
20
0
30
0
210
0
220
0
230
1
2
FILL_1233
70
1
71
0
91
1
92
0
93
38
72
4
94
2
73
0
74
0
95
6
96
3
40
0.0
40
0.0
40
0.0
40
1.0
40
1.0
40
1.0
10
629.88
20
58.09
10
627.59
20
55.0
10
627.45
20
54.76
72
4
94
2
73
0
74
0
95
6
96
3
40
0.0
40
0.0
40
0.0
40
1.0
40
1.0
40
1.0
10
627.45
20
54.76
10
624.46
20
49.5
10
616.72
20
45.14
72
4
94
3
73
0
74
0
95
8
96
4
40
0.0
40
0.0
40
0.0
40
0.0
40
1.0
40
1.0
40
1.0
40
1.0
10
616.72
20
45.14
10
608.57
20
40.54
10
597.84
20
40.51
10
588.65
20
42.65
72
4
94
2
73
0
74
0
95
6
96
3
40
0.0
40
0.0
40
0.0
40
1.0
40
1.0
40
1.0
10
588.65
20
42.65
10
586.5
20
43.15
10
582.12
20
45.44
72
4
94
3
73
0
74
0
95
8
96
4
40
0.0
40
0.0
40
0.0
40
0.0
40
1.0
40
1.0
40
1.0
40
1.0
10
582.12
20
45.44
10
571.3
20
51.1
10
568.65
20
62.55
10
568.73
20
73.63
72
4
94
3
73
0
74
0
95
8
96
4
40
0.0
40
0.0
40
0.0
40
0.0
40
1.0
40
1.0
40
1.0
40
1.0
10
568.73
20
73.63
10
568.82
20
84.84
10
569.53
20
97.59
10
569.37
20
108.77
72
4
94
2
73
0
74
0
95
6
96
3
40
0.0
40
0.0
40
0.0
40
1.0
40
1.0
40
1.0
10
569.37
20
108.77
10
569.37
20
108.99
10
569.02
20
132.13
72
1
10
569.02
20
132.13
11
569.02
21
132.13
72
4
94
3
73
0
74
0
95
8
96
4
40
0.0
40
0.0
40
0.0
40
0.0
40
1.0
40
1.0
40
1.0
40
1.0
10
569.02
20
132.13
10
569.0175212522
20
132.2836823618
10
569.0840937309
20
132.4304321797
10
569.2018140579
20
132.5307839338
72
4
94
3
73
0
74
0
95
8
96
4
40
0.0
40
0.0
40
0.0
40
0.0
40
1.0
40
1.0
40
1.0
40
1.0
10
569.2018140579
20
132.5307839338
10
569.3195343848
20
132.631135688
10
569.4763176382
20
132.6747874777
10
569.63
20
132.65
72
4
94
2
73
0
74
0
95
6
96
3
40
0.0
40
0.0
40
0.0
40
1.0
40
1.0
40
1.0
10
569.63
20
132.65
10
576.65
20
131.5
10
583.86
20
132.65
72
1
10
583.86
20
132.65
11
583.86
21
132.65
72
4
94
3
73
0
74
0
95
8
96
4
40
0.0
40
0.0
40
0.0
40
0.0
40
1.0
40
1.0
40
1.0
40
1.0
10
583.86
20
132.65
10
584.0297480777
20
132.6766746979
10
584.202372704
20
132.6241602228
10
584.3289174216
20
132.5073497143
72
4
94
3
73
0
74
0
95
8
96
4
40
0.0
40
0.0
40
0.0
40
0.0
40
1.0
40
1.0
40
1.0
40
1.0
10
584.3289174216
20
132.5073497143
10
584.4554621391
20
132.3905392057
10
584.5221248627
20
132.2221730502
10
584.51
20
132.05
72
4
94
2
73
0
74
0
95
6
96
3
40
0.0
40
0.0
40
0.0
40
1.0
40
1.0
40
1.0
10
584.51
20
132.05
10
583.17
20
114.06
10
582.9
20
91.95
72
4
94
3
73
0
74
0
95
8
96
4
40
0.0
40
0.0
40
0.0
40
0.0
40
1.0
40
1.0
40
1.0
40
1.0
10
582.9
20
91.95
10
582.77
20
81.17
10
581.3
20
66.97
10
588.08
20
58.24
72
4
94
2
73
0
74
0
95
6
96
3
40
0.0
40
0.0
40
0.0
40
1.0
40
1.0
40
1.0
10
588.08
20
58.24
10
592.69
20
52.3
10
599.92
20
51.04
72
4
94
3
73
0
74
0
95
8
96
4
40
0.0
40
0.0
40
0.0
40
0.0
40
1.0
40
1.0
40
1.0
40
1.0
10
599.92
20
51.04
10
612.48
20
48.85
10
623.51
20
53.81
10
627.63
20
66.45
72
4
94
2
73
0
74
0
95
6
96
3
40
0.0
40
0.0
40
0.0
40
1.0
40
1.0
40
1.0
10
627.63
20
66.45
10
629.78
20
73.03
10
629.9
20
79.88
72
4
94
2
73
0
74
0
95
6
96
3
40
0.0
40
0.0
40
0.0
40
1.0
40
1.0
40
1.0
10
629.9
20
79.88
10
630.36
20
106.89
10
629.84
20
132.48
72
1
10
629.84
20
132.48
11
629.84
21
132.48
72
4
94
3
73
0
74
0
95
8
96
4
40
0.0
40
0.0
40
0.0
40
0.0
40
1.0
40
1.0
40
1.0
40
1.0
10
629.84
20
132.48
10
629.84
20
132.556138941
10
629.8736896102
20
132.6283556845
10
629.9317995116
20
132.6767806024
72
4
94
3
73
0
74
0
95
8
96
4
40
0.0
40
0.0
40
0.0
40
0.0
40
1.0
40
1.0
40
1.0
40
1.0
10
629.9317995116
20
132.6767806024
10
629.989909413
20
132.7252055202
10
630.0663171538
20
132.7447365692
10
630.14
20
132.73
72
4
94
2
73
0
74
0
95
6
96
3
40
0.0
40
0.0
40
0.0
40
1.0
40
1.0
40
1.0
10
630.14
20
132.73
10
637.62
20
131.38
10
645.02
20
132.72
72
1
10
645.02
20
132.72
11
645.02
21
132.72
72
4
94
3
73
0
74
0
95
8
96
4
40
0.0
40
0.0
40
0.0
40
0.0
40
1.0
40
1.0
40
1.0
40
1.0
10
645.02
20
132.72
10
645.1135089427
20
132.7391813216
10
645.2105589746
20
132.7126459422
10
645.2829122511
20
132.6481146415
72
4
94
3
73
0
74
0
95
8
96
4
40
0.0
40
0.0
40
0.0
40
0.0
40
1.0
40
1.0
40
1.0
40
1.0
10
645.2829122511
20
132.6481146415
10
645.3552655275
20
132.5835833409
10
645.3947953304
20
132.4883042731
10
645.39
20
132.39
72
4
94
2
73
0
74
0
95
6
96
3
40
0.0
40
0.0
40
0.0
40
1.0
40
1.0
40
1.0
10
645.39
20
132.39
10
642.9
20
88.21
10
644.79
20
43.62
72
1
10
644.79
20
43.62
11
644.79
21
43.62
72
4
94
3
73
0
74
0
95
8
96
4
40
0.0
40
0.0
40
0.0
40
0.0
40
1.0
40
1.0
40
1.0
40
1.0
10
644.79
20
43.62
10
644.7951979204
20
43.4822551107
10
644.7434645287
20
43.3484494888
10
644.6469714528
20
43.2500643918
72
4
94
3
73
0
74
0
95
8
96
4
40
0.0
40
0.0
40
0.0
40
0.0
40
1.0
40
1.0
40
1.0
40
1.0
10
644.6469714528
20
43.2500643918
10
644.5504783769
20
43.1516792948
10
644.4177448893
20
43.0974010398
10
644.28
20
43.1
72
1
10
644.28
20
43.1
11
630.46
21
43.38
72
4
94
3
73
0
74
0
95
8
96
4
40
0.0
40
0.0
40
0.0
40
0.0
40
1.0
40
1.0
40
1.0
40
1.0
10
630.46
20
43.38
10
630.3369158345
20
43.3855947348
10
630.24
20
43.4825105693
10
630.24
20
43.6
72
1
10
630.24
20
43.6
11
630.54
21
57.87
72
1
10
630.54
20
57.87
11
630.54
21
57.87
72
4
94
3
73
0
74
0
95
8
96
4
40
0.0
40
0.0
40
0.0
40
0.0
40
1.0
40
1.0
40
1.0
40
1.0
10
630.54
20
57.87
10
630.5427816019
20
58.0285513062
10
630.4424048838
20
58.1702370562
10
630.291712389
20
58.2204678878
72
4
94
3
73
0
74
0
95
8
96
4
40
0.0
40
0.0
40
0.0
40
0.0
40
1.0
40
1.0
40
1.0
40
1.0
10
630.291712389
20
58.2204678878
10
630.1410198943
20
58.2706987193
10
629.9745744633
20
58.2179536857
10
629.88
20
58.09
72
1
10
629.88
20
58.09
11
629.88
21
58.09
97
0
75
0
76
1
98
0
0
HATCH
5
507
100
AcDbEntity
8
Layer 1
6
Solid
370
0
62
0
100
AcDbHatch
10
0
20
0
30
0
210
0
220
0
230
1
2
FILL_1287
70
1
71
0
91
1
92
0
93
26
72
1
10
750.02
20
132.56
11
750.02
21
132.56
72
4
94
3
73
0
74
0
95
8
96
4
40
0.0
40
0.0
40
0.0
40
0.0
40
1.0
40
1.0
40
1.0
40
1.0
10
750.02
20
132.56
10
750.1647356877
20
132.5870173284
10
750.3125722573
20
132.5312228872
10
750.4031176473
20
132.4154090162
72
4
94
3
73
0
74
0
95
8
96
4
40
0.0
40
0.0
40
0.0
40
0.0
40
1.0
40
1.0
40
1.0
40
1.0
10
750.4031176473
20
132.4154090162
10
750.4936630374
20
132.2995951452
10
750.5117538934
20
132.1431568327
10
750.45
20
132.01
72
4
94
2
73
0
74
0
95
6
96
3
40
0.0
40
0.0
40
0.0
40
1.0
40
1.0
40
1.0
10
750.45
20
132.01
10
738.33
20
105.43
10
726.28
20
77.51
72
4
94
2
73
0
74
0
95
6
96
3
40
0.0
40
0.0
40
0.0
40
1.0
40
1.0
40
1.0
10
726.28
20
77.51
10
718.54
20
59.59
10
712.79
20
43.45
72
4
94
3
73
0
74
0
95
8
96
4
40
0.0
40
0.0
40
0.0
40
0.0
40
1.0
40
1.0
40
1.0
40
1.0
10
712.79
20
43.45
10
712.7123792886
20
43.2350503377
10
712.5028621342
20
43.094029176
10
712.27
20
43.1
72
1
10
712.27
20
43.1
11
700.92
21
43.33
72
1
10
700.92
20
43.33
11
700.92
21
43.33
72
4
94
3
73
0
74
0
95
8
96
4
40
0.0
40
0.0
40
0.0
40
0.0
40
1.0
40
1.0
40
1.0
40
1.0
10
700.92
20
43.33
10
700.6714739078
20
43.336061612
10
700.4509241801
20
43.4896587438
10
700.36
20
43.72
72
4
94
3
73
0
74
0
95
8
96
4
40
0.0
40
0.0
40
0.0
40
0.0
40
1.0
40
1.0
40
1.0
40
1.0
10
700.36
20
43.72
10
688.49
20
74.23
10
677.38
20
103.61
10
664.27
20
131.87
72
1
10
664.27
20
131.87
11
664.27
21
131.87
72
4
94
3
73
0
74
0
95
8
96
4
40
0.0
40
0.0
40
0.0
40
0.0
40
1.0
40
1.0
40
1.0
40
1.0
10
664.27
20
131.87
10
664.1781217986
20
132.0693952456
10
664.2046438707
20
132.3032084082
10
664.3388884983
20
132.4773069096
72
4
94
3
73
0
74
0
95
8
96
4
40
0.0
40
0.0
40
0.0
40
0.0
40
1.0
40
1.0
40
1.0
40
1.0
10
664.3388884983
20
132.4773069096
10
664.4731331258
20
132.6514054109
10
664.6930110563
20
132.7371422516
10
664.91
20
132.7
72
4
94
2
73
0
74
0
95
6
96
3
40
0.0
40
0.0
40
0.0
40
1.0
40
1.0
40
1.0
10
664.91
20
132.7
10
672.75
20
131.32
10
681.04
20
132.68
72
1
10
681.04
20
132.68
11
681.04
21
132.68
72
4
94
3
73
0
74
0
95
8
96
4
40
0.0
40
0.0
40
0.0
40
0.0
40
1.0
40
1.0
40
1.0
40
1.0
10
681.04
20
132.68
10
681.3910616245
20
132.737551086
10
681.7306529366
20
132.5337962987
10
681.84
20
132.2
72
4
94
2
73
0
74
0
95
6
96
3
40
0.0
40
0.0
40
0.0
40
1.0
40
1.0
40
1.0
10
681.84
20
132.2
10
688.23
20
112.87
10
691.17
20
104.9
72
4
94
2
73
0
74
0
95
6
96
3
40
0.0
40
0.0
40
0.0
40
1.0
40
1.0
40
1.0
10
691.17
20
104.9
10
699.54
20
82.24
10
709.51
20
60.15
72
1
10
709.51
20
60.15
11
709.51
21
60.15
72
4
94
3
73
0
74
0
95
8
96
4
40
0.0
40
0.0
40
0.0
40
0.0
40
1.0
40
1.0
40
1.0
40
1.0
10
709.51
20
60.15
10
709.5755801303
20
60.0009542494
10
709.717857263
20
59.9002957557
10
709.880647784
20
59.8877734079
72
4
94
3
73
0
74
0
95
8
96
4
40
0.0
40
0.0
40
0.0
40
0.0
40
1.0
40
1.0
40
1.0
40
1.0
10
709.880647784
20
59.8877734079
10
710.043438305
20
59.8752510601
10
710.2005725496
20
59.9528779094
10
710.29
20
60.09
72
4
94
2
73
0
74
0
95
6
96
3
40
0.0
40
0.0
40
0.0
40
1.0
40
1.0
40
1.0
10
710.29
20
60.09
10
711.3
20
61.67
10
712.16
20
63.61
72
4
94
3
73
0
74
0
95
8
96
4
40
0.0
40
0.0
40
0.0
40
0.0
40
1.0
40
1.0
40
1.0
40
1.0
10
712.16
20
63.61
10
722.2
20
86.37
10
730.56
20
109.72
10
738.7
20
132.15
72
1
10
738.7
20
132.15
11
738.7
21
132.15
72
4
94
3
73
0
74
0
95
8
96
4
40
0.0
40
0.0
40
0.0
40
0.0
40
1.0
40
1.0
40
1.0
40
1.0
10
738.7
20
132.15
10
738.8262581614
20
132.5000794474
10
739.1884425379
20
132.7046070954
10
739.55
20
132.63
72
4
94
2
73
0
74
0
95
6
96
3
40
0.0
40
0.0
40
0.0
40
1.0
40
1.0
40
1.0
10
739.55
20
132.63
10
744.74
20
131.55
10
750.02
20
132.56
97
0
75
0
76
1
98
0
0
HATCH
5
511
100
AcDbEntity
8
Layer 1
6
Solid
370
0
62
7
100
AcDbHatch
10
0
20
0
30
0
210
0
220
0
230
1
2
FILL_1297
70
1
71
0
91
1
92
0
93
4
72
4
94
3
73
0
74
0
95
8
96
4
40
0.0
40
0.0
40
0.0
40
0.0
40
1.0
40
1.0
40
1.0
40
1.0
10
195.5475702074
20
128.6888425857
10
219.1026303307
20
128.7023638953
10
225.0277502849
20
106.8282209078
10
225.0387211636
20
87.7161884661
72
4
94
3
73
0
74
0
95
8
96
4
40
0.0
40
0.0
40
0.0
40
0.0
40
1.0
40
1.0
40
1.0
40
1.0
10
225.0387211636
20
87.7161884661
10
225.0496920424
20
68.6041560244
10
219.1496888104
20
46.7232250623
10
195.5946286872
20
46.7097037526
72
4
94
3
73
0
74
0
95
8
96
4
40
0.0
40
0.0
40
0.0
40
0.0
40
1.0
40
1.0
40
1.0
40
1.0
10
195.5946286872
20
46.7097037526
10
172.0395685639
20
46.696182443
10
166.1144486097
20
68.5703254305
10
166.1034777309
20
87.6823578722
72
4
94
3
73
0
74
0
95
8
96
4
40
0.0
40
0.0
40
0.0
40
0.0
40
1.0
40
1.0
40
1.0
40
1.0
10
166.1034777309
20
87.6823578722
10
166.0925068522
20
106.7943903138
10
171.9925100841
20
128.675321276
10
195.5475702074
20
128.6888425857
97
0
75
0
76
1
98
0
0
HATCH
5
527
100
AcDbEntity
8
Layer 1
6
Solid
370
0
62
7
100
AcDbHatch
10
0
20
0
30
0
210
0
220
0
230
1
2
FILL_1319
70
1
71
0
91
1
92
0
93
10
72
4
94
2
73
0
74
0
95
6
96
3
40
0.0
40
0.0
40
0.0
40
1.0
40
1.0
40
1.0
10
427.09
20
95.92
10
403.7
20
94.95
10
378.49
20
95.92
72
1
10
378.49
20
95.92
11
378.49
21
95.92
72
4
94
3
73
0
74
0
95
8
96
4
40
0.0
40
0.0
40
0.0
40
0.0
40
1.0
40
1.0
40
1.0
40
1.0
10
378.49
20
95.92
10
378.3220610792
20
95.9252480913
10
378.1634808002
20
95.9994547594
10
378.0504311353
20
96.1256935518
72
4
94
3
73
0
74
0
95
8
96
4
40
0.0
40
0.0
40
0.0
40
0.0
40
1.0
40
1.0
40
1.0
40
1.0
10
378.0504311353
20
96.1256935518
10
377.9373814704
20
96.2519323443
10
377.8795038175
20
96.4194370336
10
377.89
20
96.59
72
4
94
3
73
0
74
0
95
8
96
4
40
0.0
40
0.0
40
0.0
40
0.0
40
1.0
40
1.0
40
1.0
40
1.0
10
377.89
20
96.59
10
378.89
20
110.67
10
386.5
20
127.9
10
402.97
20
128.64
72
4
94
2
73
0
74
0
95
6
96
3
40
0.0
40
0.0
40
0.0
40
1.0
40
1.0
40
1.0
10
402.97
20
128.64
10
418.7
20
129.35
10
424.63
20
114.73
72
4
94
2
73
0
74
0
95
6
96
3
40
0.0
40
0.0
40
0.0
40
1.0
40
1.0
40
1.0
10
424.63
20
114.73
10
427.75
20
107.03
10
427.72
20
96.57
72
1
10
427.72
20
96.57
11
427.72
21
96.57
72
4
94
3
73
0
74
0
95
8
96
4
40
0.0
40
0.0
40
0.0
40
0.0
40
1.0
40
1.0
40
1.0
40
1.0
10
427.72
20
96.57
10
427.72
20
96.2229146274
10
427.4426835238
20
95.9367944535
10
427.09
20
95.92
72
1
10
427.09
20
95.92
11
427.09
21
95.92
97
0
75
0
76
1
98
0
0
HATCH
5
53b
100
AcDbEntity
8
Layer 1
6
Solid
370
0
62
7
100
AcDbHatch
10
0
20
0
30
0
210
0
220
0
230
1
2
FILL_1339
70
1
71
0
91
1
92
0
93
9
72
1
10
986.7272808106
20
96.5898571702
11
986.7272808106
21
96.5898571702
72
4
94
3
73
0
74
0
95
8
96
4
40
0.0
40
0.0
40
0.0
40
0.0
40
1.0
40
1.0
40
1.0
40
1.0
10
986.7272808106
20
96.5898571702
10
986.7274527817
20
96.2428956361
10
986.4503770153
20
95.9567401461
10
986.0978276486
20
95.9397769399
72
4
94
2
73
0
74
0
95
6
96
3
40
0.0
40
0.0
40
0.0
40
1.0
40
1.0
40
1.0
10
986.0978276486
20
95.9397769399
10
962.7166537045
20
94.9585339403
10
937.5151679125
20
95.9156969982
72
1
10
937.5151679125
20
95.9156969982
11
937.5151679125
21
95.9156969982
72
4
94
3
73
0
74
0
95
8
96
4
40
0.0
40
0.0
40
0.0
40
0.0
40
1.0
40
1.0
40
1.0
40
1.0
10
937.5151679125
20
95.9156969982
10
937.3472863113
20
95.9208600079
10
937.1887258457
20
95.9949616273
10
937.0756539687
20
96.1210993654
72
4
94
3
73
0
74
0
95
8
96
4
40
0.0
40
0.0
40
0.0
40
0.0
40
1.0
40
1.0
40
1.0
40
1.0
10
937.0756539687
20
96.1210993654
10
936.9625820916
20
96.2472371035
10
936.9046420952
20
96.4146533511
10
936.9150500236
20
96.5851606619
72
4
94
3
73
0
74
0
95
8
96
4
40
0.0
40
0.0
40
0.0
40
0.0
40
1.0
40
1.0
40
1.0
40
1.0
10
936.9150500236
20
96.5851606619
10
937.9077169815
20
110.6606324526
10
945.5064647839
20
127.8882554075
10
961.9702217118
20
128.6361518035
72
4
94
2
73
0
74
0
95
6
96
3
40
0.0
40
0.0
40
0.0
40
1.0
40
1.0
40
1.0
10
961.9702217118
20
128.6361518035
10
977.6942575326
20
129.353692254
10
983.6293855364
20
114.7418467543
72
4
94
2
73
0
74
0
95
6
96
3
40
0.0
40
0.0
40
0.0
40
1.0
40
1.0
40
1.0
10
983.6293855364
20
114.7418467543
10
986.752087469
20
107.0461399529
10
986.7272808106
20
96.5898571702
97
0
75
0
76
1
98
0
0
HATCH
5
54b
100
AcDbEntity
8
Layer 1
6
Solid
370
0
62
7
100
AcDbHatch
10
0
20
0
30
0
210
0
220
0
230
1
2
FILL_1355
70
1
71
0
91
1
92
0
93
7
72
4
94
3
73
0
74
0
95
8
96
4
40
0.0
40
0.0
40
0.0
40
0.0
40
1.0
40
1.0
40
1.0
40
1.0
10
274.56
20
101.71
10
277.56
20
115.16
10
284.76
20
126.71
10
299.88
20
126.73
72
4
94
3
73
0
74
0
95
8
96
4
40
0.0
40
0.0
40
0.0
40
0.0
40
1.0
40
1.0
40
1.0
40
1.0
10
299.88
20
126.73
10
315.87
20
126.76
10
324.12
20
116.45
10
326.54
20
101.76
72
4
94
3
73
0
74
0
95
8
96
4
40
0.0
40
0.0
40
0.0
40
0.0
40
1.0
40
1.0
40
1.0
40
1.0
10
326.54
20
101.76
10
329.22
20
85.53
10
327.1
20
62.09
10
312.2
20
51.55
72
4
94
2
73
0
74
0
95
6
96
3
40
0.0
40
0.0
40
0.0
40
1.0
40
1.0
40
1.0
10
312.2
20
51.55
10
306.7
20
47.66
10
299.15
20
47.7
72
4
94
2
73
0
74
0
95
6
96
3
40
0.0
40
0.0
40
0.0
40
1.0
40
1.0
40
1.0
10
299.15
20
47.7
10
284.21
20
47.8
10
277.74
20
61.3
72
4
94
3
73
0
74
0
95
8
96
4
40
0.0
40
0.0
40
0.0
40
0.0
40
1.0
40
1.0
40
1.0
40
1.0
10
277.74
20
61.3
10
273.39
20
70.4
10
272.7
20
80.12
10
273.3
20
90.39
72
4
94
2
73
0
74
0
95
6
96
3
40
0.0
40
0.0
40
0.0
40
1.0
40
1.0
40
1.0
10
273.3
20
90.39
10
273.74
20
98.03
10
274.56
20
101.71
97
0
75
0
76
1
98
0
0
HATCH
5
567
100
AcDbEntity
8
Layer 1
6
Solid
370
0
62
7
100
AcDbHatch
10
0
20
0
30
0
210
0
220
0
230
1
2
FILL_1383
70
1
71
0
91
1
92
0
93
13
72
4
94
3
73
0
74
0
95
8
96
4
40
0.0
40
0.0
40
0.0
40
0.0
40
1.0
40
1.0
40
1.0
40
1.0
10
816.78
20
60.91
10
811.33
20
53.61
10
803.28
20
48.08
10
794.13
20
48.6
72
4
94
2
73
0
74
0
95
6
96
3
40
0.0
40
0.0
40
0.0
40
1.0
40
1.0
40
1.0
10
794.13
20
48.6
10
784.93
20
49.13
10
779.91
20
57.66
72
1
10
779.91
20
57.66
11
779.91
21
57.66
72
4
94
3
73
0
74
0
95
8
96
4
40
0.0
40
0.0
40
0.0
40
0.0
40
1.0
40
1.0
40
1.0
40
1.0
10
779.91
20
57.66
10
779.7507101401
20
57.9254830999
10
779.6262820075
20
58.2146944351
10
779.54
20
58.52
72
4
94
3
73
0
74
0
95
8
96
4
40
0.0
40
0.0
40
0.0
40
0.0
40
1.0
40
1.0
40
1.0
40
1.0
10
779.54
20
58.52
10
775.19
20
74.06
10
782.83
20
82.54
10
797.52
20
85.67
72
4
94
2
73
0
74
0
95
6
96
3
40
0.0
40
0.0
40
0.0
40
1.0
40
1.0
40
1.0
10
797.52
20
85.67
10
802.97
20
86.83
10
817.67
20
89.78
72
1
10
817.67
20
89.78
11
817.67
21
89.78
72
4
94
3
73
0
74
0
95
8
96
4
40
0.0
40
0.0
40
0.0
40
0.0
40
1.0
40
1.0
40
1.0
40
1.0
10
817.67
20
89.78
10
817.7110898426
20
89.7872511487
10
817.753253552
20
89.7755610948
10
817.784443165
20
89.7482701834
72
4
94
3
73
0
74
0
95
8
96
4
40
0.0
40
0.0
40
0.0
40
0.0
40
1.0
40
1.0
40
1.0
40
1.0
10
817.784443165
20
89.7482701834
10
817.8156327781
20
89.720979272
10
817.8324170496
20
89.6810898426
10
817.83
20
89.64
72
1
10
817.83
20
89.64
11
817.27
21
62.32
72
1
10
817.27
20
62.32
11
817.27
21
62.32
72
4
94
3
73
0
74
0
95
8
96
4
40
0.0
40
0.0
40
0.0
40
0.0
40
1.0
40
1.0
40
1.0
40
1.0
10
817.27
20
62.32
10
817.2569872689
20
61.8125034868
10
817.0857991811
20
61.3199010299
10
816.78
20
60.91
72
1
10
816.78
20
60.91
11
816.78
21
60.91
97
0
75
0
76
1
98
0
0
ENDSEC
0
SECTION
2
OBJECTS
0
DICTIONARY
5
17
330
0
100
AcDbDictionary
281
1
3
ACAD_GROUP
350
18
0
DICTIONARY
5
18
330
17
100
AcDbDictionary
281
1
0
ENDSEC
0
EOF
